<svg width="28" height="28" viewBox="0 0 28 28" fill="none" xmlns="http://www.w3.org/2000/svg">
<path d="M7.6875 26C7.13522 26 6.6875 26.4477 6.6875 27C6.6875 27.5523 7.13522 28 7.6875 28V26ZM27 27V28C27.5523 28 28 27.5523 28 27H27ZM28 8.5C28 7.94772 27.5523 7.5 27 7.5C26.4477 7.5 26 7.94772 26 8.5H28ZM1.70711 0.292893C1.31658 -0.0976311 0.683417 -0.0976311 0.292893 0.292893C-0.0976311 0.683417 -0.0976311 1.31658 0.292893 1.70711L1.70711 0.292893ZM7.6875 28H27V26H7.6875V28ZM28 27V8.5H26V27H28ZM27.7071 26.2929L1.70711 0.292893L0.292893 1.70711L26.2929 27.7071L27.7071 26.2929Z" fill="#333333"/>
</svg>
