<svg width="94" height="25" fill="none" xmlns="http://www.w3.org/2000/svg">
  <g clip-path="url(#a)" fill-rule="evenodd" clip-rule="evenodd">
    <path d="m3.397 19.72 1.541-4.182 1.47 4.183h-3.01Zm4.507 4.216h1.413l-3.666-10.07H4.254L.417 23.937h1.426L2.97 20.85h3.836l1.098 3.086Zm4.484-3.477c-1.31-.284-2.661-.593-2.661-2.171 0-1.387 1.172-2.261 2.943-2.261 1.146 0 2.24.426 2.786 1.469l-1.191.497c-.096-.278-.712-.98-1.74-.98-1.009 0-1.513.597-1.513 1.113 0 .726.958 1.027 1.776 1.192 1.692.34 3.164.773 3.164 2.369 0 1.24-1.102 2.405-3.206 2.405-1.549 0-2.65-.518-3.179-1.6l1.359-.238c.34.593.957.85 1.876.85 1.139 0 1.805-.434 1.805-1.256 0-.87-1.093-1.146-2.22-1.39Zm6.385-4.199h1.39v1.07h-1.39v4.356c0 .903 0 1.29.55 1.29.242 0 .582-.097.84-.177v1.06c-.226.032-.76.13-1.246.13-1.487 0-1.487-.724-1.471-1.722V17.33h-1.214v-1.07h1.214v-1.83l1.327-.552v2.381Zm3.835.018v1.371c.728-1.446 2.103-1.479 2.62-1.495v1.327c-1.26.008-1.88.267-2.296.945-.342.554-.324 1.333-.324 1.99v3.52h-1.284v-7.658h1.284Zm17.473-2.41v1.256l-5.699 7.604h5.842v1.208h-7.397v-1.308l5.727-7.519H32.83v-1.241h7.25Zm9.481 2.463v1.113c.715-1.25 1.933-1.364 2.387-1.364.975 0 2.142.488 2.515 1.751.13.452.13.92.13 1.567v4.538h-1.28v-4.328c0-.776 0-1.001-.082-1.26-.227-.727-.942-1.05-1.64-1.05-.568 0-1.056.178-1.462.581-.569.566-.569 1.146-.569 1.713v4.344h-1.285V16.33h1.286Zm19.809 6.249c-.48.754-1.35 1.512-2.918 1.512-2.706 0-3.728-2.086-3.728-3.96 0-2.164 1.177-4.126 3.615-4.126.956 0 2.295.288 3.036 1.523l-1.204.503c-.228-.502-.718-1.081-1.784-1.081-2.112 0-2.235 2.406-2.235 3.085 0 2.523 1.45 3.069 2.315 3.069.992 0 1.498-.476 1.766-1l1.137.476ZM42.07 19.323h4.06c-.113-2.003-1.268-2.341-2.038-2.341-1.099 0-1.877.807-2.022 2.341Zm5.117 3.158c-.438.746-1.283 1.601-2.95 1.601-2.26 0-3.56-1.536-3.56-4.11 0-2.877 1.897-3.977 3.512-3.977 1.404 0 2.75.776 3.203 2.698.146.647.146 1.23.146 1.553h-5.5c-.032 1.28.504 2.898 2.312 2.866.738-.012 1.258-.347 1.59-.872l1.247.241Zm9.49-3.158h4.06c-.112-2.003-1.267-2.341-2.037-2.341-1.098 0-1.877.807-2.023 2.341Zm5.118 3.158c-.438.746-1.283 1.601-2.95 1.601-2.26 0-3.56-1.536-3.56-4.11 0-2.877 1.897-3.977 3.512-3.977 1.404 0 2.75.776 3.202 2.698.146.647.146 1.23.146 1.553h-5.5c-.033 1.28.505 2.898 2.312 2.866.738-.012 1.26-.347 1.59-.872l1.248.241Zm14.598 1.463-1.336.005s-.115-.54-.153-1.129c-.388.404-1.108 1.237-2.563 1.237-1.488 0-2.592-.883-2.592-2.175 0-.406.114-.81.34-1.15.439-.648 1.25-1.166 3.53-1.343l1.212-.098v-.194c0-.793 0-2.12-1.709-2.12-1.074 0-1.44.521-1.564.992l-1.183-.494a2.25 2.25 0 0 1 .063-.126c.454-.84 1.346-1.358 2.635-1.358.71 0 1.629.178 2.228.647.852.646.832 1.918.832 1.918l.052 3.927c0 .002.045 1.142.208 1.461Zm-1.757-2.111c.195-.42.211-.598.211-1.716-.5.08-1.176.177-2.004.356-1.424.307-1.666.843-1.666 1.377 0 .614.485 1.133 1.439 1.133.89 0 1.65-.356 2.02-1.15ZM31.92 23.944l-1.337.005s-.116-.54-.153-1.129c-.388.404-1.107 1.237-2.562 1.237-1.49 0-2.593-.883-2.593-2.175 0-.406.114-.81.341-1.15.439-.648 1.25-1.166 3.528-1.343l1.213-.098v-.194c0-.793 0-2.12-1.709-2.12-1.074 0-1.44.521-1.564.992l-1.183-.494c.02-.041.04-.083.063-.126.454-.84 1.346-1.358 2.635-1.358.71 0 1.63.178 2.228.647.852.646.832 1.918.832 1.918l.051 3.927c0 .002.046 1.142.21 1.461Zm-1.757-2.111c.195-.42.21-.598.21-1.716-.5.08-1.177.177-2.004.356-1.422.307-1.665.843-1.665 1.377 0 .614.485 1.133 1.438 1.133.89 0 1.65-.356 2.02-1.15Z" fill="#2D2A6E"/>
    <path d="M93.951 13.337a1 1 0 0 0-.022-.14 2.272 2.272 0 0 0-.085-.275 2.338 2.338 0 0 0-.136-.274 3.275 3.275 0 0 0-.186-.283 1.724 1.724 0 0 0-.291-.302c-.132-.104-.262-.21-.405-.298-.312-.191-.623-.39-.958-.538-.405-.178-.796-.389-1.214-.534l-2.813-.977c0-.535.015-1.07 0-1.604a49.705 49.705 0 0 0-.117-2.38c-.043-.55-.11-1.1-.195-1.646-.067-.426-.169-.846-.263-1.266a2.72 2.72 0 0 0-.086-.283 3.75 3.75 0 0 0-.196-.469 2.523 2.523 0 0 0-.22-.35 1.76 1.76 0 0 0-.346-.345 1.28 1.28 0 0 0-.614-.24 2.552 2.552 0 0 0-.367-.008 2.007 2.007 0 0 0-.762.206 4.164 4.164 0 0 0-.552.345c-.156.118-.316.233-.459.367a59.26 59.26 0 0 0-1.728 1.69c-.301.306-.593.623-.865.954a163.922 163.922 0 0 0-3.206 3.975c-.463.597-.88 1.228-1.308 1.85a6.265 6.265 0 0 0-.3.48c-.16.287-.31.58-.457.875a2.238 2.238 0 0 0-.097.238 2.59 2.59 0 0 0-.074.234 1.257 1.257 0 0 0-.048.44.622.622 0 0 0 .073.209 1.09 1.09 0 0 0 .16.207 3.23 3.23 0 0 0 .456.377c.147.096.298.185.449.273.066.039.135.072.202.107l-.07-.038c-.004-.001-.011-.006-.009-.005l.012.006.111.058c.927.484 1.857.961 2.779 1.453.927.494 1.853.99 2.769 1.504l2.058 1.156c-.715.541-1.443 1.064-2.143 1.622a9.363 9.363 0 0 0-1.316 1.312c-.14.173-.268.355-.387.543-.093.146-.175.3-.249.457a2.927 2.927 0 0 0-.14.368 1.989 1.989 0 0 0-.063.27c-.01.054-.012.11-.015.167l.003.057c0 .05-.002.1.001.15a1.28 1.28 0 0 0 .137.507.768.768 0 0 0 .063.105c.048.065.096.13.152.187.057.057.119.109.184.156a1.986 1.986 0 0 0 .428.234c.076.031.152.065.232.082.287.064.577.122.869.161.143.02.288.028.432.016.497-.039.994-.09 1.487-.167.576-.09 1.147-.211 1.716-.336a50.158 50.158 0 0 0 2.006-.477c.47-.123.948-.233 1.398-.417.355-.144.713-.282 1.064-.434.08-.033.154-.077.228-.12.067-.04.133-.082.196-.127.055-.04.11-.082.16-.129a.919.919 0 0 0 .114-.13.687.687 0 0 0 .116-.256.551.551 0 0 0 0-.239.748.748 0 0 0-.083-.217 1.079 1.079 0 0 0-.138-.191 1.737 1.737 0 0 0-.313-.276 2.681 2.681 0 0 0-.158-.103c-.367-.221-.732-.447-1.1-.664l-1.546-.913c.938-.636 1.885-1.26 2.815-1.91.398-.278.789-.565 1.166-.87.323-.26.63-.54.931-.826.144-.135.271-.286.401-.434.06-.068.114-.14.165-.213.048-.067.096-.134.133-.207.121-.24.24-.481.341-.73.04-.102.058-.211.08-.318.011-.05.015-.1.02-.151.003-.049.005-.098.004-.146a2.261 2.261 0 0 0-.01-.142ZM82.415 7.02c.524-.544 1.05-1.086 1.582-1.621.097-.098.205-.185.31-.276.035-.031.074-.061.112-.09.03-.023.059-.047.09-.067a.473.473 0 0 1 .072-.036c.026-.01.052-.02.08-.025a.401.401 0 0 1 .088-.003c.015 0 .03.004.045.01a.284.284 0 0 1 .087.049.426.426 0 0 1 .084.096c.014.02.03.043.038.068.026.066.049.133.066.202.024.099.043.199.059.3.038.246.073.492.1.74.036.32.062.64.092.96l.159 1.707-1.902-.437-1.774-.292-.43-.033-.14-.004c.394-.416.785-.836 1.182-1.248Zm-1.192 2.373.007-.01.01-.006.014-.002.023.004.067.019.172.066.234.104 1.812.774c.4.171.802.34 1.202.512l.791.338.07.031c.043.626.095 1.25.128 1.877.026.489.037.979.049 1.468.001.062-.004.124-.008.185a.77.77 0 0 1-.032.206.505.505 0 0 1-.038.096.494.494 0 0 1-.059.082.421.421 0 0 1-.084.065.385.385 0 0 1-.114.04.574.574 0 0 1-.33-.039 1.716 1.716 0 0 1-.372-.211 2.975 2.975 0 0 1-.395-.349 8.997 8.997 0 0 1-.4-.45c-.23-.281-.468-.557-.67-.858-.277-.415-.562-.825-.833-1.245-.161-.25-.327-.5-.461-.767l-.61-1.21-.132-.385-.03-.114-.018-.11-.002-.08.009-.031Zm6.746 10.72c.164.104.33.207.492.314.21.138.42.275.622.422.146.105.286.22.424.336a1.66 1.66 0 0 1 .296.321.017.017 0 0 1 .003.012c0 .01-.001.019-.004.028a.035.035 0 0 1-.01.015.072.072 0 0 1-.02.013.332.332 0 0 1-.074.015c-.802.06-1.605.115-2.406.178l-3.134.246-.097.006.045-.048.197-.175c.407-.302.8-.622 1.219-.906l1.774-1.203.673.426Zm2.413-6.169a.489.489 0 0 1-.09.172c-.054.063-.11.125-.172.182-.13.12-.26.242-.405.344-.498.353-.99.715-1.494 1.06-.347.237-.705.459-1.06.686l-2.058 1.323-.874-.501-3.729-2.13c-.842-.503-1.69-.998-2.526-1.51-.157-.096-.305-.208-.456-.315-.048-.034-.092-.073-.138-.11a.448.448 0 0 1-.044-.032 1.593 1.593 0 0 1-.093-.091.548.548 0 0 1-.087-.138.305.305 0 0 1-.025-.174.536.536 0 0 1 .07-.193 1.772 1.772 0 0 1 .289-.376c.481-.495.97-.984 1.454-1.477l1.305-1.332.062.215.159.378.01.023c.345.598.67 1.209 1.035 1.794.42.673.872 1.327 1.323 1.98.212.305.433.604.666.895.203.252.412.5.64.731.2.203.418.388.64.566.11.088.233.16.354.232a1.922 1.922 0 0 0 .538.205 1.216 1.216 0 0 0 .71-.054.96.96 0 0 0 .199-.11c.054-.041.108-.084.157-.13.042-.04.08-.084.115-.13a2.636 2.636 0 0 0 .362-.7c.065-.199.127-.398.176-.601.067-.274.14-.549.17-.83l.169-1.625c.385.18.78.342 1.157.539.368.192.72.414 1.078.626a.947.947 0 0 1 .118.085c.053.044.104.09.153.14a.587.587 0 0 1 .119.179.574.574 0 0 1 .027.1.226.226 0 0 1 .001.052.168.168 0 0 1-.006.053Z" fill="#EAC102"/>
  </g>
  <defs>
    <clipPath id="a">
      <path fill="#fff" transform="translate(0 .866)" d="M0 0h94v24H0z"/>
    </clipPath>
  </defs>
</svg>
