<svg width="80" height="80" fill="none" xmlns="http://www.w3.org/2000/svg">
  <path d="M55.298 45.58a1.8 1.8 0 0 0-2.412.81 14.4 14.4 0 0 1-12.223 7.994 14.406 14.406 0 0 1-15.084-14.05 14.397 14.397 0 0 1 7.11-12.754 14.406 14.406 0 0 1 7.306-1.98 14.28 14.28 0 0 1 12.89 8.01 1.812 1.812 0 0 0 3.242-1.62 18.002 18.002 0 0 0-20.239-9.513A18.005 18.005 0 0 0 22 40a17.997 17.997 0 0 0 13.89 17.523 18.008 18.008 0 0 0 20.238-9.514 1.799 1.799 0 0 0-.829-2.43Zm.9-7.38H38.933l4.142-4.122a1.807 1.807 0 1 0-2.557-2.556l-7.202 7.2a1.8 1.8 0 0 0-.378.594 1.8 1.8 0 0 0 0 1.368c.086.221.214.423.378.595l7.202 7.2a1.801 1.801 0 0 0 2.556 0 1.8 1.8 0 0 0 0-2.556l-4.14-4.123H56.2a1.801 1.801 0 0 0 0-3.6Z" fill="url(#a)"/>
  <rect x="1.5" y="1.5" width="77" height="77" rx="38.5" stroke="url(#b)" stroke-width="3"/>
  <defs>
    <linearGradient id="a" x1="21.649" y1="21.437" x2="63.26" y2="27.683" gradientUnits="userSpaceOnUse">
      <stop stop-color="#0068EC"/>
      <stop offset="1" stop-color="#00BBF9"/>
    </linearGradient>
    <linearGradient id="b" x1="-.778" y1="-1.252" x2="91.691" y2="12.627" gradientUnits="userSpaceOnUse">
      <stop stop-color="#0068EC"/>
      <stop offset="1" stop-color="#00BBF9"/>
    </linearGradient>
  </defs>
</svg>
