<svg width="80" height="80" fill="none" xmlns="http://www.w3.org/2000/svg">
  <path d="M40 40c-.917 0-1.813.264-2.576.759a4.53 4.53 0 0 0-1.707 2.02 4.377 4.377 0 0 0-.264 2.6c.179.872.62 1.674 1.269 2.303a4.681 4.681 0 0 0 2.373 1.232c.9.174 1.832.084 2.68-.256A4.61 4.61 0 0 0 43.854 47c.51-.74.781-1.61.781-2.5a4.434 4.434 0 0 0-1.358-3.182A4.709 4.709 0 0 0 40 40Zm0 6c-.306 0-.605-.087-.859-.252a1.51 1.51 0 0 1-.569-.673 1.459 1.459 0 0 1-.088-.867c.06-.291.207-.558.423-.768a1.588 1.588 0 0 1 1.684-.325c.283.113.524.305.694.552a1.47 1.47 0 0 1-.192 1.894 1.57 1.57 0 0 1-1.093.44Zm-1.097-9.434c.147.136.32.243.51.314a1.491 1.491 0 0 0 1.174 0c.19-.07.363-.178.51-.315l3.54-3.374c.299-.29.467-.685.467-1.096 0-.41-.168-.804-.468-1.095a1.62 1.62 0 0 0-1.128-.453A1.62 1.62 0 0 0 42.38 31l-.835.886V26.5c0-.397-.162-.779-.452-1.06A1.57 1.57 0 0 0 40 25c-.41 0-.803.159-1.093.44-.29.281-.452.663-.452 1.06v5.386L37.62 31a1.62 1.62 0 0 0-1.128-.453 1.62 1.62 0 0 0-1.128.453c-.3.29-.468.685-.468 1.096 0 .41.168.804.468 1.095l3.539 3.374ZM50.818 44.5c0-.296-.09-.586-.26-.833a1.537 1.537 0 0 0-.694-.552 1.588 1.588 0 0 0-.893-.086c-.3.058-.575.201-.791.41-.216.21-.363.478-.423.769-.06.29-.03.592.088.867.117.274.315.508.57.673a1.58 1.58 0 0 0 1.95-.187c.29-.281.453-.663.453-1.06ZM52.364 34h-4.637c-.41 0-.803.158-1.092.44-.29.281-.453.663-.453 1.06 0 .398.163.78.453 1.061.29.282.682.44 1.092.44h4.637c.41 0 .803.157 1.092.439.29.281.453.663.453 1.06v12c0 .398-.163.78-.453 1.061a1.57 1.57 0 0 1-1.092.44H27.636a1.57 1.57 0 0 1-1.092-.44 1.478 1.478 0 0 1-.453-1.06v-12c0-.398.163-.78.453-1.061a1.57 1.57 0 0 1 1.092-.44h4.637c.41 0 .803-.157 1.092-.439.29-.281.453-.663.453-1.06 0-.398-.163-.78-.453-1.061a1.57 1.57 0 0 0-1.092-.44h-4.637c-1.23 0-2.409.475-3.278 1.319A4.434 4.434 0 0 0 23 38.5v12a4.43 4.43 0 0 0 1.358 3.182 4.708 4.708 0 0 0 3.278 1.319h24.728c1.23 0 2.409-.475 3.278-1.319A4.434 4.434 0 0 0 57 50.502v-12a4.434 4.434 0 0 0-1.358-3.182A4.708 4.708 0 0 0 52.364 34ZM29.182 44.5c0 .297.09.587.26.834.17.246.412.439.694.552.282.114.593.143.893.086.3-.058.575-.201.791-.41.216-.21.363-.478.423-.769.06-.29.03-.592-.088-.867a1.511 1.511 0 0 0-.57-.673 1.58 1.58 0 0 0-1.95.187c-.29.281-.453.663-.453 1.06Z" fill="url(#a)"/>
  <rect x="1.5" y="1.5" width="77" height="77" rx="38.5" stroke="url(#b)" stroke-width="3"/>
  <defs>
    <linearGradient id="a" x1="22.669" y1="24.531" x2="61.724" y2="31.174" gradientUnits="userSpaceOnUse">
      <stop stop-color="#0068EC"/>
      <stop offset="1" stop-color="#00BBF9"/>
    </linearGradient>
    <linearGradient id="b" x1="-.778" y1="-1.252" x2="91.691" y2="12.627" gradientUnits="userSpaceOnUse">
      <stop stop-color="#0068EC"/>
      <stop offset="1" stop-color="#00BBF9"/>
    </linearGradient>
  </defs>
</svg>
