<svg width="80" height="80" fill="none" xmlns="http://www.w3.org/2000/svg">
  <path d="m37.62 30.994.835-.885v5.387c0 .398.162.78.452 1.06.29.282.683.44 1.093.44.41 0 .803-.158 1.093-.44.29-.28.452-.662.452-1.06v-5.387l.835.825c.14.154.312.278.503.365a1.583 1.583 0 0 0 1.753-.305 1.462 1.462 0 0 0 0-2.13l-3.539-3.436a1.552 1.552 0 0 0-.51-.315 1.59 1.59 0 0 0-1.174 0c-.19.071-.363.178-.51.315l-3.54 3.376c-.299.29-.467.684-.467 1.095 0 .411.168.805.468 1.095.299.291.705.454 1.128.454a1.62 1.62 0 0 0 1.128-.454ZM40 39.998c-.917 0-1.813.264-2.576.758a4.532 4.532 0 0 0-1.707 2.02 4.378 4.378 0 0 0-.264 2.601c.179.873.62 1.675 1.269 2.305a4.681 4.681 0 0 0 2.373 1.232c.9.173 1.832.084 2.68-.257A4.61 4.61 0 0 0 43.854 47c.51-.74.781-1.61.781-2.501a4.436 4.436 0 0 0-1.358-3.183A4.708 4.708 0 0 0 40 39.997Zm0 6.001c-.306 0-.605-.088-.859-.253a1.51 1.51 0 0 1-.569-.673 1.46 1.46 0 0 1-.088-.867c.06-.29.207-.558.423-.768a1.56 1.56 0 0 1 .792-.41 1.571 1.571 0 0 1 1.586.637 1.47 1.47 0 0 1-.192 1.895A1.57 1.57 0 0 1 40 46Zm-10.818-1.5c0 .297.09.587.26.833.17.247.412.44.694.553a1.583 1.583 0 0 0 1.684-.325c.216-.21.363-.477.423-.768a1.46 1.46 0 0 0-.088-.867 1.51 1.51 0 0 0-.57-.674 1.579 1.579 0 0 0-1.95.187c-.29.281-.453.663-.453 1.06Zm21.636 0c0-.297-.09-.587-.26-.834a1.537 1.537 0 0 0-.694-.552 1.588 1.588 0 0 0-.893-.086c-.3.058-.575.201-.791.41-.216.21-.363.478-.423.77-.06.29-.03.592.088.866.117.274.315.508.57.673a1.58 1.58 0 0 0 1.95-.186 1.48 1.48 0 0 0 .453-1.061Zm1.546-10.503h-6.182c-.41 0-.803.158-1.093.44-.29.281-.453.663-.453 1.06 0 .399.163.78.453 1.062.29.28.683.439 1.093.439h6.182c.41 0 .803.158 1.092.44.29.28.453.662.453 1.06V50.5c0 .398-.163.78-.453 1.061a1.57 1.57 0 0 1-1.092.44H27.636a1.57 1.57 0 0 1-1.092-.44 1.478 1.478 0 0 1-.453-1.06V38.495c0-.398.163-.78.453-1.06a1.57 1.57 0 0 1 1.092-.44h6.182c.41 0 .803-.158 1.093-.44.29-.28.453-.662.453-1.06s-.163-.78-.453-1.061a1.57 1.57 0 0 0-1.093-.44h-6.182c-1.23 0-2.409.474-3.278 1.319A4.436 4.436 0 0 0 23 38.496V50.5c0 1.194.488 2.339 1.358 3.183a4.707 4.707 0 0 0 3.278 1.319h24.728c1.23 0 2.409-.475 3.278-1.319A4.435 4.435 0 0 0 57 50.5V38.496a4.436 4.436 0 0 0-1.358-3.182 4.708 4.708 0 0 0-3.278-1.319Z" fill="url(#a)"/>
  <rect x="1.5" y="1.5" width="77" height="77" rx="38.5" stroke="url(#b)" stroke-width="3"/>
  <defs>
    <linearGradient id="a" x1="22.669" y1="24.531" x2="61.724" y2="31.174" gradientUnits="userSpaceOnUse">
      <stop stop-color="#0068EC"/>
      <stop offset="1" stop-color="#00BBF9"/>
    </linearGradient>
    <linearGradient id="b" x1="-.778" y1="-1.252" x2="91.691" y2="12.627" gradientUnits="userSpaceOnUse">
      <stop stop-color="#0068EC"/>
      <stop offset="1" stop-color="#00BBF9"/>
    </linearGradient>
  </defs>
</svg>
