<svg width="338" height="354" fill="none" xmlns="http://www.w3.org/2000/svg">
  <g filter="url(#a)">
    <rect x="5" y="3" width="328" height="344" rx="5" fill="url(#b)"/>
    <path d="M22.18 17.86h-3.657V28h-1.492V17.86h-3.648v-1.235h8.797v1.234Zm4.187 10.296c-1.146 0-2.078-.375-2.797-1.125-.718-.755-1.078-1.763-1.078-3.023v-.266c0-.838.159-1.586.477-2.242.323-.662.77-1.177 1.343-1.547a3.38 3.38 0 0 1 1.875-.562c1.1 0 1.954.362 2.563 1.086.61.724.914 1.76.914 3.109v.602h-5.727c.021.833.264 1.507.727 2.023.469.51 1.063.766 1.781.766.51 0 .943-.105 1.297-.313a3.26 3.26 0 0 0 .93-.828l.883.687c-.709 1.089-1.771 1.633-3.188 1.633Zm-.18-7.578c-.583 0-1.072.214-1.468.64-.396.423-.64 1.016-.735 1.782h4.235v-.11c-.042-.734-.24-1.302-.594-1.703-.354-.406-.833-.609-1.438-.609ZM38.25 28h-1.445v-3.61h-3.883V28h-1.453v-8.453h1.453v3.664h3.883v-3.664h1.445V28Zm2.258-1.18.5-.617c.562-.729.883-1.823.96-3.281l.134-3.375h5.445v7.273h1.086v3.664h-1.446V28H41.29v2.484h-1.445l.008-3.664h.656Zm1.71 0h3.884v-5.937H43.5l-.086 2.015c-.089 1.683-.487 2.99-1.195 3.922Zm11.524 1.336c-1.146 0-2.078-.375-2.797-1.125-.718-.755-1.078-1.763-1.078-3.023v-.266c0-.838.159-1.586.477-2.242.323-.662.77-1.177 1.343-1.547a3.38 3.38 0 0 1 1.876-.562c1.098 0 1.953.362 2.562 1.086.61.724.914 1.76.914 3.109v.602h-5.727c.021.833.264 1.507.727 2.023.469.51 1.063.766 1.781.766.51 0 .943-.105 1.297-.313a3.26 3.26 0 0 0 .93-.828l.883.687c-.709 1.089-1.771 1.633-3.188 1.633Zm-.18-7.578c-.583 0-1.072.214-1.468.64-.396.423-.64 1.016-.735 1.782h4.235v-.11c-.042-.734-.24-1.302-.594-1.703-.354-.406-.833-.609-1.438-.609ZM65.626 28H64.18v-3.61h-3.883V28h-1.453v-8.453h1.453v3.664h3.883v-3.664h1.445V28Zm2.453-8.453h1.453v7.273h3.89v-7.273h1.446v7.273h1.008l-.14 3.688h-1.297V28h-6.36v-8.453Zm14.828 0h1.446V28h-1.446v-6.164L79.008 28h-1.445v-8.453h1.445v6.172l3.898-6.172Zm10.227 0V28H91.68v-3.29H89.5L87.508 28h-1.563l2.125-3.508c-.541-.198-.958-.502-1.25-.914-.286-.416-.43-.9-.43-1.453 0-.77.29-1.39.868-1.86.578-.473 1.351-.713 2.32-.718h3.555Zm-5.29 2.594c0 .411.141.744.423 1 .28.25.653.377 1.117.382h2.297V20.72h-2.078c-.537 0-.964.133-1.282.398a1.26 1.26 0 0 0-.476 1.024Zm14.212 2.257H101V28h-1.453v-8.453H101v3.578h.945l2.844-3.578h1.75l-3.344 4.062L106.82 28h-1.836l-2.929-3.602Zm8.773 1.485 1.969-6.336h1.547l-3.399 9.758c-.526 1.406-1.362 2.11-2.507 2.11l-.274-.024-.539-.102v-1.172l.391.031c.489 0 .869-.099 1.14-.296.276-.198.503-.56.68-1.086l.32-.86-3.015-8.36h1.578l2.109 6.337Zm11.953-2.016c0 1.287-.294 2.323-.883 3.11-.588.786-1.385 1.18-2.39 1.18-1.026 0-1.834-.326-2.422-.977v4.07h-1.445V19.547h1.32l.07.937c.589-.729 1.407-1.093 2.453-1.093 1.016 0 1.818.382 2.407 1.148.593.766.89 1.83.89 3.195v.133Zm-1.445-.164c0-.953-.203-1.706-.609-2.258-.407-.552-.964-.828-1.672-.828-.875 0-1.532.388-1.969 1.164v4.04c.432.77 1.094 1.156 1.984 1.156.693 0 1.242-.274 1.649-.82.411-.553.617-1.37.617-2.454Zm6.68 3.274a2.08 2.08 0 0 0 1.351-.47c.386-.312.599-.702.641-1.171h1.367a2.624 2.624 0 0 1-.5 1.383 3.288 3.288 0 0 1-1.234 1.047c-.511.26-1.052.39-1.625.39-1.151 0-2.068-.383-2.75-1.148-.677-.771-1.016-1.823-1.016-3.156v-.243c0-.823.151-1.554.453-2.195A3.462 3.462 0 0 1 126 19.922c.568-.354 1.237-.531 2.008-.531.948 0 1.734.284 2.359.851.63.568.966 1.305 1.008 2.211h-1.367c-.042-.547-.25-.995-.625-1.344-.37-.354-.828-.53-1.375-.53-.735 0-1.305.265-1.711.796-.401.526-.602 1.29-.602 2.29v.273c0 .974.201 1.724.602 2.25.401.526.974.789 1.719.789ZM138.219 28c-.084-.167-.151-.463-.203-.89-.672.697-1.474 1.046-2.407 1.046-.833 0-1.518-.234-2.054-.703-.532-.474-.797-1.073-.797-1.797 0-.88.333-1.562 1-2.047.672-.49 1.614-.734 2.828-.734h1.406v-.664c0-.505-.151-.906-.453-1.203-.302-.302-.747-.453-1.336-.453-.515 0-.948.13-1.297.39s-.523.576-.523.946h-1.453c0-.422.148-.828.445-1.22.302-.395.708-.707 1.219-.937a4.122 4.122 0 0 1 1.695-.343c.974 0 1.737.244 2.289.734.552.484.839 1.154.86 2.008v3.89c0 .776.098 1.394.296 1.852V28h-1.515Zm-2.399-1.102a2.54 2.54 0 0 0 1.289-.351c.407-.235.701-.54.883-.914v-1.735h-1.133c-1.77 0-2.656.519-2.656 1.555 0 .453.151.807.453 1.063.302.255.69.382 1.164.382ZM150.891 28c-.084-.167-.151-.463-.203-.89-.672.697-1.474 1.046-2.407 1.046-.833 0-1.518-.234-2.054-.703-.532-.474-.797-1.073-.797-1.797 0-.88.333-1.562 1-2.047.672-.49 1.614-.734 2.828-.734h1.406v-.664c0-.505-.151-.906-.453-1.203-.302-.302-.747-.453-1.336-.453-.516 0-.948.13-1.297.39s-.523.576-.523.946h-1.453c0-.422.148-.828.445-1.22.302-.395.708-.707 1.219-.937a4.122 4.122 0 0 1 1.695-.343c.974 0 1.737.244 2.289.734.552.484.839 1.154.859 2.008v3.89c0 .776.099 1.394.297 1.852V28h-1.515Zm-2.399-1.102a2.54 2.54 0 0 0 1.289-.351c.407-.235.701-.54.883-.914v-1.735h-1.133c-1.771 0-2.656.519-2.656 1.555 0 .453.151.807.453 1.063.302.255.69.382 1.164.382Zm8.516-2.5h-1.055V28H154.5v-8.453h1.453v3.578h.945l2.844-3.578h1.75l-3.344 4.062L161.773 28h-1.835l-2.93-3.602Zm6.133-4.851h1.453v7.273h3.89v-7.273h1.446v7.273h1.008l-.141 3.688H169.5V28h-6.359v-8.453Zm14.828 0h1.445V28h-1.445v-6.164L174.07 28h-1.445v-8.453h1.445v6.172l3.899-6.172Zm9.234 0h1.445V28h-1.445v-6.164L183.305 28h-1.446v-8.453h1.446v6.172l3.898-6.172Zm.391-3.078c0 .63-.216 1.138-.649 1.523-.427.38-.989.57-1.687.57-.698 0-1.263-.192-1.696-.578-.432-.385-.648-.89-.648-1.515h1.18c0 .364.099.65.297.86.198.202.487.304.867.304.364 0 .648-.102.851-.305.209-.203.313-.49.313-.86h1.172Zm11.992 5.39c0-.396-.151-.708-.453-.937-.302-.235-.716-.352-1.242-.352-.511 0-.938.133-1.282.399-.338.265-.507.578-.507.937h-1.438c0-.734.307-1.336.922-1.804.615-.47 1.383-.704 2.305-.704.989 0 1.76.214 2.312.641.552.422.828 1.026.828 1.813 0 .38-.114.729-.343 1.046-.23.318-.555.57-.977.758.984.334 1.477.99 1.477 1.969 0 .776-.3 1.39-.899 1.844-.599.453-1.398.68-2.398.68-.974 0-1.779-.238-2.414-.712-.631-.479-.946-1.125-.946-1.937h1.438c0 .412.182.766.547 1.063.369.291.828.437 1.375.437.552 0 .997-.128 1.336-.383.338-.255.507-.586.507-.992 0-.474-.143-.813-.429-1.016-.282-.208-.722-.312-1.321-.312h-1.445v-1.219h1.57c.985-.026 1.477-.432 1.477-1.219ZM208.281 28c-.083-.167-.151-.463-.203-.89-.672.697-1.474 1.046-2.406 1.046-.833 0-1.518-.234-2.055-.703-.531-.474-.797-1.073-.797-1.797 0-.88.334-1.562 1-2.047.672-.49 1.615-.734 2.828-.734h1.407v-.664c0-.505-.151-.906-.453-1.203-.303-.302-.748-.453-1.336-.453-.516 0-.948.13-1.297.39s-.524.576-.524.946h-1.453c0-.422.149-.828.446-1.22.302-.395.708-.707 1.218-.937a4.13 4.13 0 0 1 1.696-.343c.974 0 1.737.244 2.289.734.552.484.838 1.154.859 2.008v3.89c0 .776.099 1.394.297 1.852V28h-1.516Zm-2.398-1.102a2.54 2.54 0 0 0 1.289-.351c.406-.235.7-.54.883-.914v-1.735h-1.133c-1.771 0-2.656.519-2.656 1.555 0 .453.151.807.453 1.063.302.255.69.382 1.164.382ZM222.648 28h-1.445v-7.258h-3.891V28h-1.453v-8.453h6.789V28Zm1.938-4.305c0-.828.161-1.573.484-2.234.328-.662.782-1.172 1.36-1.531.583-.36 1.247-.54 1.992-.54 1.151 0 2.081.4 2.789 1.196.713.797 1.07 1.857 1.07 3.18v.101c0 .823-.159 1.563-.476 2.219a3.561 3.561 0 0 1-1.352 1.523c-.583.365-1.255.547-2.015.547-1.146 0-2.076-.398-2.79-1.195-.708-.797-1.062-1.852-1.062-3.164v-.102Zm1.453.172c0 .938.216 1.69.649 2.258.437.568 1.02.852 1.75.852.734 0 1.317-.287 1.75-.86.432-.578.648-1.385.648-2.422 0-.927-.221-1.677-.664-2.25-.438-.578-1.021-.867-1.75-.867-.714 0-1.289.284-1.727.852-.437.567-.656 1.38-.656 2.437Zm11.445 3.11a2.08 2.08 0 0 0 1.352-.47c.385-.312.599-.702.641-1.171h1.367a2.624 2.624 0 0 1-.5 1.383 3.29 3.29 0 0 1-1.235 1.047 3.53 3.53 0 0 1-1.625.39c-1.151 0-2.067-.383-2.75-1.148-.677-.771-1.015-1.823-1.015-3.156v-.243c0-.823.151-1.554.453-2.195a3.456 3.456 0 0 1 1.297-1.492c.567-.354 1.237-.531 2.008-.531.947 0 1.734.284 2.359.851.63.568.966 1.305 1.008 2.211h-1.367c-.042-.547-.25-.995-.625-1.344-.37-.354-.829-.53-1.375-.53-.735 0-1.305.265-1.711.796-.401.526-.602 1.29-.602 2.29v.273c0 .974.201 1.724.602 2.25.401.526.974.789 1.718.789Zm11.914-7.43V28h-1.453v-7.258h-2.875l-.172 3.164c-.093 1.453-.338 2.492-.734 3.117-.391.625-1.013.951-1.867.977h-.578v-1.273l.414-.032c.469-.052.805-.323 1.008-.812.203-.49.333-1.396.39-2.719l.157-3.617h5.71Zm5.829 8.61c-1.146 0-2.079-.376-2.797-1.126-.719-.755-1.078-1.763-1.078-3.023v-.266c0-.838.158-1.586.476-2.242.323-.662.771-1.177 1.344-1.547a3.38 3.38 0 0 1 1.875-.562c1.099 0 1.953.362 2.562 1.086.61.724.914 1.76.914 3.109v.602h-5.726c.021.833.263 1.507.726 2.023.469.51 1.063.766 1.782.766.51 0 .942-.105 1.297-.313a3.25 3.25 0 0 0 .929-.828l.883.687c-.708 1.089-1.771 1.633-3.187 1.633Zm-.18-7.579c-.583 0-1.073.214-1.469.64-.396.423-.64 1.016-.734 1.782h4.234v-.11c-.042-.734-.239-1.302-.594-1.703-.354-.406-.833-.609-1.437-.609Zm5.086 6.242.5-.617c.562-.729.883-1.823.961-3.281l.133-3.375h5.445v7.273h1.086v3.664h-1.446V28h-5.898v2.484h-1.445l.008-3.664h.656Zm1.711 0h3.883v-5.937h-2.602l-.086 2.015c-.088 1.683-.487 2.99-1.195 3.922ZM276.766 28h-1.446v-3.61h-3.882V28h-1.454v-8.453h1.454v3.664h3.882v-3.664h1.446V28Zm7.796-8.453h1.446V28h-1.446v-6.164L280.664 28h-1.445v-8.453h1.445v6.172l3.898-6.172Zm7.274 8.61c-1.146 0-2.078-.376-2.797-1.126-.719-.755-1.078-1.763-1.078-3.023v-.266c0-.838.159-1.586.477-2.242.322-.662.77-1.177 1.343-1.547a3.38 3.38 0 0 1 1.875-.562c1.099 0 1.953.362 2.563 1.086.609.724.914 1.76.914 3.109v.602h-5.727c.021.833.263 1.507.727 2.023.469.51 1.062.766 1.781.766.51 0 .943-.105 1.297-.313.354-.208.664-.484.93-.828l.882.687c-.708 1.089-1.77 1.633-3.187 1.633Zm-.18-7.579a1.92 1.92 0 0 0-1.468.64c-.396.423-.641 1.016-.735 1.782h4.235v-.11c-.042-.734-.24-1.302-.594-1.703-.354-.406-.834-.609-1.438-.609ZM305.383 28h-1.453v-9.633l-2.914 1.07v-1.312l4.14-1.555h.227V28Zm11.687 0h-7.453v-1.04l3.938-4.374c.583-.662.984-1.198 1.203-1.61a2.69 2.69 0 0 0 .336-1.288c0-.594-.18-1.081-.539-1.461-.36-.38-.839-.57-1.438-.57-.719 0-1.278.205-1.679.616-.396.407-.594.974-.594 1.704h-1.446c0-1.047.336-1.894 1.008-2.54.677-.645 1.581-.968 2.711-.968 1.057 0 1.893.278 2.508.836.615.552.922 1.289.922 2.21 0 1.12-.714 2.454-2.141 4l-3.047 3.305h5.711V28ZM18.96 50.086l2.876-6.54h1.805V52h-1.446v-6.148L19.461 52h-1l-2.79-6.281V52h-1.444v-8.453h1.875l2.859 6.539Zm10.517 2.07c-1.146 0-2.079-.375-2.797-1.125-.72-.755-1.078-1.763-1.078-3.023v-.266c0-.838.158-1.586.476-2.242.323-.661.771-1.177 1.344-1.547a3.38 3.38 0 0 1 1.875-.562c1.099 0 1.953.362 2.562 1.086.61.724.914 1.76.914 3.109v.602h-5.726c.02.833.263 1.507.726 2.023.47.51 1.063.766 1.782.766.51 0 .942-.105 1.297-.313a3.26 3.26 0 0 0 .93-.828l.882.687c-.708 1.089-1.77 1.633-3.187 1.633Zm-.18-7.578c-.584 0-1.073.214-1.469.64-.396.423-.64 1.016-.734 1.782h4.234v-.11c-.041-.734-.24-1.301-.594-1.703-.354-.406-.833-.609-1.437-.609Zm8.547 6.399a2.08 2.08 0 0 0 1.351-.47c.386-.312.6-.702.64-1.171h1.368a2.621 2.621 0 0 1-.5 1.383 3.286 3.286 0 0 1-1.234 1.047 3.53 3.53 0 0 1-1.625.39c-1.151 0-2.068-.383-2.75-1.148-.677-.771-1.016-1.823-1.016-3.156v-.243c0-.823.151-1.554.453-2.195a3.46 3.46 0 0 1 1.297-1.492c.568-.354 1.237-.531 2.008-.531.948 0 1.734.284 2.36.851.63.568.965 1.305 1.007 2.211h-1.367c-.042-.547-.25-.995-.625-1.344-.37-.354-.828-.53-1.375-.53-.734 0-1.305.265-1.711.796-.401.526-.602 1.29-.602 2.29v.273c0 .973.201 1.723.602 2.25.401.526.974.789 1.719.789Zm11.445-7.43V52h-1.453v-3.29h-2.18L43.664 52h-1.562l2.125-3.508c-.542-.198-.959-.502-1.25-.914-.287-.417-.43-.9-.43-1.453 0-.77.289-1.39.867-1.86.578-.473 1.352-.713 2.32-.718h3.555ZM44 46.14c0 .411.14.744.422 1 .281.25.654.377 1.117.382h2.297V44.72h-2.078c-.537 0-.964.133-1.281.398A1.26 1.26 0 0 0 44 46.141Zm7.734-2.594h1.453v7.273h3.891v-7.273h1.445v7.273h1.008l-.14 3.688h-1.297V52h-6.36v-8.453Zm12.868 8.61c-1.146 0-2.079-.376-2.797-1.126-.72-.755-1.078-1.763-1.078-3.023v-.266c0-.838.158-1.586.476-2.242.323-.661.771-1.177 1.344-1.547a3.38 3.38 0 0 1 1.875-.562c1.099 0 1.953.362 2.562 1.086.61.724.914 1.76.914 3.109v.602h-5.726c.02.833.263 1.507.726 2.023.47.51 1.063.766 1.782.766.51 0 .942-.105 1.297-.313a3.26 3.26 0 0 0 .93-.828l.882.687c-.708 1.089-1.77 1.633-3.187 1.633Zm-.18-7.579c-.583 0-1.073.214-1.469.64-.396.423-.64 1.016-.734 1.782h4.234v-.11c-.041-.734-.24-1.301-.594-1.703-.354-.406-.833-.609-1.437-.609ZM69.71 52v-8.453h3.297c1.125 0 1.987.198 2.586.594.604.39.906.966.906 1.726 0 .39-.117.745-.352 1.063-.234.312-.58.552-1.039.718.51.12.92.355 1.227.704.312.349.469.765.469 1.25 0 .776-.287 1.37-.86 1.78-.567.412-1.372.618-2.414.618h-3.82Zm1.445-3.71v2.546h2.39c.605 0 1.056-.112 1.352-.336.303-.224.454-.54.454-.945 0-.844-.62-1.266-1.86-1.266h-2.336Zm0-1.157h1.867c1.355 0 2.032-.396 2.032-1.188 0-.791-.64-1.2-1.922-1.226h-1.977v2.414Z" fill="#fff"/>
    <path d="M18.54 76.803c0-.36-.128-.662-.382-.909-.25-.246-.674-.468-1.271-.667-.832-.254-1.44-.584-1.822-.99-.38-.41-.569-.93-.569-1.56 0-.64.186-1.165.557-1.575.375-.41.888-.655 1.54-.733v-1.283h.874v1.289c.656.09 1.166.365 1.53.826.366.461.55 1.092.55 1.893h-1.078c0-.551-.131-.988-.393-1.313-.262-.324-.615-.486-1.06-.486-.465 0-.82.121-1.067.363-.246.239-.369.573-.369 1.002 0 .399.129.717.387.955.261.235.69.45 1.283.645.598.191 1.063.404 1.395.638.335.23.582.5.738.809.16.309.24.67.24 1.084 0 .66-.2 1.191-.598 1.594-.394.402-.949.64-1.664.715v1.119h-.867v-1.12c-.726-.066-1.297-.324-1.71-.773-.411-.453-.616-1.066-.616-1.84h1.084c0 .543.143.961.428 1.254.285.293.69.44 1.213.44.511 0 .914-.123 1.207-.37.293-.246.44-.582.44-1.007Zm6.585-1.553a2.64 2.64 0 0 1-.814.65 2.184 2.184 0 0 1-1.032.246c-.492 0-.922-.12-1.289-.363a2.372 2.372 0 0 1-.843-1.02 3.506 3.506 0 0 1-.3-1.458c0-.57.108-1.084.323-1.541.219-.457.527-.807.926-1.05.398-.241.863-.362 1.394-.362.844 0 1.508.316 1.992.949.489.629.733 1.488.733 2.578v.316c0 1.66-.328 2.873-.985 3.639-.656.762-1.646 1.152-2.97 1.172h-.211v-.914h.228c.895-.016 1.582-.248 2.063-.698.48-.453.742-1.167.785-2.144Zm-1.67 0a1.66 1.66 0 0 0 1.002-.334c.309-.223.533-.498.674-.826v-.434c0-.71-.154-1.289-.463-1.734-.309-.445-.7-.668-1.172-.668-.476 0-.86.183-1.148.55-.29.364-.434.844-.434 1.442 0 .582.139 1.063.416 1.442.281.374.656.562 1.125.562Zm9.604.111c0 1.27-.217 2.213-.65 2.83-.434.618-1.112.926-2.034.926-.91 0-1.584-.3-2.021-.902-.438-.606-.665-1.508-.68-2.707V74.06c0-1.254.217-2.186.65-2.795.434-.61 1.113-.914 2.04-.914.917 0 1.593.294 2.027.884.433.586.656 1.492.668 2.72v1.405Zm-1.084-1.482c0-.918-.13-1.586-.387-2.004-.258-.422-.666-.633-1.225-.633-.554 0-.959.21-1.213.627-.253.418-.384 1.06-.392 1.928v1.734c0 .922.133 1.604.398 2.045.27.438.676.656 1.219.656.535 0 .932-.207 1.19-.62.261-.415.398-1.067.41-1.958V73.88Zm7.822 1.482c0 1.27-.217 2.213-.65 2.83-.434.618-1.112.926-2.034.926-.91 0-1.584-.3-2.021-.902-.438-.606-.664-1.508-.68-2.707V74.06c0-1.254.217-2.186.65-2.795.434-.61 1.114-.914 2.04-.914.918 0 1.593.294 2.027.884.434.586.656 1.492.668 2.72v1.405Zm-1.084-1.482c0-.918-.129-1.586-.387-2.004-.258-.422-.666-.633-1.224-.633-.555 0-.96.21-1.213.627-.254.418-.385 1.06-.393 1.928v1.734c0 .922.133 1.604.398 2.045.27.438.676.656 1.22.656.534 0 .93-.207 1.189-.62.262-.415.398-1.067.41-1.958V73.88Zm4.922 1.154-1.043 1.084V79h-1.125v-8.531h1.125v4.219l3.79-4.22h1.36l-3.357 3.768L48.005 79h-1.347l-3.023-3.967Zm-25.095 25.77c0-.36-.128-.662-.382-.909-.25-.246-.674-.468-1.271-.667-.832-.254-1.44-.584-1.822-.99-.38-.41-.569-.93-.569-1.56 0-.64.186-1.165.557-1.575.375-.41.888-.655 1.54-.733v-1.283h.874v1.289c.656.09 1.166.365 1.53.826.366.461.55 1.092.55 1.893h-1.078c0-.551-.131-.988-.393-1.313-.262-.324-.615-.486-1.06-.486-.465 0-.82.121-1.067.363-.246.239-.369.573-.369 1.002 0 .399.129.717.387.955.261.235.69.45 1.283.645.598.191 1.063.404 1.395.638.335.23.582.5.738.809.16.309.24.67.24 1.084 0 .66-.2 1.191-.598 1.594-.394.402-.949.64-1.664.715v1.119h-.867V103.1c-.726-.067-1.297-.325-1.71-.774-.411-.453-.616-1.066-.616-1.84h1.084c0 .543.143.961.428 1.254.285.293.69.44 1.213.44.511 0 .914-.123 1.207-.369.293-.247.44-.582.44-1.008Zm7.605-4.108c0 .426-.114.805-.34 1.137a2.27 2.27 0 0 1-.909.78c.446.19.797.47 1.055.837.262.367.393.783.393 1.248 0 .739-.25 1.326-.75 1.764-.496.437-1.15.656-1.963.656-.82 0-1.479-.219-1.975-.656-.492-.441-.738-1.029-.738-1.764 0-.461.125-.877.375-1.248a2.37 2.37 0 0 1 1.049-.843 2.236 2.236 0 0 1-.897-.78 2.01 2.01 0 0 1-.328-1.13c0-.72.23-1.29.692-1.712.46-.421 1.068-.632 1.822-.632.75 0 1.355.21 1.816.632.465.422.698.993.698 1.711Zm-.885 3.979c0-.477-.153-.865-.457-1.166-.301-.301-.696-.451-1.184-.451s-.88.148-1.178.445c-.293.297-.439.687-.439 1.172 0 .484.143.865.428 1.142.289.278.69.416 1.2.416.509 0 .907-.138 1.196-.416.29-.281.434-.662.434-1.142Zm-1.63-5.432c-.425 0-.77.133-1.036.399-.262.261-.393.619-.393 1.072 0 .434.13.785.387 1.055.262.265.61.398 1.043.398.433 0 .78-.133 1.037-.398.262-.27.393-.621.393-1.055 0-.434-.135-.787-.405-1.06-.27-.274-.611-.41-1.025-.41Zm9.429 4.12c0 1.269-.217 2.212-.65 2.829-.434.618-1.112.926-2.034.926-.91 0-1.584-.301-2.021-.902-.438-.606-.665-1.508-.68-2.707V98.06c0-1.254.217-2.186.65-2.795.434-.61 1.113-.914 2.04-.914.917 0 1.593.294 2.027.884.433.586.656 1.492.668 2.72v1.405Zm-1.084-1.483c0-.918-.13-1.586-.387-2.004-.258-.422-.666-.633-1.225-.633-.554 0-.959.21-1.213.627-.253.418-.384 1.06-.392 1.928v1.734c0 .922.133 1.604.398 2.045.27.438.676.656 1.219.656.535 0 .932-.207 1.19-.621.261-.414.398-1.066.41-1.957V97.88Zm7.822 1.482c0 1.27-.217 2.213-.65 2.83-.434.618-1.112.926-2.034.926-.91 0-1.584-.301-2.021-.902-.438-.606-.664-1.508-.68-2.707V98.06c0-1.254.217-2.186.65-2.795.434-.61 1.114-.914 2.04-.914.918 0 1.593.294 2.027.884.434.586.656 1.492.668 2.72v1.405Zm-1.084-1.482c0-.918-.129-1.586-.387-2.004-.258-.422-.666-.633-1.224-.633-.555 0-.96.21-1.213.627-.254.418-.385 1.06-.393 1.928v1.734c0 .922.133 1.604.398 2.045.27.438.676.656 1.22.656.534 0 .93-.207 1.189-.621.262-.414.398-1.066.41-1.957V97.88Zm4.922 1.154-1.043 1.084V103h-1.125v-8.531h1.125v4.219l3.79-4.22h1.36l-3.357 3.768 3.62 4.764h-1.347l-3.023-3.967Zm-25.095 25.77c0-.36-.128-.662-.382-.908-.25-.247-.674-.469-1.271-.668-.832-.254-1.44-.584-1.822-.991-.38-.41-.569-.929-.569-1.558 0-.641.186-1.166.557-1.576.375-.411.888-.655 1.54-.733v-1.283h.874v1.289c.656.09 1.166.365 1.53.826.366.461.55 1.092.55 1.893h-1.078c0-.551-.131-.989-.393-1.313-.262-.324-.615-.486-1.06-.486-.465 0-.82.121-1.067.363-.246.238-.369.572-.369 1.002 0 .399.129.717.387.955.261.235.69.449 1.283.645.598.191 1.063.404 1.395.638.335.231.582.5.738.809.16.309.24.67.24 1.084 0 .66-.2 1.191-.598 1.594-.394.402-.949.64-1.664.715v1.119h-.867V127.1c-.726-.067-1.297-.325-1.71-.774-.411-.453-.616-1.066-.616-1.84h1.084c0 .543.143.961.428 1.254.285.293.69.44 1.213.44.511 0 .914-.123 1.207-.369.293-.247.44-.582.44-1.008Zm7.939-5.725L22.945 127H21.81l3.521-7.641h-4.617v-.89h5.765v.609Zm6.58 4.283c0 1.27-.217 2.213-.65 2.83-.434.618-1.112.926-2.034.926-.91 0-1.584-.301-2.021-.902-.438-.606-.665-1.508-.68-2.707v-1.447c0-1.254.217-2.186.65-2.795.434-.61 1.113-.914 2.04-.914.917 0 1.593.294 2.027.884.433.586.656 1.493.668 2.719v1.406Zm-1.084-1.482c0-.918-.13-1.586-.387-2.004-.258-.422-.666-.633-1.225-.633-.554 0-.959.209-1.213.627-.253.418-.384 1.061-.392 1.928v1.734c0 .922.133 1.604.398 2.045.27.438.676.656 1.219.656.535 0 .932-.207 1.19-.621.261-.414.398-1.066.41-1.957v-1.775Zm7.822 1.482c0 1.27-.217 2.213-.65 2.83-.434.618-1.112.926-2.034.926-.91 0-1.584-.301-2.021-.902-.438-.606-.664-1.508-.68-2.707v-1.447c0-1.254.217-2.186.65-2.795.434-.61 1.114-.914 2.04-.914.918 0 1.593.294 2.027.884.434.586.656 1.493.668 2.719v1.406Zm-1.084-1.482c0-.918-.129-1.586-.387-2.004-.258-.422-.666-.633-1.224-.633-.555 0-.96.209-1.213.627-.254.418-.385 1.061-.393 1.928v1.734c0 .922.133 1.604.398 2.045.27.438.676.656 1.22.656.534 0 .93-.207 1.189-.621.262-.414.398-1.066.41-1.957v-1.775Zm4.922 1.154-1.043 1.084V127h-1.125v-8.531h1.125v4.219l3.79-4.219h1.36l-3.357 3.767 3.62 4.764h-1.347l-3.023-3.967Zm-25.095 25.77c0-.36-.128-.662-.382-.908-.25-.247-.674-.469-1.271-.668-.832-.254-1.44-.584-1.822-.991-.38-.41-.569-.929-.569-1.558 0-.641.186-1.166.557-1.576.375-.411.888-.655 1.54-.733v-1.283h.874v1.289c.656.09 1.166.365 1.53.826.366.461.55 1.092.55 1.893h-1.078c0-.551-.131-.989-.393-1.313-.262-.324-.615-.486-1.06-.486-.465 0-.82.121-1.067.363-.246.238-.369.572-.369 1.002 0 .399.129.717.387.955.261.235.69.449 1.283.645.598.191 1.063.404 1.395.638.335.231.582.5.738.809.16.309.24.67.24 1.084 0 .66-.2 1.191-.598 1.594-.394.402-.949.64-1.664.715v1.119h-.867V151.1c-.726-.067-1.297-.325-1.71-.774-.411-.453-.616-1.066-.616-1.84h1.084c0 .543.143.961.428 1.254.285.293.69.44 1.213.44.511 0 .914-.123 1.207-.369.293-.247.44-.582.44-1.008Zm6.685-6.34v.92h-.2c-.843.015-1.515.265-2.015.75-.5.484-.79 1.166-.867 2.045.449-.516 1.062-.774 1.84-.774.742 0 1.333.262 1.775.785.445.524.668 1.2.668 2.028 0 .879-.24 1.582-.72 2.109-.477.528-1.118.791-1.923.791-.816 0-1.478-.312-1.986-.937-.508-.629-.762-1.438-.762-2.426v-.416c0-1.57.334-2.77 1.002-3.598.672-.832 1.67-1.258 2.994-1.277h.194Zm-1.424 3.844a1.73 1.73 0 0 0-1.026.334 1.739 1.739 0 0 0-.65.838v.398c0 .703.158 1.269.475 1.699.316.43.71.645 1.183.645.488 0 .871-.18 1.149-.539.28-.36.422-.83.422-1.412 0-.586-.143-1.059-.428-1.418a1.35 1.35 0 0 0-1.125-.545Zm9.258 1.054c0 1.27-.217 2.213-.65 2.83-.434.618-1.112.926-2.034.926-.91 0-1.584-.301-2.021-.902-.438-.606-.665-1.508-.68-2.707v-1.447c0-1.254.217-2.186.65-2.795.434-.61 1.113-.914 2.04-.914.917 0 1.593.294 2.027.884.433.586.656 1.493.668 2.719v1.406Zm-1.084-1.482c0-.918-.13-1.586-.387-2.004-.258-.422-.666-.633-1.225-.633-.554 0-.959.209-1.213.627-.253.418-.384 1.061-.392 1.928v1.734c0 .922.133 1.604.398 2.045.27.438.676.656 1.219.656.535 0 .932-.207 1.19-.621.261-.414.398-1.066.41-1.957v-1.775Zm7.822 1.482c0 1.27-.217 2.213-.65 2.83-.434.618-1.112.926-2.034.926-.91 0-1.584-.301-2.021-.902-.438-.606-.664-1.508-.68-2.707v-1.447c0-1.254.217-2.186.65-2.795.434-.61 1.114-.914 2.04-.914.918 0 1.593.294 2.027.884.434.586.656 1.493.668 2.719v1.406Zm-1.084-1.482c0-.918-.129-1.586-.387-2.004-.258-.422-.666-.633-1.224-.633-.555 0-.96.209-1.213.627-.254.418-.385 1.061-.393 1.928v1.734c0 .922.133 1.604.398 2.045.27.438.676.656 1.22.656.534 0 .93-.207 1.189-.621.262-.414.398-1.066.41-1.957v-1.775Zm4.922 1.154-1.043 1.084V151h-1.125v-8.531h1.125v4.219l3.79-4.219h1.36l-3.357 3.767 3.62 4.764h-1.347l-3.023-3.967Zm-25.095 25.77c0-.36-.128-.662-.382-.908-.25-.247-.674-.469-1.271-.668-.832-.254-1.44-.584-1.822-.991-.38-.41-.569-.929-.569-1.558 0-.641.186-1.166.557-1.576.375-.411.888-.655 1.54-.733v-1.283h.874v1.289c.656.09 1.166.365 1.53.826.366.461.55 1.092.55 1.893h-1.078c0-.551-.131-.989-.393-1.313-.262-.324-.615-.486-1.06-.486-.465 0-.82.121-1.067.363-.246.238-.369.572-.369 1.002 0 .399.129.717.387.955.261.235.69.449 1.283.645.598.191 1.063.404 1.395.638.335.231.582.5.738.809.16.309.24.67.24 1.084 0 .66-.2 1.191-.598 1.594-.394.402-.949.64-1.664.715v1.119h-.867V175.1c-.726-.067-1.297-.325-1.71-.774-.411-.453-.616-1.066-.616-1.84h1.084c0 .543.143.961.428 1.254.285.293.69.44 1.213.44.511 0 .914-.123 1.207-.369.293-.247.44-.582.44-1.008Zm2.929-2.08.433-4.254h4.371v1.002h-3.45l-.259 2.326a2.753 2.753 0 0 1 1.424-.369c.778 0 1.395.258 1.852.773.457.512.685 1.205.685 2.08 0 .879-.238 1.573-.714 2.08-.473.504-1.135.756-1.987.756-.754 0-1.369-.209-1.846-.627-.476-.418-.748-.996-.814-1.734h1.025c.067.488.24.857.522 1.107.281.246.652.369 1.113.369.504 0 .899-.171 1.184-.515.289-.344.433-.819.433-1.424 0-.57-.156-1.027-.468-1.371-.309-.348-.721-.522-1.237-.522-.472 0-.843.104-1.113.311l-.287.234-.867-.222Zm11.59.638c0 1.27-.217 2.213-.65 2.83-.434.618-1.112.926-2.034.926-.91 0-1.584-.301-2.021-.902-.438-.606-.665-1.508-.68-2.707v-1.447c0-1.254.217-2.186.65-2.795.434-.61 1.113-.914 2.04-.914.917 0 1.593.294 2.027.884.433.586.656 1.493.668 2.719v1.406Zm-1.084-1.482c0-.918-.13-1.586-.387-2.004-.258-.422-.666-.633-1.225-.633-.554 0-.959.209-1.213.627-.253.418-.384 1.061-.392 1.928v1.734c0 .922.133 1.604.398 2.045.27.438.676.656 1.219.656.535 0 .932-.207 1.19-.621.261-.414.398-1.066.41-1.957v-1.775Zm7.822 1.482c0 1.27-.217 2.213-.65 2.83-.434.618-1.112.926-2.034.926-.91 0-1.584-.301-2.021-.902-.438-.606-.664-1.508-.68-2.707v-1.447c0-1.254.217-2.186.65-2.795.434-.61 1.114-.914 2.04-.914.918 0 1.593.294 2.027.884.434.586.656 1.493.668 2.719v1.406Zm-1.084-1.482c0-.918-.129-1.586-.387-2.004-.258-.422-.666-.633-1.224-.633-.555 0-.96.209-1.213.627-.254.418-.385 1.061-.393 1.928v1.734c0 .922.133 1.604.398 2.045.27.438.676.656 1.22.656.534 0 .93-.207 1.189-.621.262-.414.398-1.066.41-1.957v-1.775Zm4.922 1.154-1.043 1.084V175h-1.125v-8.531h1.125v4.219l3.79-4.219h1.36l-3.357 3.767 3.62 4.764h-1.347l-3.023-3.967Zm-25.095 25.77c0-.36-.128-.662-.382-.908-.25-.247-.674-.469-1.271-.668-.832-.254-1.44-.584-1.822-.991-.38-.41-.569-.929-.569-1.558 0-.641.186-1.166.557-1.576.375-.411.888-.655 1.54-.733v-1.283h.874v1.289c.656.09 1.166.365 1.53.826.366.461.55 1.092.55 1.893h-1.078c0-.551-.131-.989-.393-1.313-.262-.324-.615-.486-1.06-.486-.465 0-.82.121-1.067.363-.246.238-.369.572-.369 1.002 0 .399.129.717.387.955.261.235.69.449 1.283.645.598.191 1.063.404 1.395.638.335.231.582.5.738.809.16.309.24.67.24 1.084 0 .66-.2 1.191-.598 1.594-.394.402-.949.64-1.664.715v1.119h-.867V199.1c-.726-.067-1.297-.325-1.71-.774-.411-.453-.616-1.066-.616-1.84h1.084c0 .543.143.961.428 1.254.285.293.69.44 1.213.44.511 0 .914-.123 1.207-.369.293-.247.44-.582.44-1.008Zm7.007-.668h1.183v.885h-1.183V199h-1.09v-1.98h-3.885v-.639l3.82-5.912h1.155v5.666Zm-3.744 0h2.654v-4.184l-.129.235-2.525 3.949Zm11.256-.774c0 1.27-.217 2.213-.65 2.83-.434.618-1.112.926-2.034.926-.91 0-1.584-.301-2.021-.902-.438-.606-.665-1.508-.68-2.707v-1.447c0-1.254.217-2.186.65-2.795.434-.61 1.113-.914 2.04-.914.917 0 1.593.294 2.027.884.433.586.656 1.493.668 2.719v1.406Zm-1.084-1.482c0-.918-.13-1.586-.387-2.004-.258-.422-.666-.633-1.225-.633-.554 0-.959.209-1.213.627-.253.418-.384 1.061-.392 1.928v1.734c0 .922.133 1.604.398 2.045.27.438.676.656 1.219.656.535 0 .932-.207 1.19-.621.261-.414.398-1.066.41-1.957v-1.775Zm7.822 1.482c0 1.27-.217 2.213-.65 2.83-.434.618-1.112.926-2.034.926-.91 0-1.584-.301-2.021-.902-.438-.606-.664-1.508-.68-2.707v-1.447c0-1.254.217-2.186.65-2.795.434-.61 1.114-.914 2.04-.914.918 0 1.593.294 2.027.884.434.586.656 1.493.668 2.719v1.406Zm-1.084-1.482c0-.918-.129-1.586-.387-2.004-.258-.422-.666-.633-1.224-.633-.555 0-.96.209-1.213.627-.254.418-.385 1.061-.393 1.928v1.734c0 .922.133 1.604.398 2.045.27.438.676.656 1.22.656.534 0 .93-.207 1.189-.621.262-.414.398-1.066.41-1.957v-1.775Zm4.922 1.154-1.043 1.084V199h-1.125v-8.531h1.125v4.219l3.79-4.219h1.36l-3.357 3.767 3.62 4.764h-1.347l-3.023-3.967Zm-25.095 25.77c0-.36-.128-.662-.382-.908-.25-.247-.674-.469-1.271-.668-.832-.254-1.44-.584-1.822-.991-.38-.41-.569-.929-.569-1.558 0-.641.186-1.166.557-1.576.375-.411.888-.655 1.54-.733v-1.283h.874v1.289c.656.09 1.166.365 1.53.826.366.461.55 1.092.55 1.893h-1.078c0-.551-.131-.989-.393-1.313-.262-.324-.615-.486-1.06-.486-.465 0-.82.121-1.067.363-.246.238-.369.572-.369 1.002 0 .399.129.717.387.955.261.235.69.449 1.283.645.598.191 1.063.404 1.395.638.335.231.582.5.738.809.16.309.24.67.24 1.084 0 .66-.2 1.191-.598 1.594-.394.402-.949.64-1.664.715v1.119h-.867V223.1c-.726-.067-1.297-.325-1.71-.774-.411-.453-.616-1.066-.616-1.84h1.084c0 .543.143.961.428 1.254.285.293.69.44 1.213.44.511 0 .914-.123 1.207-.369.293-.247.44-.582.44-1.008Zm4.007-2.596h.814c.512-.008.914-.143 1.207-.404.293-.262.44-.615.44-1.061 0-1-.498-1.5-1.494-1.5-.47 0-.844.135-1.125.404-.278.266-.416.62-.416 1.061h-1.084c0-.676.246-1.236.738-1.682.496-.449 1.125-.673 1.887-.673.804 0 1.435.212 1.892.638.457.426.686 1.018.686 1.776 0 .371-.121.73-.363 1.078a2.162 2.162 0 0 1-.979.779c.469.148.83.395 1.084.738.258.344.387.764.387 1.26 0 .766-.25 1.373-.75 1.822-.5.45-1.15.674-1.951.674-.801 0-1.454-.217-1.957-.65-.5-.434-.75-1.006-.75-1.717h1.09c0 .449.146.809.439 1.078.293.27.685.404 1.178.404.523 0 .923-.136 1.2-.41.278-.273.417-.666.417-1.177 0-.497-.153-.877-.457-1.143-.305-.266-.744-.402-1.319-.41h-.814v-.885Zm10.512 1.154c0 1.27-.217 2.213-.65 2.83-.434.618-1.112.926-2.034.926-.91 0-1.584-.301-2.021-.902-.438-.606-.665-1.508-.68-2.707v-1.447c0-1.254.217-2.186.65-2.795.434-.61 1.113-.914 2.04-.914.917 0 1.593.294 2.027.884.433.586.656 1.493.668 2.719v1.406Zm-1.084-1.482c0-.918-.13-1.586-.387-2.004-.258-.422-.666-.633-1.225-.633-.554 0-.959.209-1.213.627-.253.418-.384 1.061-.392 1.928v1.734c0 .922.133 1.604.398 2.045.27.438.676.656 1.219.656.535 0 .932-.207 1.19-.621.261-.414.398-1.066.41-1.957v-1.775Zm7.822 1.482c0 1.27-.217 2.213-.65 2.83-.434.618-1.112.926-2.034.926-.91 0-1.584-.301-2.021-.902-.438-.606-.664-1.508-.68-2.707v-1.447c0-1.254.217-2.186.65-2.795.434-.61 1.114-.914 2.04-.914.918 0 1.593.294 2.027.884.434.586.656 1.493.668 2.719v1.406Zm-1.084-1.482c0-.918-.129-1.586-.387-2.004-.258-.422-.666-.633-1.224-.633-.555 0-.96.209-1.213.627-.254.418-.385 1.061-.393 1.928v1.734c0 .922.133 1.604.398 2.045.27.438.676.656 1.22.656.534 0 .93-.207 1.189-.621.262-.414.398-1.066.41-1.957v-1.775Zm4.922 1.154-1.043 1.084V223h-1.125v-8.531h1.125v4.219l3.79-4.219h1.36l-3.357 3.767 3.62 4.764h-1.347l-3.023-3.967Zm-25.095 25.77c0-.36-.128-.662-.382-.908-.25-.247-.674-.469-1.271-.668-.832-.254-1.44-.584-1.822-.991-.38-.41-.569-.929-.569-1.558 0-.641.186-1.166.557-1.576.375-.411.888-.655 1.54-.733v-1.283h.874v1.289c.656.09 1.166.365 1.53.826.366.461.55 1.092.55 1.893h-1.078c0-.551-.131-.989-.393-1.313-.262-.324-.615-.486-1.06-.486-.465 0-.82.121-1.067.363-.246.238-.369.572-.369 1.002 0 .399.129.717.387.955.261.235.69.449 1.283.645.598.191 1.063.404 1.395.638.335.231.582.5.738.809.16.309.24.67.24 1.084 0 .66-.2 1.191-.598 1.594-.394.402-.949.64-1.664.715v1.119h-.867V247.1c-.726-.067-1.297-.325-1.71-.774-.411-.453-.616-1.066-.616-1.84h1.084c0 .543.143.961.428 1.254.285.293.69.44 1.213.44.511 0 .914-.123 1.207-.369.293-.247.44-.582.44-1.008ZM26.56 247h-5.59v-.779l2.954-3.282c.437-.496.738-.898.902-1.207.168-.312.252-.634.252-.966 0-.446-.135-.811-.404-1.096-.27-.285-.63-.428-1.078-.428-.54 0-.96.154-1.26.463-.297.305-.445.731-.445 1.277h-1.084c0-.785.252-1.42.756-1.904.507-.484 1.185-.726 2.033-.726.793 0 1.42.209 1.88.627.462.414.692.966.692 1.658 0 .84-.535 1.84-1.605 3l-2.286 2.478h4.284V247Zm6.499-3.639c0 1.27-.217 2.213-.65 2.83-.434.618-1.112.926-2.034.926-.91 0-1.584-.301-2.021-.902-.438-.606-.665-1.508-.68-2.707v-1.447c0-1.254.217-2.186.65-2.795.434-.61 1.113-.914 2.04-.914.917 0 1.593.294 2.027.884.433.586.656 1.493.668 2.719v1.406Zm-1.084-1.482c0-.918-.13-1.586-.387-2.004-.258-.422-.666-.633-1.225-.633-.554 0-.959.209-1.213.627-.253.418-.384 1.061-.392 1.928v1.734c0 .922.133 1.604.398 2.045.27.438.676.656 1.219.656.535 0 .932-.207 1.19-.621.261-.414.398-1.066.41-1.957v-1.775Zm7.822 1.482c0 1.27-.217 2.213-.65 2.83-.434.618-1.112.926-2.034.926-.91 0-1.584-.301-2.021-.902-.438-.606-.664-1.508-.68-2.707v-1.447c0-1.254.217-2.186.65-2.795.434-.61 1.114-.914 2.04-.914.918 0 1.593.294 2.027.884.434.586.656 1.493.668 2.719v1.406Zm-1.084-1.482c0-.918-.129-1.586-.387-2.004-.258-.422-.666-.633-1.224-.633-.555 0-.96.209-1.213.627-.254.418-.385 1.061-.393 1.928v1.734c0 .922.133 1.604.398 2.045.27.438.676.656 1.22.656.534 0 .93-.207 1.189-.621.262-.414.398-1.066.41-1.957v-1.775Zm4.922 1.154-1.043 1.084V247h-1.125v-8.531h1.125v4.219l3.79-4.219h1.36l-3.357 3.767 3.62 4.764h-1.347l-3.023-3.967Zm-25.095 25.77c0-.36-.128-.662-.382-.908-.25-.247-.674-.469-1.271-.668-.832-.254-1.44-.584-1.822-.991-.38-.41-.569-.929-.569-1.558 0-.641.186-1.166.557-1.576.375-.411.888-.655 1.54-.733v-1.283h.874v1.289c.656.09 1.166.365 1.53.826.366.461.55 1.092.55 1.893h-1.078c0-.551-.131-.989-.393-1.313-.262-.324-.615-.486-1.06-.486-.465 0-.82.121-1.067.363-.246.238-.369.572-.369 1.002 0 .399.129.717.387.955.261.235.69.449 1.283.645.598.191 1.063.404 1.395.638.335.231.582.5.738.809.16.309.24.67.24 1.084 0 .66-.2 1.191-.598 1.594-.394.402-.949.64-1.664.715v1.119h-.867V271.1c-.726-.067-1.297-.325-1.71-.774-.411-.453-.616-1.066-.616-1.84h1.084c0 .543.143.961.428 1.254.285.293.69.44 1.213.44.511 0 .914-.123 1.207-.369.293-.247.44-.582.44-1.008ZM24.532 271h-1.09v-7.225l-2.185.803v-.984l3.105-1.166h.17V271Zm8.526-3.639c0 1.27-.217 2.213-.65 2.83-.434.618-1.112.926-2.034.926-.91 0-1.584-.301-2.021-.902-.438-.606-.665-1.508-.68-2.707v-1.447c0-1.254.217-2.186.65-2.795.434-.61 1.113-.914 2.04-.914.917 0 1.593.294 2.027.884.433.586.656 1.493.668 2.719v1.406Zm-1.084-1.482c0-.918-.13-1.586-.387-2.004-.258-.422-.666-.633-1.225-.633-.554 0-.959.209-1.213.627-.253.418-.384 1.061-.392 1.928v1.734c0 .922.133 1.604.398 2.045.27.438.676.656 1.219.656.535 0 .932-.207 1.19-.621.261-.414.398-1.066.41-1.957v-1.775Zm7.822 1.482c0 1.27-.217 2.213-.65 2.83-.434.618-1.112.926-2.034.926-.91 0-1.584-.301-2.021-.902-.438-.606-.664-1.508-.68-2.707v-1.447c0-1.254.217-2.186.65-2.795.434-.61 1.114-.914 2.04-.914.918 0 1.593.294 2.027.884.434.586.656 1.493.668 2.719v1.406Zm-1.084-1.482c0-.918-.129-1.586-.387-2.004-.258-.422-.666-.633-1.224-.633-.555 0-.96.209-1.213.627-.254.418-.385 1.061-.393 1.928v1.734c0 .922.133 1.604.398 2.045.27.438.676.656 1.22.656.534 0 .93-.207 1.189-.621.262-.414.398-1.066.41-1.957v-1.775Zm4.922 1.154-1.043 1.084V271h-1.125v-8.531h1.125v4.219l3.79-4.219h1.36l-3.357 3.767 3.62 4.764h-1.347l-3.023-3.967Zm3.686 24.328c0 1.27-.217 2.213-.65 2.83-.434.618-1.111.926-2.033.926-.91 0-1.584-.301-2.022-.902-.437-.606-.664-1.508-.68-2.707v-1.447c0-1.254.217-2.186.65-2.795.434-.61 1.114-.914 2.04-.914.918 0 1.594.294 2.027.884.434.586.657 1.493.668 2.719v1.406Zm-1.084-1.482c0-.918-.129-1.586-.386-2.004-.258-.422-.666-.633-1.225-.633-.555 0-.959.209-1.213.627-.254.418-.385 1.061-.392 1.928v1.734c0 .922.132 1.604.398 2.045.27.438.676.656 1.219.656.535 0 .931-.207 1.19-.621.26-.414.398-1.066.41-1.957v-1.775Z" fill="#fff" fill-opacity=".7"/>
    <g clip-path="url(#c)">
      <g clip-path="url(#d)" stroke="#fff" stroke-opacity=".5" stroke-linecap="square" stroke-dasharray="4 8">
        <path d="M52.333 74.5h265m-265 28h265m-265 28h265m-265 28h265m-265 28h265m-265 28h265m-265 28h265m-265 28h265m-265 28h265"/>
      </g>
      <g clip-path="url(#e)">
        <g filter="url(#f)">
          <path d="m47 269 13.9-52.506c2.275-8.596 13.088-11.378 19.23-4.949 5.999 6.281 16.54 3.796 19.102-4.503l10.1-32.72a12.009 12.009 0 0 1 1.756-3.511l13.477-18.559.563-.708c6.503-8.181 20.624-4.904 23.057 5.259 2.874 12.005 5.736 23.66 6.023 24.927.357 1.576 6.746 8.446 13.333 15.171 5.327 5.44 14.291 4.395 18.378-2.029l19.256-30.262c3.985-6.263 12.643-7.442 18.157-2.474l11.325 10.204c7.078 6.377 18.408 2.36 19.887-7.051l6.028-38.34a12.003 12.003 0 0 1 6.501-8.876l31.651-15.776a11.997 11.997 0 0 0 5.761-6.212L320 58" stroke="url(#g)" stroke-width="4"/>
        </g>
        <g filter="url(#h)">
          <path d="m50 301 15.586-25.254c.411-.666.757-1.372 1.03-2.106l7.883-21.125a12 12 0 0 1 14.313-7.405l1.916.507a9.28 9.28 0 0 0 9.712-3.289l21.436-32.584c5.339-8.116 17.605-6.855 21.182 2.177l11.415 28.821c.417 1.052.98 2.04 1.674 2.935l1.504 1.939c6.661 8.592 20.4 4.606 21.429-6.217l1.19-12.508c.11-1.156.387-2.289.822-3.366l10.345-25.563a12 12 0 0 1 11.124-7.498h11.474c3.384 0 6.611-1.429 8.886-3.935l16.403-18.072a12 12 0 0 1 10.961-3.754l19.813 3.479a12 12 0 0 0 9.187-2.153l10.498-7.725a12 12 0 0 1 9.554-2.083l5.455 1.134a12.001 12.001 0 0 0 12.493-5.193L320 148" stroke="url(#i)" stroke-width="4"/>
        </g>
        <g filter="url(#j)">
          <path d="m50 284 19.426-12.307a12 12 0 0 1 6.422-1.863h17.197a11.999 11.999 0 0 0 11.727-9.457l7.469-34.444a11.996 11.996 0 0 1 2.586-5.231l8.003-9.411c4.702-5.528 13.561-4.264 16.528 2.359 3.149 7.029 12.777 7.903 17.141 1.557l9.007-13.097a12.002 12.002 0 0 1 11.833-5.042l6.361 1.045a12 12 0 0 0 11.972-5.249l13.33-20.276c.506-.77.921-1.595 1.239-2.46l8.047-21.937c2.789-7.604 12.156-10.318 18.578-5.382l9.072 6.972 20.643 13.097c6.745 4.28 15.711.897 17.948-6.773l12.505-42.866a11.998 11.998 0 0 1 7.008-7.759L320 99" stroke="url(#k)" stroke-width="4"/>
        </g>
        <g filter="url(#l)">
          <path d="m47 253 24.081-15.858 22.045-18.582a11.99 11.99 0 0 1 6.278-2.736l18.723-2.289a12 12 0 0 0 9.145-6.286l14.681-27.668c.297-.559.638-1.095 1.02-1.6l13.702-18.169c4.346-5.763 12.76-6.412 17.939-1.385l14.204 13.788a12 12 0 0 0 14.684 1.586l28.812-17.875a11.996 11.996 0 0 0 5.098-6.525l9.904-30.821c2.657-8.267 12.944-11.063 19.42-5.277l1.012.904a11.999 11.999 0 0 0 11.679 2.472l4.264-1.375a10.47 10.47 0 0 1 10.491 2.435 10.473 10.473 0 0 0 11.557 2.025L320 113.377" stroke="url(#m)" stroke-width="4"/>
        </g>
      </g>
    </g>
    <path d="M59.047 316.773h-3.574L54.67 319h-1.16l3.258-8.531h.984L61.016 319H59.86l-.814-2.227Zm-3.234-.925h2.9l-1.453-3.991-1.447 3.991ZM67.18 319h-1.084v-5.443h-2.918V319h-1.09v-6.34h5.092V319Zm7.095-3.1c0 .965-.22 1.743-.662 2.332-.441.59-1.039.885-1.793.885-.77 0-1.375-.244-1.816-.732v3.053H68.92v-8.778h.99l.053.703c.441-.547 1.055-.82 1.84-.82.761 0 1.363.287 1.804.861.446.575.668 1.373.668 2.397v.099Zm-1.084-.123c0-.715-.152-1.279-.457-1.693-.304-.414-.722-.621-1.253-.621-.657 0-1.149.291-1.477.873v3.029c.324.578.82.867 1.488.867.52 0 .932-.205 1.236-.615.31-.414.463-1.027.463-1.84Zm5.098 3.34c-.86 0-1.558-.281-2.098-.844-.539-.566-.808-1.322-.808-2.267v-.199c0-.629.119-1.19.357-1.682a2.813 2.813 0 0 1 1.008-1.16 2.538 2.538 0 0 1 1.406-.422c.825 0 1.465.271 1.922.814.457.543.686 1.321.686 2.332v.452h-4.295c.015.625.197 1.13.545 1.517.351.383.797.574 1.336.574.383 0 .707-.078.972-.234.266-.156.498-.363.698-.621l.662.516c-.532.816-1.328 1.224-2.39 1.224Zm-.135-5.683c-.437 0-.804.16-1.101.48-.297.316-.48.762-.551 1.336h3.176v-.082c-.031-.551-.18-.977-.446-1.277-.265-.305-.625-.457-1.078-.457Zm9.065-.774V319h-1.09v-5.443h-2.156l-.13 2.373c-.07 1.09-.253 1.869-.55 2.338-.293.468-.76.712-1.4.732h-.434v-.955l.31-.024c.352-.039.604-.242.756-.609.153-.367.25-1.047.293-2.039l.118-2.713h4.283Zm2.924 2.186h1.646c.719.008 1.287.195 1.705.562.418.367.627.865.627 1.494 0 .633-.215 1.141-.644 1.524-.43.383-1.008.574-1.735.574H89.06v-6.34h1.084v2.186Zm0 .884v2.385h1.61c.407 0 .722-.103.944-.31.223-.211.334-.498.334-.862 0-.351-.11-.638-.328-.861-.215-.227-.517-.344-.908-.352h-1.652ZM66.823 335h-5.59v-.779l2.953-3.282c.437-.496.738-.898.902-1.207.168-.312.252-.634.252-.966 0-.446-.135-.811-.404-1.096-.27-.285-.63-.428-1.079-.428-.539 0-.959.154-1.26.463-.296.305-.445.731-.445 1.277h-1.084c0-.785.252-1.42.756-1.904.508-.484 1.186-.726 2.033-.726.793 0 1.42.209 1.881.627.461.414.692.966.692 1.658 0 .84-.536 1.84-1.606 3l-2.285 2.478h4.283V335Zm6.497-3.639c0 1.27-.216 2.213-.65 2.83-.434.618-1.111.926-2.033.926-.91 0-1.584-.301-2.022-.902-.437-.606-.664-1.508-.68-2.707v-1.447c0-1.254.217-2.186.65-2.795.434-.61 1.114-.914 2.04-.914.918 0 1.594.294 2.027.884.434.586.657 1.493.668 2.719v1.406Zm-1.084-1.482c0-.918-.129-1.586-.386-2.004-.258-.422-.666-.633-1.225-.633-.555 0-.959.209-1.213.627-.254.418-.385 1.061-.393 1.928v1.734c0 .922.133 1.604.399 2.045.27.438.676.656 1.219.656.535 0 .931-.207 1.19-.621.26-.414.398-1.066.41-1.957v-1.775ZM80.3 335h-5.59v-.779l2.953-3.282c.438-.496.738-.898.902-1.207.168-.312.252-.634.252-.966 0-.446-.134-.811-.404-1.096-.27-.285-.629-.428-1.078-.428-.54 0-.959.154-1.26.463-.297.305-.445.731-.445 1.277h-1.084c0-.785.252-1.42.756-1.904.508-.484 1.185-.726 2.033-.726.793 0 1.42.209 1.88.627.462.414.692.966.692 1.658 0 .84-.535 1.84-1.605 3l-2.285 2.478H80.3V335Zm4.71 0h-1.09v-7.225l-2.185.803v-.984l3.106-1.166h.17V335Zm30.169-24.531 2.789 6.961 2.789-6.961h1.459V319h-1.125v-3.322l.105-3.586-2.8 6.908h-.862l-2.795-6.891.112 3.569V319h-1.125v-8.531h1.453ZM127.946 319c-.062-.125-.113-.348-.152-.668-.504.523-1.106.785-1.805.785-.625 0-1.138-.176-1.541-.527a1.73 1.73 0 0 1-.597-1.348c0-.66.25-1.172.75-1.535.503-.367 1.211-.551 2.121-.551h1.054v-.498c0-.379-.113-.679-.339-.902-.227-.227-.561-.34-1.002-.34-.387 0-.711.098-.973.293-.262.195-.393.432-.393.709h-1.09c0-.316.112-.621.334-.914a2.32 2.32 0 0 1 .915-.703c.386-.172.81-.258 1.271-.258.73 0 1.303.184 1.717.551.414.363.629.865.644 1.506v2.918c0 .582.075 1.044.223 1.388V319h-1.137Zm-1.799-.826c.34 0 .663-.088.967-.264a1.59 1.59 0 0 0 .662-.685v-1.301h-.849c-1.328 0-1.992.388-1.992 1.166 0 .34.113.605.339.797.227.191.518.287.873.287Zm8.514-5.514h1.084V319h-1.084v-4.623L131.737 319h-1.084v-6.34h1.084v4.629l2.924-4.629Zm.293-2.308c0 .472-.162.853-.486 1.142-.321.285-.742.428-1.266.428-.523 0-.947-.145-1.271-.434-.325-.289-.487-.668-.487-1.136h.885c0 .273.074.488.223.644.148.152.365.229.65.229.274 0 .486-.077.639-.229.156-.152.234-.367.234-.644h.879ZM117.522 335h-5.589v-.779l2.953-3.282c.437-.496.738-.898.902-1.207.168-.312.252-.634.252-.966 0-.446-.135-.811-.404-1.096-.27-.285-.629-.428-1.078-.428-.539 0-.959.154-1.26.463-.297.305-.445.731-.445 1.277h-1.084c0-.785.252-1.42.755-1.904.508-.484 1.186-.726 2.034-.726.793 0 1.42.209 1.88.627.461.414.692.966.692 1.658 0 .84-.535 1.84-1.606 3l-2.285 2.478h4.283V335Zm6.499-3.639c0 1.27-.217 2.213-.651 2.83-.433.618-1.111.926-2.033.926-.91 0-1.584-.301-2.022-.902-.437-.606-.664-1.508-.679-2.707v-1.447c0-1.254.217-2.186.65-2.795.434-.61 1.113-.914 2.039-.914.918 0 1.594.294 2.028.884.433.586.656 1.493.668 2.719v1.406Zm-1.084-1.482c0-.918-.129-1.586-.387-2.004-.258-.422-.666-.633-1.225-.633-.554 0-.959.209-1.213.627-.254.418-.384 1.061-.392 1.928v1.734c0 .922.133 1.604.398 2.045.27.438.676.656 1.219.656.535 0 .932-.207 1.189-.621.262-.414.399-1.066.411-1.957v-1.775Zm8.062 5.121h-5.59v-.779l2.953-3.282c.438-.496.739-.898.903-1.207.168-.312.252-.634.252-.966 0-.446-.135-.811-.405-1.096-.269-.285-.629-.428-1.078-.428-.539 0-.959.154-1.26.463-.296.305-.445.731-.445 1.277h-1.084c0-.785.252-1.42.756-1.904.508-.484 1.186-.726 2.033-.726.793 0 1.42.209 1.881.627.461.414.691.966.691 1.658 0 .84-.535 1.84-1.605 3l-2.285 2.478h4.283V335Zm4.711 0h-1.09v-7.225l-2.185.803v-.984l3.105-1.166h.17V335Zm25.198-24.531h1.125V319h-1.125v-6.574L156.707 319h-1.131v-8.531h1.131v6.574l4.201-6.574Zm4.189 4.881h1.524c.082-.844.38-1.522.896-2.034.52-.515 1.174-.773 1.963-.773.828 0 1.506.279 2.033.838.528.558.813 1.285.856 2.18l.006.339c0 .618-.122 1.174-.364 1.67a2.712 2.712 0 0 1-1.019 1.149 2.84 2.84 0 0 1-1.5.398c-.817 0-1.485-.265-2.004-.797-.52-.535-.811-1.228-.873-2.08h-1.518V319h-1.084v-6.34h1.084v2.69Zm2.59.55c0 .704.162 1.268.486 1.694.328.426.768.638 1.319.638.55 0 .986-.216 1.306-.65.325-.434.487-1.037.487-1.811 0-.691-.164-1.253-.493-1.687a1.561 1.561 0 0 0-1.312-.65c-.539 0-.973.212-1.301.638-.328.426-.492 1.035-.492 1.828Zm11.139-3.24V319h-1.09v-5.443h-2.156l-.129 2.373c-.071 1.09-.254 1.869-.551 2.338-.293.468-.76.712-1.4.732h-.434v-.955l.31-.024c.352-.039.604-.242.756-.609.153-.367.25-1.047.293-2.039l.117-2.713h4.284Zm2.924 2.186h1.646c.719.008 1.287.195 1.705.562.418.367.627.865.627 1.494 0 .633-.215 1.141-.645 1.524-.429.383-1.007.574-1.734.574h-2.683v-6.34h1.084v2.186Zm0 .884v2.385h1.611c.406 0 .721-.103.943-.31.223-.211.334-.498.334-.862 0-.351-.109-.638-.328-.861-.215-.227-.518-.344-.908-.352h-1.652ZM163.222 335h-5.59v-.779l2.953-3.282c.438-.496.739-.898.903-1.207.168-.312.252-.634.252-.966 0-.446-.135-.811-.405-1.096-.269-.285-.628-.428-1.078-.428-.539 0-.959.154-1.259.463-.297.305-.446.731-.446 1.277h-1.084c0-.785.252-1.42.756-1.904.508-.484 1.186-.726 2.033-.726.793 0 1.42.209 1.881.627.461.414.692.966.692 1.658 0 .84-.536 1.84-1.606 3l-2.285 2.478h4.283V335Zm6.498-3.639c0 1.27-.217 2.213-.65 2.83-.434.618-1.112.926-2.033.926-.911 0-1.584-.301-2.022-.902-.437-.606-.664-1.508-.68-2.707v-1.447c0-1.254.217-2.186.651-2.795.433-.61 1.113-.914 2.039-.914.918 0 1.594.294 2.027.884.434.586.656 1.493.668 2.719v1.406Zm-1.084-1.482c0-.918-.129-1.586-.386-2.004-.258-.422-.667-.633-1.225-.633-.555 0-.959.209-1.213.627-.254.418-.385 1.061-.393 1.928v1.734c0 .922.133 1.604.399 2.045.269.438.676.656 1.219.656.535 0 .931-.207 1.189-.621.262-.414.399-1.066.41-1.957v-1.775Zm8.063 5.121h-5.59v-.779l2.953-3.282c.438-.496.738-.898.902-1.207.168-.312.252-.634.252-.966 0-.446-.134-.811-.404-1.096-.27-.285-.629-.428-1.078-.428-.539 0-.959.154-1.26.463-.297.305-.445.731-.445 1.277h-1.084c0-.785.252-1.42.756-1.904.507-.484 1.185-.726 2.033-.726.793 0 1.42.209 1.881.627.461.414.691.966.691 1.658 0 .84-.535 1.84-1.605 3l-2.285 2.478h4.283V335Zm4.711 0h-1.09v-7.225l-2.186.803v-.984l3.106-1.166h.17V335Zm27.663-24.531h1.125V319h-1.125v-6.574L204.872 319h-1.131v-8.531h1.131v6.574l4.201-6.574Zm4.189 4.881h1.524c.082-.844.381-1.522.896-2.034.52-.515 1.174-.773 1.963-.773.828 0 1.506.279 2.033.838.528.558.813 1.285.856 2.18l.006.339c0 .618-.122 1.174-.364 1.67a2.712 2.712 0 0 1-1.019 1.149 2.84 2.84 0 0 1-1.5.398c-.817 0-1.485-.265-2.004-.797-.52-.535-.811-1.228-.873-2.08h-1.518V319h-1.084v-6.34h1.084v2.69Zm2.59.55c0 .704.162 1.268.486 1.694.329.426.768.638 1.319.638.551 0 .986-.216 1.306-.65.325-.434.487-1.037.487-1.811 0-.691-.164-1.253-.492-1.687a1.564 1.564 0 0 0-1.313-.65c-.539 0-.973.212-1.301.638-.328.426-.492 1.035-.492 1.828Zm11.203 3.1h-1.084v-2.707h-2.912V319h-1.09v-6.34h1.09v2.748h2.912v-2.748h1.084V319Zm2.93-4.154h1.646c.719.008 1.287.195 1.705.562.418.367.627.865.627 1.494 0 .633-.214 1.141-.644 1.524-.43.383-1.008.574-1.735.574h-2.683v-6.34h1.084v2.186Zm0 .884v2.385h1.611c.406 0 .721-.103.944-.31.222-.211.334-.498.334-.862 0-.351-.11-.638-.329-.861-.214-.227-.517-.344-.908-.352h-1.652ZM211.422 335h-5.589v-.779l2.953-3.282c.437-.496.738-.898.902-1.207.168-.312.252-.634.252-.966 0-.446-.135-.811-.404-1.096-.27-.285-.629-.428-1.078-.428-.54 0-.959.154-1.26.463-.297.305-.446.731-.446 1.277h-1.084c0-.785.252-1.42.756-1.904.508-.484 1.186-.726 2.034-.726.792 0 1.419.209 1.88.627.461.414.692.966.692 1.658 0 .84-.535 1.84-1.606 3l-2.285 2.478h4.283V335Zm6.498-3.639c0 1.27-.216 2.213-.65 2.83-.434.618-1.111.926-2.033.926-.91 0-1.584-.301-2.022-.902-.437-.606-.664-1.508-.679-2.707v-1.447c0-1.254.216-2.186.65-2.795.434-.61 1.113-.914 2.039-.914.918 0 1.594.294 2.027.884.434.586.657 1.493.668 2.719v1.406Zm-1.084-1.482c0-.918-.128-1.586-.386-2.004-.258-.422-.666-.633-1.225-.633-.555 0-.959.209-1.213.627-.254.418-.385 1.061-.392 1.928v1.734c0 .922.132 1.604.398 2.045.27.438.676.656 1.219.656.535 0 .931-.207 1.189-.621.262-.414.399-1.066.41-1.957v-1.775Zm8.063 5.121h-5.59v-.779l2.953-3.282c.438-.496.738-.898.903-1.207.168-.312.252-.634.252-.966 0-.446-.135-.811-.405-1.096-.269-.285-.629-.428-1.078-.428-.539 0-.959.154-1.26.463-.297.305-.445.731-.445 1.277h-1.084c0-.785.252-1.42.756-1.904.508-.484 1.185-.726 2.033-.726.793 0 1.42.209 1.881.627.461.414.691.966.691 1.658 0 .84-.535 1.84-1.605 3l-2.285 2.478h4.283V335Zm4.711 0h-1.09v-7.225l-2.186.803v-.984l3.106-1.166h.17V335Zm28.948-18.227h-3.575l-.802 2.227h-1.16l3.257-8.531h.985l3.263 8.531h-1.154l-.814-2.227Zm-3.235-.925h2.901l-1.453-3.991-1.448 3.991Zm6.281 3.152v-6.34h2.473c.844 0 1.49.149 1.94.445.453.293.679.725.679 1.295 0 .293-.088.559-.263.797-.176.235-.436.414-.78.539.383.09.69.266.92.528.235.261.352.574.352.937 0 .582-.215 1.028-.645 1.336-.426.309-1.029.463-1.81.463h-2.866Zm1.084-2.783v1.91h1.793c.454 0 .791-.084 1.014-.252.227-.168.34-.404.34-.709 0-.633-.465-.949-1.395-.949h-1.752Zm0-.867h1.401c1.015 0 1.523-.297 1.523-.891 0-.594-.48-.9-1.441-.92h-1.483v1.811Zm9.768-1.793h-2.924V319h-1.09v-6.34h4.014v.897Zm.967 4.875c0-.188.055-.344.164-.469.113-.125.281-.188.504-.188.222 0 .39.063.504.188a.66.66 0 0 1 .176.469c0 .179-.059.33-.176.451-.114.121-.282.181-.504.181-.223 0-.391-.06-.504-.181a.65.65 0 0 1-.164-.451ZM257.122 335h-5.59v-.779l2.953-3.282c.438-.496.739-.898.903-1.207.168-.312.252-.634.252-.966 0-.446-.135-.811-.405-1.096-.269-.285-.629-.428-1.078-.428-.539 0-.959.154-1.26.463-.296.305-.445.731-.445 1.277h-1.084c0-.785.252-1.42.756-1.904.508-.484 1.186-.726 2.033-.726.793 0 1.42.209 1.881.627.461.414.691.966.691 1.658 0 .84-.535 1.84-1.605 3l-2.285 2.478h4.283V335Zm6.498-3.639c0 1.27-.217 2.213-.65 2.83-.434.618-1.112.926-2.033.926-.911 0-1.584-.301-2.022-.902-.437-.606-.664-1.508-.68-2.707v-1.447c0-1.254.217-2.186.651-2.795.433-.61 1.113-.914 2.039-.914.918 0 1.594.294 2.027.884.434.586.656 1.493.668 2.719v1.406Zm-1.084-1.482c0-.918-.129-1.586-.387-2.004-.257-.422-.666-.633-1.224-.633-.555 0-.959.209-1.213.627-.254.418-.385 1.061-.393 1.928v1.734c0 .922.133 1.604.399 2.045.269.438.676.656 1.219.656.535 0 .931-.207 1.189-.621.262-.414.398-1.066.41-1.957v-1.775Zm8.063 5.121h-5.59v-.779l2.953-3.282c.437-.496.738-.898.902-1.207.168-.312.252-.634.252-.966 0-.446-.135-.811-.404-1.096-.27-.285-.629-.428-1.078-.428-.539 0-.959.154-1.26.463-.297.305-.445.731-.445 1.277h-1.084c0-.785.252-1.42.756-1.904.507-.484 1.185-.726 2.033-.726.793 0 1.42.209 1.881.627.461.414.691.966.691 1.658 0 .84-.535 1.84-1.605 3l-2.286 2.478h4.284V335Zm4.711 0h-1.09v-7.225l-2.186.803v-.984l3.106-1.166h.17V335Zm26.438-18.707c-.105.902-.439 1.6-1.002 2.092-.558.488-1.303.732-2.232.732-1.008 0-1.817-.361-2.426-1.084-.606-.722-.908-1.689-.908-2.9v-.821c0-.792.14-1.49.422-2.091.285-.602.687-1.063 1.207-1.383.519-.324 1.121-.486 1.804-.486.907 0 1.633.253 2.18.761.547.504.865 1.203.955 2.098h-1.131c-.097-.68-.31-1.172-.638-1.477-.325-.304-.78-.457-1.366-.457-.718 0-1.283.266-1.693.797-.406.531-.609 1.287-.609 2.268v.826c0 .926.193 1.662.58 2.209.386.547.927.82 1.623.82.625 0 1.103-.14 1.435-.422.336-.285.559-.779.668-1.482h1.131Zm4.002 2.824c-.859 0-1.559-.281-2.098-.844-.539-.566-.808-1.322-.808-2.267v-.199c0-.629.119-1.19.357-1.682a2.81 2.81 0 0 1 1.008-1.16 2.537 2.537 0 0 1 1.406-.422c.824 0 1.465.271 1.922.814.457.543.686 1.321.686 2.332v.452h-4.295c.015.625.197 1.13.545 1.517.351.383.797.574 1.336.574.382 0 .707-.078.972-.234.266-.156.498-.363.698-.621l.662.516c-.532.816-1.329 1.224-2.391 1.224Zm-.135-5.683c-.437 0-.804.16-1.101.48-.297.316-.481.762-.551 1.336h3.176v-.082c-.032-.551-.18-.977-.446-1.277-.265-.305-.625-.457-1.078-.457Zm9.047 5.566h-1.084v-2.707h-2.912V319h-1.09v-6.34h1.09v2.748h2.912v-2.748h1.084V319Zm6.457-5.461h-2.127V319h-1.084v-5.461h-2.086v-.879h5.297v.879Zm1.078 4.893c0-.188.055-.344.164-.469.114-.125.282-.188.504-.188.223 0 .391.063.504.188a.66.66 0 0 1 .176.469c0 .179-.059.33-.176.451-.113.121-.281.181-.504.181-.222 0-.39-.06-.504-.181a.65.65 0 0 1-.164-.451ZM302.322 335h-5.59v-.779l2.954-3.282c.437-.496.738-.898.902-1.207.168-.312.252-.634.252-.966 0-.446-.135-.811-.404-1.096-.27-.285-.629-.428-1.079-.428-.539 0-.959.154-1.259.463-.297.305-.446.731-.446 1.277h-1.084c0-.785.252-1.42.756-1.904.508-.484 1.186-.726 2.033-.726.793 0 1.42.209 1.881.627.461.414.692.966.692 1.658 0 .84-.535 1.84-1.606 3l-2.285 2.478h4.283V335Zm6.498-3.639c0 1.27-.216 2.213-.65 2.83-.434.618-1.111.926-2.033.926-.91 0-1.584-.301-2.022-.902-.437-.606-.664-1.508-.679-2.707v-1.447c0-1.254.216-2.186.65-2.795.434-.61 1.113-.914 2.039-.914.918 0 1.594.294 2.027.884.434.586.657 1.493.668 2.719v1.406Zm-1.084-1.482c0-.918-.129-1.586-.386-2.004-.258-.422-.666-.633-1.225-.633-.555 0-.959.209-1.213.627-.254.418-.385 1.061-.392 1.928v1.734c0 .922.132 1.604.398 2.045.27.438.676.656 1.219.656.535 0 .931-.207 1.189-.621.262-.414.399-1.066.41-1.957v-1.775Zm8.063 5.121h-5.59v-.779l2.953-3.282c.438-.496.738-.898.902-1.207.168-.312.252-.634.252-.966 0-.446-.134-.811-.404-1.096-.269-.285-.629-.428-1.078-.428-.539 0-.959.154-1.26.463-.297.305-.445.731-.445 1.277h-1.084c0-.785.252-1.42.756-1.904.508-.484 1.185-.726 2.033-.726.793 0 1.42.209 1.881.627.461.414.691.966.691 1.658 0 .84-.535 1.84-1.605 3l-2.285 2.478h4.283V335Zm4.711 0h-1.09v-7.225l-2.186.803v-.984l3.106-1.166h.17V335Z" fill="#fff" fill-opacity=".7"/>
  </g>
  <defs>
    <linearGradient id="b" x1="1.811" y1="-2.385" x2="381.694" y2="51.981" gradientUnits="userSpaceOnUse">
      <stop stop-color="#0068EC"/>
      <stop offset="1" stop-color="#00BBF9"/>
    </linearGradient>
    <linearGradient id="g" x1="320.17" y1="66" x2="45.245" y2="273.864" gradientUnits="userSpaceOnUse">
      <stop stop-color="#30FFF3"/>
      <stop offset="1" stop-color="#CFFCFF"/>
    </linearGradient>
    <linearGradient id="i" x1="320.168" y1="153.801" x2="113.069" y2="367.369" gradientUnits="userSpaceOnUse">
      <stop stop-color="#02EFD3"/>
      <stop offset="1" stop-color="#9EFFEE"/>
    </linearGradient>
    <linearGradient id="k" x1="320.168" y1="106.014" x2="72.776" y2="317.005" gradientUnits="userSpaceOnUse">
      <stop stop-color="#3274F4"/>
      <stop offset="1" stop-color="#fff"/>
    </linearGradient>
    <linearGradient id="m" x1="320.17" y1="106.763" x2="114.568" y2="322.554" gradientUnits="userSpaceOnUse">
      <stop stop-color="#76D6FF"/>
      <stop offset="1" stop-color="#D5F4FF"/>
    </linearGradient>
    <filter id="a" x="0" y="0" width="338" height="354" filterUnits="userSpaceOnUse" color-interpolation-filters="sRGB">
      <feFlood flood-opacity="0" result="BackgroundImageFix"/>
      <feColorMatrix in="SourceAlpha" values="0 0 0 0 0 0 0 0 0 0 0 0 0 0 0 0 0 0 127 0" result="hardAlpha"/>
      <feOffset dy="2"/>
      <feGaussianBlur stdDeviation="2.5"/>
      <feComposite in2="hardAlpha" operator="out"/>
      <feColorMatrix values="0 0 0 0 0 0 0 0 0 0 0 0 0 0 0 0 0 0 0.15 0"/>
      <feBlend in2="BackgroundImageFix" result="effect1_dropShadow_761:768"/>
      <feBlend in="SourceGraphic" in2="effect1_dropShadow_761:768" result="shape"/>
    </filter>
    <filter id="f" x="43.066" y="57.246" width="280.786" height="218.266" filterUnits="userSpaceOnUse" color-interpolation-filters="sRGB">
      <feFlood flood-opacity="0" result="BackgroundImageFix"/>
      <feColorMatrix in="SourceAlpha" values="0 0 0 0 0 0 0 0 0 0 0 0 0 0 0 0 0 0 127 0" result="hardAlpha"/>
      <feOffset dy="4"/>
      <feGaussianBlur stdDeviation="1"/>
      <feComposite in2="hardAlpha" operator="out"/>
      <feColorMatrix values="0 0 0 0 0.509804 0 0 0 0 0.847059 0 0 0 0 0.980392 0 0 0 0.5 0"/>
      <feBlend in2="BackgroundImageFix" result="effect1_dropShadow_761:768"/>
      <feBlend in="SourceGraphic" in2="effect1_dropShadow_761:768" result="shape"/>
    </filter>
    <filter id="h" x="46.298" y="146.907" width="277.377" height="161.143" filterUnits="userSpaceOnUse" color-interpolation-filters="sRGB">
      <feFlood flood-opacity="0" result="BackgroundImageFix"/>
      <feColorMatrix in="SourceAlpha" values="0 0 0 0 0 0 0 0 0 0 0 0 0 0 0 0 0 0 127 0" result="hardAlpha"/>
      <feOffset dy="4"/>
      <feGaussianBlur stdDeviation="1"/>
      <feComposite in2="hardAlpha" operator="out"/>
      <feColorMatrix values="0 0 0 0 0.0117647 0 0 0 0 0.878431 0 0 0 0 0.772549 0 0 0 0.5 0"/>
      <feBlend in2="BackgroundImageFix" result="effect1_dropShadow_761:768"/>
      <feBlend in="SourceGraphic" in2="effect1_dropShadow_761:768" result="shape"/>
    </filter>
    <filter id="j" x="46.93" y="97.147" width="275.822" height="194.542" filterUnits="userSpaceOnUse" color-interpolation-filters="sRGB">
      <feFlood flood-opacity="0" result="BackgroundImageFix"/>
      <feColorMatrix in="SourceAlpha" values="0 0 0 0 0 0 0 0 0 0 0 0 0 0 0 0 0 0 127 0" result="hardAlpha"/>
      <feOffset dy="4"/>
      <feGaussianBlur stdDeviation="1"/>
      <feComposite in2="hardAlpha" operator="out"/>
      <feColorMatrix values="0 0 0 0 0.192157 0 0 0 0 0.443137 0 0 0 0 0.937255 0 0 0 0.5 0"/>
      <feBlend in2="BackgroundImageFix" result="effect1_dropShadow_761:768"/>
      <feBlend in="SourceGraphic" in2="effect1_dropShadow_761:768" result="shape"/>
    </filter>
    <filter id="l" x="43.9" y="108.245" width="278.917" height="152.426" filterUnits="userSpaceOnUse" color-interpolation-filters="sRGB">
      <feFlood flood-opacity="0" result="BackgroundImageFix"/>
      <feColorMatrix in="SourceAlpha" values="0 0 0 0 0 0 0 0 0 0 0 0 0 0 0 0 0 0 127 0" result="hardAlpha"/>
      <feOffset dy="4"/>
      <feGaussianBlur stdDeviation="1"/>
      <feComposite in2="hardAlpha" operator="out"/>
      <feColorMatrix values="0 0 0 0 0.0313726 0 0 0 0 0.623529 0 0 0 0 0.854902 0 0 0 0.5 0"/>
      <feBlend in2="BackgroundImageFix" result="effect1_dropShadow_761:768"/>
      <feBlend in="SourceGraphic" in2="effect1_dropShadow_761:768" result="shape"/>
    </filter>
    <clipPath id="c">
      <path fill="#fff" transform="translate(51.833 67)" d="M0 0h256v232H0z"/>
    </clipPath>
    <clipPath id="d">
      <path fill="#fff" transform="translate(51.833 67)" d="M0 0h256v232H0z"/>
    </clipPath>
    <clipPath id="e">
      <path fill="#fff" transform="translate(51.833 67)" d="M0 0h256v232H0z"/>
    </clipPath>
  </defs>
</svg>
