<svg width="1302" height="496" fill="none" xmlns="http://www.w3.org/2000/svg">
  <g filter="url(#a)">
    <rect x="4" y="2" width="1294" height="488" rx="10" fill="url(#b)"/>
    <path d="M41.77 34.79h-5.485V50h-2.238V34.79h-5.473v-1.852H41.77v1.851Zm6.28 15.444c-1.718 0-3.116-.562-4.194-1.687-1.079-1.133-1.618-2.645-1.618-4.535v-.399c0-1.258.239-2.379.715-3.363.484-.992 1.156-1.766 2.016-2.32a5.07 5.07 0 0 1 2.812-.844c1.649 0 2.93.543 3.844 1.629.914 1.086 1.371 2.64 1.371 4.664v.902h-8.59c.032 1.25.395 2.262 1.09 3.035.703.766 1.594 1.149 2.672 1.149.766 0 1.414-.156 1.945-.469a4.888 4.888 0 0 0 1.395-1.242l1.324 1.031c-1.063 1.633-2.656 2.45-4.781 2.45Zm-.269-11.367c-.875 0-1.61.32-2.203.961-.594.633-.96 1.524-1.101 2.672h6.351v-.164c-.062-1.102-.36-1.953-.89-2.555-.532-.61-1.25-.914-2.157-.914ZM65.875 50h-2.168v-5.414h-5.824V50h-2.18V37.32h2.18v5.496h5.824V37.32h2.168V50Zm3.387-1.77.75-.925c.844-1.094 1.324-2.735 1.441-4.922l.2-5.063h8.167v10.91h1.63v5.497h-2.17V50h-8.847v3.727h-2.168l.011-5.496h.985Zm2.566 0h5.824v-8.906H73.75l-.129 3.024c-.133 2.523-.73 4.484-1.793 5.883Zm17.285 2.004c-1.719 0-3.117-.562-4.195-1.687-1.078-1.133-1.617-2.645-1.617-4.535v-.399c0-1.258.238-2.379.715-3.363.484-.992 1.156-1.766 2.015-2.32a5.07 5.07 0 0 1 2.813-.844c1.648 0 2.93.543 3.844 1.629.914 1.086 1.37 2.64 1.37 4.664v.902h-8.59c.032 1.25.395 2.262 1.09 3.035.704.766 1.594 1.149 2.672 1.149.766 0 1.414-.156 1.946-.469a4.888 4.888 0 0 0 1.394-1.242l1.325 1.031c-1.063 1.633-2.657 2.45-4.782 2.45Zm-.27-11.367a2.88 2.88 0 0 0-2.202.961c-.594.633-.961 1.524-1.102 2.672h6.352v-.164c-.063-1.102-.36-1.953-.891-2.555-.531-.61-1.25-.914-2.156-.914ZM106.939 50h-2.168v-5.414h-5.825V50h-2.18V37.32h2.18v5.496h5.825V37.32h2.168V50Zm3.679-12.68h2.18v10.91h5.836V37.32h2.168v10.91h1.511l-.21 5.532h-1.946V50h-9.539V37.32Zm22.242 0h2.168V50h-2.168v-9.246L127.012 50h-2.168V37.32h2.168v9.258l5.847-9.258Zm15.34 0V50h-2.179v-4.934h-3.27L139.762 50h-2.344l3.187-5.262c-.812-.297-1.437-.754-1.875-1.37-.429-.626-.644-1.352-.644-2.18 0-1.157.434-2.086 1.301-2.79.867-.71 2.027-1.07 3.48-1.078h5.332Zm-7.933 3.89c0 .618.211 1.118.632 1.5.422.376.981.567 1.676.575h3.446v-4.207h-3.118c-.804 0-1.445.2-1.922.598-.476.39-.714.902-.714 1.535Zm21.316 3.388H160V50h-2.18V37.32H160v5.367h1.418l4.266-5.367h2.625l-5.016 6.094L168.73 50h-2.753l-4.395-5.402Zm13.16 2.226 2.953-9.504h2.321l-5.098 14.637c-.789 2.11-2.043 3.164-3.762 3.164l-.41-.035-.808-.152v-1.758l.585.047c.735 0 1.305-.149 1.711-.446.414-.297.754-.84 1.02-1.629l.48-1.289-4.523-12.539h2.367l3.164 9.504Zm17.93-3.023c0 1.93-.442 3.484-1.324 4.664-.883 1.18-2.078 1.77-3.586 1.77-1.539 0-2.75-.489-3.633-1.465v6.105h-2.168V37.32h1.98l.106 1.407c.883-1.094 2.109-1.641 3.68-1.641 1.523 0 2.726.574 3.609 1.723.891 1.148 1.336 2.746 1.336 4.793v.199Zm-2.168-.246c0-1.43-.305-2.559-.914-3.387-.61-.828-1.445-1.242-2.508-1.242-1.312 0-2.297.582-2.953 1.746v6.059c.648 1.156 1.641 1.734 2.976 1.734 1.04 0 1.864-.41 2.473-1.23.617-.829.926-2.055.926-3.68Zm10.019 4.91c.774 0 1.45-.235 2.028-.703.578-.469.898-1.055.961-1.758h2.05c-.039.727-.289 1.418-.75 2.074-.46.656-1.078 1.18-1.851 1.57a5.29 5.29 0 0 1-2.438.586c-1.726 0-3.101-.574-4.125-1.722-1.015-1.157-1.523-2.735-1.523-4.735v-.363c0-1.234.227-2.332.68-3.293.453-.96 1.101-1.707 1.945-2.238.852-.531 1.855-.797 3.012-.797 1.422 0 2.601.426 3.539 1.277.945.852 1.449 1.957 1.511 3.317h-2.05c-.063-.82-.375-1.492-.938-2.016-.554-.531-1.242-.797-2.062-.797-1.102 0-1.957.399-2.567 1.196-.601.789-.902 1.933-.902 3.433v.41c0 1.461.301 2.586.902 3.375.602.79 1.461 1.184 2.578 1.184ZM215.828 50c-.125-.25-.226-.695-.305-1.336-1.007 1.047-2.211 1.57-3.609 1.57-1.25 0-2.277-.351-3.082-1.054-.797-.711-1.195-1.61-1.195-2.696 0-1.32.5-2.343 1.5-3.07 1.008-.734 2.422-1.102 4.242-1.102h2.109v-.996c0-.757-.226-1.359-.679-1.804-.454-.453-1.121-.68-2.004-.68-.774 0-1.422.195-1.946.586-.523.39-.785.863-.785 1.418h-2.179c0-.633.222-1.242.667-1.828.454-.594 1.063-1.063 1.829-1.406.773-.344 1.621-.516 2.543-.516 1.461 0 2.605.367 3.433 1.102.828.726 1.258 1.73 1.289 3.011v5.836c0 1.164.149 2.09.446 2.778V50h-2.274Zm-3.598-1.652a3.81 3.81 0 0 0 1.934-.528c.609-.351 1.051-.808 1.324-1.37v-2.602h-1.699c-2.656 0-3.984.777-3.984 2.332 0 .68.226 1.21.679 1.593.454.383 1.036.575 1.746.575ZM234.836 50c-.125-.25-.227-.695-.305-1.336-1.008 1.047-2.211 1.57-3.609 1.57-1.25 0-2.277-.351-3.082-1.054-.797-.711-1.195-1.61-1.195-2.696 0-1.32.5-2.343 1.5-3.07 1.007-.734 2.421-1.102 4.242-1.102h2.109v-.996c0-.757-.226-1.359-.68-1.804-.453-.453-1.121-.68-2.004-.68-.773 0-1.421.195-1.945.586-.523.39-.785.863-.785 1.418h-2.18c0-.633.223-1.242.668-1.828.453-.594 1.063-1.063 1.828-1.406.774-.344 1.622-.516 2.543-.516 1.461 0 2.606.367 3.434 1.102.828.726 1.258 1.73 1.289 3.011v5.836c0 1.164.148 2.09.445 2.778V50h-2.273Zm-3.598-1.652c.68 0 1.324-.176 1.934-.528.609-.351 1.051-.808 1.324-1.37v-2.602h-1.699c-2.656 0-3.985.777-3.985 2.332 0 .68.227 1.21.68 1.593.453.383 1.035.575 1.746.575Zm12.774-3.75h-1.582V50h-2.18V37.32h2.18v5.367h1.418l4.265-5.367h2.625l-5.015 6.094L251.16 50h-2.754l-4.394-5.402Zm9.199-7.278h2.18v10.91h5.836V37.32h2.168v10.91h1.511l-.211 5.532h-1.945V50h-9.539V37.32Zm22.242 0h2.168V50h-2.168v-9.246L269.605 50h-2.167V37.32h2.167v9.258l5.848-9.258Zm13.852 0h2.168V50h-2.168v-9.246L283.457 50h-2.168V37.32h2.168v9.258l5.848-9.258Zm.586-4.617c0 .945-.325 1.707-.973 2.285-.641.57-1.484.856-2.531.856-1.047 0-1.895-.29-2.543-.867-.649-.579-.973-1.336-.973-2.274h1.77c0 .547.148.977.445 1.29.297.304.73.456 1.301.456.547 0 .972-.152 1.277-.457.313-.304.469-.734.469-1.289h1.758Zm17.988 8.086c0-.594-.227-1.062-.68-1.406-.453-.352-1.074-.528-1.863-.528-.766 0-1.406.2-1.922.598-.508.399-.762.867-.762 1.406h-2.156c0-1.101.461-2.004 1.383-2.707.922-.703 2.074-1.054 3.457-1.054 1.484 0 2.641.32 3.469.96.828.633 1.242 1.54 1.242 2.72 0 .57-.172 1.093-.516 1.57-.343.476-.832.855-1.465 1.136 1.477.5 2.215 1.485 2.215 2.953 0 1.165-.449 2.086-1.347 2.766-.899.68-2.098 1.02-3.598 1.02-1.461 0-2.668-.356-3.621-1.067-.945-.718-1.418-1.687-1.418-2.906h2.156c0 .617.274 1.148.82 1.594.555.437 1.243.656 2.063.656.828 0 1.496-.191 2.004-.574.508-.383.762-.88.762-1.489 0-.71-.215-1.218-.645-1.523-.422-.312-1.082-.469-1.98-.469h-2.168v-1.828h2.355c1.477-.039 2.215-.648 2.215-1.828ZM320.922 50c-.125-.25-.227-.695-.305-1.336-1.008 1.047-2.211 1.57-3.609 1.57-1.25 0-2.278-.351-3.082-1.054-.797-.711-1.196-1.61-1.196-2.696 0-1.32.5-2.343 1.5-3.07 1.008-.734 2.422-1.102 4.243-1.102h2.109v-.996c0-.757-.227-1.359-.68-1.804-.453-.453-1.121-.68-2.004-.68-.773 0-1.421.195-1.945.586-.523.39-.785.863-.785 1.418h-2.18c0-.633.223-1.242.668-1.828.453-.594 1.063-1.063 1.828-1.406.774-.344 1.621-.516 2.543-.516 1.461 0 2.606.367 3.434 1.102.828.726 1.258 1.73 1.289 3.011v5.836c0 1.164.148 2.09.445 2.778V50h-2.273Zm-3.598-1.652c.68 0 1.324-.176 1.934-.528.609-.351 1.051-.808 1.324-1.37v-2.602h-1.699c-2.656 0-3.985.777-3.985 2.332 0 .68.227 1.21.68 1.593.453.383 1.035.575 1.746.575ZM342.473 50h-2.168V39.113h-5.836V50h-2.18V37.32h10.184V50Zm2.906-6.457c0-1.242.242-2.36.726-3.352.493-.992 1.172-1.757 2.04-2.297.875-.538 1.871-.808 2.988-.808 1.726 0 3.121.598 4.183 1.793 1.071 1.195 1.606 2.785 1.606 4.77v.152c0 1.234-.238 2.343-.715 3.328-.469.977-1.145 1.738-2.027 2.285-.875.547-1.883.82-3.024.82-1.718 0-3.113-.597-4.183-1.793-1.063-1.195-1.594-2.777-1.594-4.746v-.152Zm2.18.258c0 1.406.324 2.535.972 3.386.657.852 1.531 1.278 2.625 1.278 1.102 0 1.977-.43 2.625-1.29.649-.866.973-2.077.973-3.632 0-1.39-.332-2.516-.996-3.375-.656-.867-1.531-1.3-2.625-1.3-1.071 0-1.934.425-2.59 1.276-.656.852-.984 2.07-.984 3.657Zm17.168 4.664c.773 0 1.449-.235 2.027-.703.578-.469.898-1.055.961-1.758h2.051c-.039.727-.289 1.418-.75 2.074-.461.656-1.078 1.18-1.852 1.57a5.29 5.29 0 0 1-2.437.586c-1.727 0-3.102-.574-4.125-1.722-1.016-1.157-1.524-2.735-1.524-4.735v-.363c0-1.234.227-2.332.68-3.293.453-.96 1.101-1.707 1.945-2.238.852-.531 1.856-.797 3.012-.797 1.422 0 2.601.426 3.539 1.277.945.852 1.449 1.957 1.512 3.317h-2.051c-.063-.82-.375-1.492-.938-2.016-.554-.531-1.242-.797-2.062-.797-1.102 0-1.957.399-2.567 1.196-.601.789-.902 1.933-.902 3.433v.41c0 1.461.301 2.586.902 3.375.602.79 1.461 1.184 2.579 1.184Zm17.871-11.145V50h-2.18V39.113h-4.313l-.257 4.746c-.141 2.18-.508 3.739-1.102 4.676-.586.938-1.519 1.426-2.801 1.465h-.867v-1.91l.621-.047c.703-.078 1.207-.484 1.512-1.219.305-.734.5-2.093.586-4.078l.234-5.426h8.567Zm8.742 12.914c-1.719 0-3.117-.562-4.195-1.687-1.079-1.133-1.618-2.645-1.618-4.535v-.399c0-1.258.239-2.379.715-3.363.485-.992 1.156-1.766 2.016-2.32a5.068 5.068 0 0 1 2.812-.844c1.649 0 2.93.543 3.844 1.629.914 1.086 1.371 2.64 1.371 4.664v.902h-8.59c.032 1.25.395 2.262 1.09 3.035.703.766 1.594 1.149 2.672 1.149.766 0 1.414-.156 1.945-.469a4.887 4.887 0 0 0 1.395-1.242l1.324 1.031c-1.062 1.633-2.656 2.45-4.781 2.45Zm-.27-11.367c-.875 0-1.609.32-2.203.961-.594.633-.961 1.524-1.101 2.672h6.351v-.164c-.062-1.102-.359-1.953-.89-2.555-.532-.61-1.25-.914-2.157-.914Zm7.629 9.364.75-.926c.844-1.094 1.324-2.735 1.442-4.922l.199-5.063h8.168v10.91h1.629v5.497h-2.168V50h-8.848v3.727h-2.168l.012-5.496h.984Zm2.567 0h5.824v-8.907h-3.902l-.129 3.024c-.133 2.523-.731 4.484-1.793 5.883ZM423.648 50h-2.168v-5.414h-5.824V50h-2.179V37.32h2.179v5.496h5.824V37.32h2.168V50Zm11.696-12.68h2.168V50h-2.168v-9.246L429.496 50h-2.168V37.32h2.168v9.258l5.848-9.258Zm10.91 12.914c-1.719 0-3.117-.562-4.195-1.687-1.079-1.133-1.618-2.645-1.618-4.535v-.399c0-1.258.239-2.379.715-3.363.485-.992 1.156-1.766 2.016-2.32a5.07 5.07 0 0 1 2.812-.844c1.649 0 2.93.543 3.844 1.629.914 1.086 1.371 2.64 1.371 4.664v.902h-8.59c.032 1.25.395 2.262 1.09 3.035.703.766 1.594 1.149 2.672 1.149.766 0 1.414-.156 1.945-.469a4.887 4.887 0 0 0 1.395-1.242l1.324 1.031c-1.062 1.633-2.656 2.45-4.781 2.45Zm-.27-11.367c-.875 0-1.609.32-2.203.961-.593.633-.961 1.524-1.101 2.672h6.351v-.164c-.062-1.102-.359-1.953-.89-2.555-.532-.61-1.25-.914-2.157-.914ZM466.574 50h-2.179V35.55l-4.372 1.606v-1.968l6.211-2.333h.34V50Zm17.531 0h-11.179v-1.559l5.906-6.562c.875-.992 1.477-1.797 1.805-2.414.336-.625.504-1.27.504-1.934 0-.89-.27-1.62-.809-2.191-.539-.57-1.258-.856-2.156-.856-1.078 0-1.918.309-2.52.926-.594.61-.89 1.461-.89 2.555h-2.168c0-1.57.504-2.84 1.511-3.809 1.016-.968 2.371-1.453 4.067-1.453 1.586 0 2.84.418 3.762 1.254.921.828 1.382 1.934 1.382 3.316 0 1.68-1.07 3.68-3.211 6l-4.57 4.957h8.566V50Zm15.774-2.871 4.312-9.809h2.707V50h-2.168v-9.223L500.629 50h-1.5l-4.184-9.422V50h-2.168V37.32h2.813l4.289 9.809Zm15.773 3.105c-1.718 0-3.117-.562-4.195-1.687-1.078-1.133-1.617-2.645-1.617-4.535v-.399c0-1.258.238-2.379.715-3.363.484-.992 1.156-1.766 2.015-2.32a5.074 5.074 0 0 1 2.813-.844c1.648 0 2.929.543 3.844 1.629.914 1.086 1.371 2.64 1.371 4.664v.902h-8.59c.031 1.25.394 2.262 1.09 3.035.703.766 1.593 1.149 2.672 1.149.765 0 1.414-.156 1.945-.469a4.884 4.884 0 0 0 1.394-1.242l1.325 1.031c-1.063 1.633-2.657 2.45-4.782 2.45Zm-.269-11.367c-.875 0-1.61.32-2.203.961-.594.633-.961 1.524-1.102 2.672h6.352v-.164c-.063-1.102-.36-1.953-.891-2.555-.531-.61-1.25-.914-2.156-.914Zm12.82 9.598c.774 0 1.449-.235 2.027-.703.579-.469.899-1.055.961-1.758h2.051c-.039.727-.289 1.418-.75 2.074-.461.656-1.078 1.18-1.851 1.57a5.294 5.294 0 0 1-2.438.586c-1.726 0-3.101-.574-4.125-1.722-1.016-1.157-1.523-2.735-1.523-4.735v-.363c0-1.234.226-2.332.679-3.293.454-.96 1.102-1.707 1.946-2.238.851-.531 1.855-.797 3.011-.797 1.422 0 2.602.426 3.539 1.277.946.852 1.45 1.957 1.512 3.317h-2.051c-.062-.82-.375-1.492-.937-2.016-.555-.531-1.242-.797-2.063-.797-1.101 0-1.957.399-2.566 1.196-.602.789-.902 1.933-.902 3.433v.41c0 1.461.3 2.586.902 3.375.602.79 1.461 1.184 2.578 1.184Zm17.168-11.145V50h-2.18v-4.934h-3.269L536.934 50h-2.344l3.187-5.262c-.812-.297-1.437-.754-1.875-1.37-.429-.626-.644-1.352-.644-2.18 0-1.157.433-2.086 1.301-2.79.867-.71 2.027-1.07 3.48-1.078h5.332Zm-7.933 3.89c0 .618.21 1.118.632 1.5.422.376.981.567 1.676.575h3.445v-4.207h-3.117c-.804 0-1.445.2-1.922.598-.476.39-.714.902-.714 1.535Zm11.601-3.89h2.18v10.91h5.836V37.32h2.168v10.91h1.511l-.211 5.532h-1.945V50h-9.539V37.32Zm19.301 12.914c-1.719 0-3.117-.562-4.195-1.687-1.079-1.133-1.618-2.645-1.618-4.535v-.399c0-1.258.239-2.379.715-3.363.485-.992 1.156-1.766 2.016-2.32a5.068 5.068 0 0 1 2.812-.844c1.649 0 2.93.543 3.844 1.629.914 1.086 1.371 2.64 1.371 4.664v.902h-8.59c.032 1.25.395 2.262 1.09 3.035.703.766 1.594 1.149 2.672 1.149.766 0 1.414-.156 1.945-.469a4.887 4.887 0 0 0 1.395-1.242l1.324 1.031c-1.062 1.633-2.656 2.45-4.781 2.45Zm-.27-11.367c-.875 0-1.609.32-2.203.961-.594.633-.961 1.524-1.101 2.672h6.351v-.164c-.062-1.102-.359-1.953-.89-2.555-.532-.61-1.25-.914-2.157-.914ZM576.004 50V37.32h4.945c1.688 0 2.981.297 3.879.89.906.587 1.36 1.45 1.36 2.59a2.62 2.62 0 0 1-.528 1.595c-.351.468-.871.828-1.558 1.078.765.18 1.378.53 1.839 1.054.469.524.704 1.149.704 1.875 0 1.164-.43 2.055-1.29 2.672-.851.617-2.058.926-3.621.926h-5.73Zm2.168-5.566v3.82h3.586c.906 0 1.582-.168 2.027-.504.453-.336.68-.809.68-1.418 0-1.266-.93-1.898-2.789-1.898h-3.504Zm0-1.735h2.801c2.031 0 3.047-.593 3.047-1.781s-.961-1.8-2.883-1.84h-2.965V42.7Z" fill="#fff"/>
    <path d="M34.719 112.07c0-.479-.17-.882-.508-1.211-.333-.328-.898-.625-1.695-.89-1.11-.339-1.92-.779-2.43-1.321-.505-.546-.758-1.239-.758-2.078 0-.854.248-1.554.742-2.101.5-.547 1.185-.873 2.055-.977v-1.711h1.164v1.719c.875.12 1.555.487 2.04 1.102.489.614.733 1.455.733 2.523h-1.437c0-.734-.175-1.318-.523-1.75-.35-.432-.82-.648-1.414-.648-.62 0-1.094.161-1.422.484-.328.318-.493.763-.493 1.336 0 .531.172.956.516 1.273.349.313.92.599 1.711.86.797.255 1.417.539 1.86.851.447.308.775.667.984 1.078.213.412.32.894.32 1.446 0 .88-.266 1.588-.797 2.125-.526.536-1.265.854-2.219.953v1.492h-1.156v-1.492c-.969-.089-1.729-.432-2.281-1.031-.547-.605-.82-1.422-.82-2.454h1.445c0 .724.19 1.282.57 1.672.38.391.92.586 1.617.586.683 0 1.22-.164 1.61-.492.39-.328.586-.776.586-1.344ZM43.5 110a3.53 3.53 0 0 1-1.086.867 2.91 2.91 0 0 1-1.375.328c-.656 0-1.23-.161-1.719-.484-.484-.323-.86-.776-1.125-1.359a4.677 4.677 0 0 1-.398-1.946c0-.76.143-1.445.43-2.054.291-.61.703-1.076 1.234-1.399.531-.323 1.151-.484 1.86-.484 1.124 0 2.01.422 2.656 1.265.65.839.976 1.985.976 3.438v.422c0 2.213-.437 3.83-1.312 4.851-.875 1.016-2.196 1.537-3.961 1.563h-.282v-1.219h.305c1.193-.021 2.11-.331 2.75-.93.64-.604.99-1.557 1.047-2.859Zm-2.227 0c.485 0 .93-.148 1.336-.445.412-.297.711-.664.899-1.102v-.578c0-.948-.206-1.719-.617-2.313-.412-.593-.933-.89-1.563-.89-.635 0-1.146.245-1.531.734-.386.485-.578 1.125-.578 1.922 0 .776.185 1.417.554 1.922.375.5.875.75 1.5.75Zm12.805.148c0 1.693-.289 2.951-.867 3.774-.578.823-1.482 1.234-2.711 1.234-1.214 0-2.112-.401-2.695-1.203-.584-.807-.886-2.01-.907-3.609v-1.93c0-1.672.29-2.914.868-3.726.578-.813 1.484-1.219 2.718-1.219 1.224 0 2.125.393 2.703 1.179.579.782.876 1.99.891 3.625v1.875Zm-1.445-1.976c0-1.224-.172-2.115-.516-2.672-.344-.562-.888-.844-1.633-.844-.74 0-1.278.279-1.617.836-.338.557-.513 1.414-.523 2.57v2.313c0 1.229.177 2.138.531 2.727.36.583.901.875 1.625.875.714 0 1.242-.276 1.586-.829.349-.552.531-1.421.547-2.609v-2.367Zm10.43 1.976c0 1.693-.29 2.951-.868 3.774-.578.823-1.481 1.234-2.71 1.234-1.214 0-2.113-.401-2.696-1.203-.583-.807-.885-2.01-.906-3.609v-1.93c0-1.672.289-2.914.867-3.726.578-.813 1.484-1.219 2.719-1.219 1.224 0 2.125.393 2.703 1.179.578.782.875 1.99.89 3.625v1.875Zm-1.446-1.976c0-1.224-.172-2.115-.515-2.672-.344-.562-.888-.844-1.633-.844-.74 0-1.279.279-1.617.836-.339.557-.513 1.414-.524 2.57v2.313c0 1.229.177 2.138.531 2.727.36.583.901.875 1.625.875.714 0 1.243-.276 1.586-.829.35-.552.532-1.421.547-2.609v-2.367Zm6.563 1.539-1.39 1.445V115h-1.5v-11.375h1.5v5.625l5.054-5.625h1.812l-4.476 5.023L74.008 115H72.21l-4.031-5.289ZM34.719 144.07c0-.479-.17-.882-.508-1.211-.333-.328-.898-.625-1.695-.89-1.11-.339-1.92-.779-2.43-1.321-.505-.546-.758-1.239-.758-2.078 0-.854.248-1.554.742-2.101.5-.547 1.185-.873 2.055-.977v-1.711h1.164v1.719c.875.12 1.555.487 2.04 1.102.489.614.733 1.455.733 2.523h-1.437c0-.734-.175-1.318-.523-1.75-.35-.432-.82-.648-1.414-.648-.62 0-1.094.161-1.422.484-.328.318-.493.763-.493 1.336 0 .531.172.956.516 1.273.349.313.92.599 1.711.86.797.255 1.417.539 1.86.851.447.308.775.667.984 1.078.213.412.32.894.32 1.446 0 .88-.266 1.588-.797 2.125-.526.536-1.265.854-2.219.953v1.492h-1.156v-1.492c-.969-.089-1.729-.432-2.281-1.031-.547-.605-.82-1.422-.82-2.454h1.445c0 .724.19 1.282.57 1.672.38.391.92.586 1.617.586.683 0 1.22-.164 1.61-.492.39-.328.586-.776.586-1.344Zm10.14-5.476c0 .567-.15 1.073-.453 1.515-.297.443-.7.789-1.21 1.039a3.243 3.243 0 0 1 1.406 1.118c.349.489.523 1.044.523 1.664 0 .984-.333 1.768-1 2.351-.661.584-1.534.875-2.617.875-1.094 0-1.972-.291-2.633-.875-.656-.588-.984-1.372-.984-2.351 0-.615.166-1.17.5-1.664.338-.495.804-.87 1.398-1.125a2.986 2.986 0 0 1-1.195-1.039 2.681 2.681 0 0 1-.438-1.508c0-.959.308-1.719.922-2.282.615-.562 1.425-.843 2.43-.843 1 0 1.807.281 2.422.843.62.563.93 1.323.93 2.282Zm-1.18 5.304c0-.635-.202-1.153-.609-1.554-.4-.401-.927-.602-1.578-.602-.65 0-1.174.198-1.57.594-.39.396-.586.917-.586 1.562 0 .646.19 1.154.57 1.524.386.37.92.555 1.602.555.677 0 1.208-.185 1.594-.555.385-.375.578-.883.578-1.524Zm-2.171-7.242c-.568 0-1.029.177-1.383.532-.349.348-.523.825-.523 1.429 0 .578.171 1.047.515 1.406.35.355.813.532 1.39.532.579 0 1.04-.177 1.384-.532.349-.359.523-.828.523-1.406s-.18-1.049-.539-1.414c-.36-.364-.815-.547-1.367-.547Zm12.57 5.492c0 1.693-.289 2.951-.867 3.774-.578.823-1.482 1.234-2.711 1.234-1.214 0-2.112-.401-2.695-1.203-.584-.807-.886-2.01-.907-3.609v-1.93c0-1.672.29-2.914.868-3.726.578-.813 1.484-1.219 2.718-1.219 1.224 0 2.125.393 2.703 1.179.579.782.876 1.99.891 3.625v1.875Zm-1.445-1.976c0-1.224-.172-2.115-.516-2.672-.344-.562-.888-.844-1.633-.844-.74 0-1.278.279-1.617.836-.338.557-.513 1.414-.523 2.57v2.313c0 1.229.177 2.138.531 2.727.36.583.901.875 1.625.875.714 0 1.242-.276 1.586-.829.349-.552.531-1.421.547-2.609v-2.367Zm10.43 1.976c0 1.693-.29 2.951-.868 3.774-.578.823-1.481 1.234-2.71 1.234-1.214 0-2.113-.401-2.696-1.203-.583-.807-.885-2.01-.906-3.609v-1.93c0-1.672.289-2.914.867-3.726.578-.813 1.484-1.219 2.719-1.219 1.224 0 2.125.393 2.703 1.179.578.782.875 1.99.89 3.625v1.875Zm-1.446-1.976c0-1.224-.172-2.115-.515-2.672-.344-.562-.888-.844-1.633-.844-.74 0-1.279.279-1.617.836-.339.557-.513 1.414-.524 2.57v2.313c0 1.229.177 2.138.531 2.727.36.583.901.875 1.625.875.714 0 1.243-.276 1.586-.829.35-.552.532-1.421.547-2.609v-2.367Zm6.563 1.539-1.39 1.445V147h-1.5v-11.375h1.5v5.625l5.054-5.625h1.812l-4.476 5.023L74.008 147H72.21l-4.031-5.289ZM34.719 176.07c0-.479-.17-.882-.508-1.211-.333-.328-.898-.625-1.695-.89-1.11-.339-1.92-.779-2.43-1.321-.505-.546-.758-1.239-.758-2.078 0-.854.248-1.554.742-2.101.5-.547 1.185-.873 2.055-.977v-1.711h1.164v1.719c.875.12 1.555.487 2.04 1.102.489.614.733 1.455.733 2.523h-1.437c0-.734-.175-1.318-.523-1.75-.35-.432-.82-.648-1.414-.648-.62 0-1.094.161-1.422.484-.328.318-.493.763-.493 1.336 0 .531.172.956.516 1.273.349.313.92.599 1.711.86.797.255 1.417.539 1.86.851.447.308.775.667.984 1.078.213.412.32.894.32 1.446 0 .88-.266 1.588-.797 2.125-.526.536-1.265.854-2.219.953v1.492h-1.156v-1.492c-.969-.089-1.729-.432-2.281-1.031-.547-.605-.82-1.422-.82-2.454h1.445c0 .724.19 1.282.57 1.672.38.391.92.586 1.617.586.683 0 1.22-.164 1.61-.492.39-.328.586-.776.586-1.344Zm10.586-7.632L40.594 179h-1.516l4.695-10.188h-6.156v-1.187h7.688v.813Zm8.773 5.71c0 1.693-.289 2.951-.867 3.774-.578.823-1.482 1.234-2.711 1.234-1.214 0-2.112-.401-2.695-1.203-.584-.807-.886-2.01-.907-3.609v-1.93c0-1.672.29-2.914.868-3.726.578-.813 1.484-1.219 2.718-1.219 1.224 0 2.125.393 2.703 1.179.579.782.876 1.99.891 3.625v1.875Zm-1.445-1.976c0-1.224-.172-2.115-.516-2.672-.344-.562-.888-.844-1.633-.844-.74 0-1.278.279-1.617.836-.338.557-.513 1.414-.523 2.57v2.313c0 1.229.177 2.138.531 2.727.36.583.901.875 1.625.875.714 0 1.242-.276 1.586-.829.349-.552.531-1.421.547-2.609v-2.367Zm10.43 1.976c0 1.693-.29 2.951-.868 3.774-.578.823-1.481 1.234-2.71 1.234-1.214 0-2.113-.401-2.696-1.203-.583-.807-.885-2.01-.906-3.609v-1.93c0-1.672.289-2.914.867-3.726.578-.813 1.484-1.219 2.719-1.219 1.224 0 2.125.393 2.703 1.179.578.782.875 1.99.89 3.625v1.875Zm-1.446-1.976c0-1.224-.172-2.115-.515-2.672-.344-.562-.888-.844-1.633-.844-.74 0-1.279.279-1.617.836-.339.557-.513 1.414-.524 2.57v2.313c0 1.229.177 2.138.531 2.727.36.583.901.875 1.625.875.714 0 1.243-.276 1.586-.829.35-.552.532-1.421.547-2.609v-2.367Zm6.563 1.539-1.39 1.445V179h-1.5v-11.375h1.5v5.625l5.054-5.625h1.812l-4.476 5.023L74.008 179H72.21l-4.031-5.289ZM34.719 208.07c0-.479-.17-.882-.508-1.211-.333-.328-.898-.625-1.695-.89-1.11-.339-1.92-.779-2.43-1.321-.505-.546-.758-1.239-.758-2.078 0-.854.248-1.554.742-2.101.5-.547 1.185-.873 2.055-.977v-1.711h1.164v1.719c.875.12 1.555.487 2.04 1.102.489.614.733 1.455.733 2.523h-1.437c0-.734-.175-1.318-.523-1.75-.35-.432-.82-.648-1.414-.648-.62 0-1.094.161-1.422.484-.328.318-.493.763-.493 1.336 0 .531.172.956.516 1.273.349.313.92.599 1.711.86.797.255 1.417.539 1.86.851.447.308.775.667.984 1.078.213.412.32.894.32 1.446 0 .88-.266 1.588-.797 2.125-.526.536-1.265.854-2.219.953v1.492h-1.156v-1.492c-.969-.089-1.729-.432-2.281-1.031-.547-.605-.82-1.422-.82-2.454h1.445c0 .724.19 1.282.57 1.672.38.391.92.586 1.617.586.683 0 1.22-.164 1.61-.492.39-.328.586-.776.586-1.344Zm8.914-8.453v1.227h-.266c-1.125.021-2.02.354-2.687 1-.667.646-1.052 1.554-1.157 2.726.6-.687 1.417-1.031 2.454-1.031.99 0 1.778.349 2.367 1.047.593.698.89 1.599.89 2.703 0 1.172-.32 2.109-.96 2.813-.636.703-1.49 1.054-2.563 1.054-1.089 0-1.971-.416-2.648-1.25-.678-.838-1.016-1.916-1.016-3.234v-.555c0-2.094.445-3.693 1.336-4.797.896-1.109 2.226-1.677 3.992-1.703h.258Zm-1.899 5.125c-.494 0-.95.149-1.367.446a2.316 2.316 0 0 0-.867 1.117v.531c0 .937.21 1.693.633 2.266.422.572.948.859 1.578.859.651 0 1.161-.24 1.531-.719.375-.479.563-1.107.563-1.883 0-.781-.19-1.411-.57-1.89-.376-.485-.876-.727-1.5-.727Zm12.344 1.406c0 1.693-.289 2.951-.867 3.774-.578.823-1.482 1.234-2.711 1.234-1.214 0-2.112-.401-2.695-1.203-.584-.807-.886-2.01-.907-3.609v-1.93c0-1.672.29-2.914.868-3.726.578-.813 1.484-1.219 2.718-1.219 1.224 0 2.125.393 2.703 1.179.579.782.876 1.99.891 3.625v1.875Zm-1.445-1.976c0-1.224-.172-2.115-.516-2.672-.344-.562-.888-.844-1.633-.844-.74 0-1.278.279-1.617.836-.338.557-.513 1.414-.523 2.57v2.313c0 1.229.177 2.138.531 2.727.36.583.901.875 1.625.875.714 0 1.242-.276 1.586-.829.349-.552.531-1.421.547-2.609v-2.367Zm10.43 1.976c0 1.693-.29 2.951-.868 3.774-.578.823-1.481 1.234-2.71 1.234-1.214 0-2.113-.401-2.696-1.203-.583-.807-.885-2.01-.906-3.609v-1.93c0-1.672.289-2.914.867-3.726.578-.813 1.484-1.219 2.719-1.219 1.224 0 2.125.393 2.703 1.179.578.782.875 1.99.89 3.625v1.875Zm-1.446-1.976c0-1.224-.172-2.115-.515-2.672-.344-.562-.888-.844-1.633-.844-.74 0-1.279.279-1.617.836-.339.557-.513 1.414-.524 2.57v2.313c0 1.229.177 2.138.531 2.727.36.583.901.875 1.625.875.714 0 1.243-.276 1.586-.829.35-.552.532-1.421.547-2.609v-2.367Zm6.563 1.539-1.39 1.445V211h-1.5v-11.375h1.5v5.625l5.054-5.625h1.812l-4.476 5.023L74.008 211H72.21l-4.031-5.289ZM34.719 240.07c0-.479-.17-.882-.508-1.211-.333-.328-.898-.625-1.695-.89-1.11-.339-1.92-.779-2.43-1.321-.505-.546-.758-1.239-.758-2.078 0-.854.248-1.554.742-2.101.5-.547 1.185-.873 2.055-.977v-1.711h1.164v1.719c.875.12 1.555.487 2.04 1.102.489.614.733 1.455.733 2.523h-1.437c0-.734-.175-1.318-.523-1.75-.35-.432-.82-.648-1.414-.648-.62 0-1.094.161-1.422.484-.328.318-.493.763-.493 1.336 0 .531.172.956.516 1.273.349.313.92.599 1.711.86.797.255 1.417.539 1.86.851.447.308.775.667.984 1.078.213.412.32.894.32 1.446 0 .88-.266 1.588-.797 2.125-.526.536-1.265.854-2.219.953v1.492h-1.156v-1.492c-.969-.089-1.729-.432-2.281-1.031-.547-.605-.82-1.422-.82-2.454h1.445c0 .724.19 1.282.57 1.672.38.391.92.586 1.617.586.683 0 1.22-.164 1.61-.492.39-.328.586-.776.586-1.344Zm3.906-2.773.578-5.672h5.828v1.336H40.43l-.344 3.101c.557-.328 1.19-.492 1.898-.492 1.037 0 1.86.344 2.47 1.032.608.682.913 1.606.913 2.773 0 1.172-.317 2.096-.953 2.773-.63.672-1.513 1.008-2.648 1.008-1.006 0-1.826-.278-2.461-.836-.636-.557-.998-1.328-1.086-2.312h1.367c.089.651.32 1.143.695 1.476.375.328.87.493 1.485.493.672 0 1.198-.23 1.578-.688.385-.458.578-1.091.578-1.898 0-.761-.208-1.37-.625-1.829-.412-.463-.961-.695-1.649-.695-.63 0-1.125.138-1.484.414l-.383.313-1.156-.297Zm15.453.851c0 1.693-.289 2.951-.867 3.774-.578.823-1.482 1.234-2.711 1.234-1.214 0-2.112-.401-2.695-1.203-.584-.807-.886-2.01-.907-3.609v-1.93c0-1.672.29-2.914.868-3.726.578-.813 1.484-1.219 2.718-1.219 1.224 0 2.125.393 2.703 1.179.579.782.876 1.99.891 3.625v1.875Zm-1.445-1.976c0-1.224-.172-2.115-.516-2.672-.344-.562-.888-.844-1.633-.844-.74 0-1.278.279-1.617.836-.338.557-.513 1.414-.523 2.57v2.313c0 1.229.177 2.138.531 2.727.36.583.901.875 1.625.875.714 0 1.242-.276 1.586-.829.349-.552.531-1.421.547-2.609v-2.367Zm10.43 1.976c0 1.693-.29 2.951-.868 3.774-.578.823-1.481 1.234-2.71 1.234-1.214 0-2.113-.401-2.696-1.203-.583-.807-.885-2.01-.906-3.609v-1.93c0-1.672.289-2.914.867-3.726.578-.813 1.484-1.219 2.719-1.219 1.224 0 2.125.393 2.703 1.179.578.782.875 1.99.89 3.625v1.875Zm-1.446-1.976c0-1.224-.172-2.115-.515-2.672-.344-.562-.888-.844-1.633-.844-.74 0-1.279.279-1.617.836-.339.557-.513 1.414-.524 2.57v2.313c0 1.229.177 2.138.531 2.727.36.583.901.875 1.625.875.714 0 1.243-.276 1.586-.829.35-.552.532-1.421.547-2.609v-2.367Zm6.563 1.539-1.39 1.445V243h-1.5v-11.375h1.5v5.625l5.054-5.625h1.812l-4.476 5.023L74.008 243H72.21l-4.031-5.289ZM34.719 272.07c0-.479-.17-.882-.508-1.211-.333-.328-.898-.625-1.695-.89-1.11-.339-1.92-.779-2.43-1.321-.505-.546-.758-1.239-.758-2.078 0-.854.248-1.554.742-2.101.5-.547 1.185-.873 2.055-.977v-1.711h1.164v1.719c.875.12 1.555.487 2.04 1.102.489.614.733 1.455.733 2.523h-1.437c0-.734-.175-1.318-.523-1.75-.35-.432-.82-.648-1.414-.648-.62 0-1.094.161-1.422.484-.328.318-.493.763-.493 1.336 0 .531.172.956.516 1.273.349.313.92.599 1.711.86.797.255 1.417.539 1.86.851.447.308.775.667.984 1.078.213.412.32.894.32 1.446 0 .88-.266 1.588-.797 2.125-.526.536-1.265.854-2.219.953v1.492h-1.156v-1.492c-.969-.089-1.729-.432-2.281-1.031-.547-.605-.82-1.422-.82-2.454h1.445c0 .724.19 1.282.57 1.672.38.391.92.586 1.617.586.683 0 1.22-.164 1.61-.492.39-.328.586-.776.586-1.344Zm9.343-.89h1.579v1.179h-1.578V275h-1.454v-2.641h-5.18v-.851l5.094-7.883h1.54v7.555Zm-4.992 0h3.54v-5.578l-.172.312-3.368 5.266Zm15.008-1.032c0 1.693-.289 2.951-.867 3.774-.578.823-1.482 1.234-2.711 1.234-1.214 0-2.112-.401-2.695-1.203-.584-.807-.886-2.01-.907-3.609v-1.93c0-1.672.29-2.914.868-3.726.578-.813 1.484-1.219 2.718-1.219 1.224 0 2.125.393 2.703 1.179.579.782.876 1.99.891 3.625v1.875Zm-1.445-1.976c0-1.224-.172-2.115-.516-2.672-.344-.562-.888-.844-1.633-.844-.74 0-1.278.279-1.617.836-.338.557-.513 1.414-.523 2.57v2.313c0 1.229.177 2.138.531 2.727.36.583.901.875 1.625.875.714 0 1.242-.276 1.586-.829.349-.552.531-1.421.547-2.609v-2.367Zm10.43 1.976c0 1.693-.29 2.951-.868 3.774-.578.823-1.481 1.234-2.71 1.234-1.214 0-2.113-.401-2.696-1.203-.583-.807-.885-2.01-.906-3.609v-1.93c0-1.672.289-2.914.867-3.726.578-.813 1.484-1.219 2.719-1.219 1.224 0 2.125.393 2.703 1.179.578.782.875 1.99.89 3.625v1.875Zm-1.446-1.976c0-1.224-.172-2.115-.515-2.672-.344-.562-.888-.844-1.633-.844-.74 0-1.279.279-1.617.836-.339.557-.513 1.414-.524 2.57v2.313c0 1.229.177 2.138.531 2.727.36.583.901.875 1.625.875.714 0 1.243-.276 1.586-.829.35-.552.532-1.421.547-2.609v-2.367Zm6.563 1.539-1.39 1.445V275h-1.5v-11.375h1.5v5.625l5.054-5.625h1.812l-4.476 5.023L74.008 275H72.21l-4.031-5.289ZM34.719 304.07c0-.479-.17-.882-.508-1.211-.333-.328-.898-.625-1.695-.89-1.11-.339-1.92-.779-2.43-1.321-.505-.546-.758-1.239-.758-2.078 0-.854.248-1.554.742-2.101.5-.547 1.185-.873 2.055-.977v-1.711h1.164v1.719c.875.12 1.555.487 2.04 1.102.489.614.733 1.455.733 2.523h-1.437c0-.734-.175-1.318-.523-1.75-.35-.432-.82-.648-1.414-.648-.62 0-1.094.161-1.422.484-.328.318-.493.763-.493 1.336 0 .531.172.956.516 1.273.349.313.92.599 1.711.86.797.255 1.417.539 1.86.851.447.308.775.667.984 1.078.213.412.32.894.32 1.446 0 .88-.266 1.588-.797 2.125-.526.536-1.265.854-2.219.953v1.492h-1.156v-1.492c-.969-.089-1.729-.432-2.281-1.031-.547-.605-.82-1.422-.82-2.454h1.445c0 .724.19 1.282.57 1.672.38.391.92.586 1.617.586.683 0 1.22-.164 1.61-.492.39-.328.586-.776.586-1.344Zm5.343-3.461h1.086c.683-.01 1.22-.19 1.61-.539.39-.349.586-.82.586-1.414 0-1.333-.664-2-1.992-2-.625 0-1.125.18-1.5.539-.37.354-.555.826-.555 1.414h-1.445c0-.901.328-1.648.984-2.242.661-.599 1.5-.898 2.516-.898 1.073 0 1.914.284 2.523.851.61.568.914 1.357.914 2.368 0 .494-.161.973-.484 1.437-.318.464-.753.81-1.305 1.039.625.198 1.107.526 1.445.984.344.459.516 1.019.516 1.68 0 1.021-.333 1.831-1 2.43-.667.599-1.534.898-2.602.898-1.067 0-1.937-.289-2.609-.867-.667-.578-1-1.341-1-2.289h1.453c0 .599.195 1.078.586 1.438.39.359.914.539 1.57.539.698 0 1.232-.183 1.602-.547.37-.365.555-.888.555-1.571 0-.661-.203-1.169-.61-1.523-.406-.354-.992-.537-1.758-.547h-1.086v-1.18Zm14.016 1.539c0 1.693-.289 2.951-.867 3.774-.578.823-1.482 1.234-2.711 1.234-1.214 0-2.112-.401-2.695-1.203-.584-.807-.886-2.01-.907-3.609v-1.93c0-1.672.29-2.914.868-3.726.578-.813 1.484-1.219 2.718-1.219 1.224 0 2.125.393 2.703 1.179.579.782.876 1.99.891 3.625v1.875Zm-1.445-1.976c0-1.224-.172-2.115-.516-2.672-.344-.562-.888-.844-1.633-.844-.74 0-1.278.279-1.617.836-.338.557-.513 1.414-.523 2.57v2.313c0 1.229.177 2.138.531 2.727.36.583.901.875 1.625.875.714 0 1.242-.276 1.586-.829.349-.552.531-1.421.547-2.609v-2.367Zm10.43 1.976c0 1.693-.29 2.951-.868 3.774-.578.823-1.481 1.234-2.71 1.234-1.214 0-2.113-.401-2.696-1.203-.583-.807-.885-2.01-.906-3.609v-1.93c0-1.672.289-2.914.867-3.726.578-.813 1.484-1.219 2.719-1.219 1.224 0 2.125.393 2.703 1.179.578.782.875 1.99.89 3.625v1.875Zm-1.446-1.976c0-1.224-.172-2.115-.515-2.672-.344-.562-.888-.844-1.633-.844-.74 0-1.279.279-1.617.836-.339.557-.513 1.414-.524 2.57v2.313c0 1.229.177 2.138.531 2.727.36.583.901.875 1.625.875.714 0 1.243-.276 1.586-.829.35-.552.532-1.421.547-2.609v-2.367Zm6.563 1.539-1.39 1.445V307h-1.5v-11.375h1.5v5.625l5.054-5.625h1.812l-4.476 5.023L74.008 307H72.21l-4.031-5.289ZM34.719 336.07c0-.479-.17-.882-.508-1.211-.333-.328-.898-.625-1.695-.89-1.11-.339-1.92-.779-2.43-1.321-.505-.546-.758-1.239-.758-2.078 0-.854.248-1.554.742-2.101.5-.547 1.185-.873 2.055-.977v-1.711h1.164v1.719c.875.12 1.555.487 2.04 1.102.489.614.733 1.455.733 2.523h-1.437c0-.734-.175-1.318-.523-1.75-.35-.432-.82-.648-1.414-.648-.62 0-1.094.161-1.422.484-.328.318-.493.763-.493 1.336 0 .531.172.956.516 1.273.349.313.92.599 1.711.86.797.255 1.417.539 1.86.851.447.308.775.667.984 1.078.213.412.32.894.32 1.446 0 .88-.266 1.588-.797 2.125-.526.536-1.265.854-2.219.953v1.492h-1.156v-1.492c-.969-.089-1.729-.432-2.281-1.031-.547-.605-.82-1.422-.82-2.454h1.445c0 .724.19 1.282.57 1.672.38.391.92.586 1.617.586.683 0 1.22-.164 1.61-.492.39-.328.586-.776.586-1.344ZM45.414 339h-7.453v-1.039l3.937-4.375c.584-.662.985-1.198 1.204-1.609.224-.417.336-.847.336-1.289 0-.594-.18-1.081-.54-1.461-.359-.381-.838-.571-1.437-.571-.719 0-1.279.206-1.68.617-.396.407-.593.974-.593 1.704h-1.446c0-1.047.336-1.894 1.008-2.539.677-.646 1.58-.969 2.71-.969 1.058 0 1.894.278 2.509.836.614.552.922 1.289.922 2.211 0 1.119-.714 2.453-2.141 4l-3.047 3.304h5.711V339Zm8.664-4.852c0 1.693-.289 2.951-.867 3.774-.578.823-1.482 1.234-2.711 1.234-1.214 0-2.112-.401-2.695-1.203-.584-.807-.886-2.01-.907-3.609v-1.93c0-1.672.29-2.914.868-3.726.578-.813 1.484-1.219 2.718-1.219 1.224 0 2.125.393 2.703 1.179.579.782.876 1.99.891 3.625v1.875Zm-1.445-1.976c0-1.224-.172-2.115-.516-2.672-.344-.562-.888-.844-1.633-.844-.74 0-1.278.279-1.617.836-.338.557-.513 1.414-.523 2.57v2.313c0 1.229.177 2.138.531 2.727.36.583.901.875 1.625.875.714 0 1.242-.276 1.586-.829.349-.552.531-1.421.547-2.609v-2.367Zm10.43 1.976c0 1.693-.29 2.951-.868 3.774-.578.823-1.481 1.234-2.71 1.234-1.214 0-2.113-.401-2.696-1.203-.583-.807-.885-2.01-.906-3.609v-1.93c0-1.672.289-2.914.867-3.726.578-.813 1.484-1.219 2.719-1.219 1.224 0 2.125.393 2.703 1.179.578.782.875 1.99.89 3.625v1.875Zm-1.446-1.976c0-1.224-.172-2.115-.515-2.672-.344-.562-.888-.844-1.633-.844-.74 0-1.279.279-1.617.836-.339.557-.513 1.414-.524 2.57v2.313c0 1.229.177 2.138.531 2.727.36.583.901.875 1.625.875.714 0 1.243-.276 1.586-.829.35-.552.532-1.421.547-2.609v-2.367Zm6.563 1.539-1.39 1.445V339h-1.5v-11.375h1.5v5.625l5.054-5.625h1.812l-4.476 5.023L74.008 339H72.21l-4.031-5.289ZM34.719 368.07c0-.479-.17-.882-.508-1.211-.333-.328-.898-.625-1.695-.89-1.11-.339-1.92-.779-2.43-1.321-.505-.546-.758-1.239-.758-2.078 0-.854.248-1.554.742-2.101.5-.547 1.185-.873 2.055-.977v-1.711h1.164v1.719c.875.12 1.555.487 2.04 1.102.489.614.733 1.455.733 2.523h-1.437c0-.734-.175-1.318-.523-1.75-.35-.432-.82-.648-1.414-.648-.62 0-1.094.161-1.422.484-.328.318-.493.763-.493 1.336 0 .531.172.956.516 1.273.349.313.92.599 1.711.86.797.255 1.417.539 1.86.851.447.308.775.667.984 1.078.213.412.32.894.32 1.446 0 .88-.266 1.588-.797 2.125-.526.536-1.265.854-2.219.953v1.492h-1.156v-1.492c-.969-.089-1.729-.432-2.281-1.031-.547-.605-.82-1.422-.82-2.454h1.445c0 .724.19 1.282.57 1.672.38.391.92.586 1.617.586.683 0 1.22-.164 1.61-.492.39-.328.586-.776.586-1.344ZM42.71 371h-1.453v-9.633l-2.914 1.071v-1.313l4.14-1.555h.227V371Zm11.367-4.852c0 1.693-.289 2.951-.867 3.774-.578.823-1.482 1.234-2.711 1.234-1.214 0-2.112-.401-2.695-1.203-.584-.807-.886-2.01-.907-3.609v-1.93c0-1.672.29-2.914.868-3.726.578-.813 1.484-1.219 2.718-1.219 1.224 0 2.125.393 2.703 1.179.579.782.876 1.99.891 3.625v1.875Zm-1.445-1.976c0-1.224-.172-2.115-.516-2.672-.344-.562-.888-.844-1.633-.844-.74 0-1.278.279-1.617.836-.338.557-.513 1.414-.523 2.57v2.313c0 1.229.177 2.138.531 2.727.36.583.901.875 1.625.875.714 0 1.242-.276 1.586-.829.349-.552.531-1.421.547-2.609v-2.367Zm10.43 1.976c0 1.693-.29 2.951-.868 3.774-.578.823-1.481 1.234-2.71 1.234-1.214 0-2.113-.401-2.696-1.203-.583-.807-.885-2.01-.906-3.609v-1.93c0-1.672.289-2.914.867-3.726.578-.813 1.484-1.219 2.719-1.219 1.224 0 2.125.393 2.703 1.179.578.782.875 1.99.89 3.625v1.875Zm-1.446-1.976c0-1.224-.172-2.115-.515-2.672-.344-.562-.888-.844-1.633-.844-.74 0-1.279.279-1.617.836-.339.557-.513 1.414-.524 2.57v2.313c0 1.229.177 2.138.531 2.727.36.583.901.875 1.625.875.714 0 1.243-.276 1.586-.829.35-.552.532-1.421.547-2.609v-2.367Zm6.563 1.539-1.39 1.445V371h-1.5v-11.375h1.5v5.625l5.054-5.625h1.812l-4.476 5.023L74.008 371H72.21l-4.031-5.289Zm4.915 32.437c0 1.693-.29 2.951-.867 3.774-.579.823-1.482 1.234-2.711 1.234-1.214 0-2.112-.401-2.696-1.203-.583-.807-.885-2.01-.906-3.609v-1.93c0-1.672.29-2.914.867-3.726.578-.813 1.485-1.219 2.719-1.219 1.224 0 2.125.393 2.703 1.179.578.782.875 1.99.89 3.625v1.875Zm-1.446-1.976c0-1.224-.171-2.115-.515-2.672-.344-.562-.888-.844-1.633-.844-.74 0-1.279.279-1.617.836-.339.557-.513 1.414-.524 2.57v2.313c0 1.229.178 2.138.532 2.727.359.583.9.875 1.625.875.713 0 1.242-.276 1.586-.829.349-.552.53-1.421.546-2.609v-2.367Z" fill="#fff" fill-opacity=".7"/>
    <g clip-path="url(#c)">
      <path stroke="#fff" stroke-opacity=".5" stroke-linecap="square" stroke-dasharray="1.18 4.74" d="M90.5 108h1183m-1183 33.5h1183M90.5 175h1183m-1183 33.5h1183M90.5 242h1183m-1183 33.5h1183M90.5 309h1183m-1183 33.5h1183M90.5 376h1183m-1183 33.5h1183"/>
      <g clip-path="url(#d)">
        <g filter="url(#e)">
          <path d="m90 399 61.4-68.94a50 50 0 0 1 52.194-14.487l59.908 18.641a50 50 0 0 0 49.536-11.724l42.952-41.357a50.014 50.014 0 0 1 15.739-10.256l54.669-22.377 35.021-13.094c23.559-8.809 52.102-.045 67.885 19.537 12.308 15.271 24.428 29.944 25.657 31.557 2.053 2.693 50.071 17.377 85.124 27.724 11.618 3.43 24.082 2.45 35.057-2.677l117.395-54.838a49.993 49.993 0 0 1 34.095-2.997l110.076 29.478c22.525 6.033 46.229-4.306 57.132-24.919l14.76-27.899a50 50 0 0 1 36.87-26.081l141.64-20.985a50.02 50.02 0 0 0 22.15-9.068L1274 127" stroke="url(#f)" stroke-width="5"/>
        </g>
        <g filter="url(#g)">
          <path d="m90 388 65.87-37.542a49.999 49.999 0 0 0 9.537-7.056l32.26-30.408a50 50 0 0 1 38.93-13.4l44.855 4.175a49.993 49.993 0 0 0 25.31-4.26l4.425-2.009 118.9-63.572c18.464-9.872 41.123-7.194 56.777 6.709l58.369 51.839a49.973 49.973 0 0 0 12.545 8.149l34.358 15.587c26.902 12.205 58.331-2.609 66.04-31.127a47.908 47.908 0 0 1 14.82-23.657l36.431-31.665a49.999 49.999 0 0 1 32.801-12.263h81.05a49.998 49.998 0 0 0 18.067-3.378l88.158-34.163a49.984 49.984 0 0 1 21.149-3.284l118.758 7.336c5.25.324 10.52-.182 15.61-1.5l67.42-17.449a49.968 49.968 0 0 1 16.17-1.462l59.32 4.337c9.5.694 19-1.338 27.38-5.858L1274 152" stroke="url(#h)" stroke-width="5"/>
        </g>
        <g filter="url(#i)">
          <path d="m90 377 93.608-17.179a50.031 50.031 0 0 1 9.025-.821h103.533a50 50 0 0 0 40.028-20.038l20.271-27.081a50 50 0 0 1 23.907-17.367l50.508-17.204a49.999 49.999 0 0 1 43.268 5.34l17.013 11a50 50 0 0 0 46.555 4.09l67.273-28.337a50.016 50.016 0 0 1 21.786-3.864l71.487 3.401a49.996 49.996 0 0 0 22.537-4.188l63.965-28.184a50.008 50.008 0 0 0 10.826-6.515l38.402-30.324a50 50 0 0 1 41.851-9.565l73.383 16.336 123.914 22.774a50.01 50.01 0 0 0 44.27-13.698l50.76-50.412a50.016 50.016 0 0 1 29.4-14.179L1274 142" stroke="url(#j)" stroke-width="5"/>
        </g>
        <g filter="url(#k)">
          <path d="m90 365 104.441-20.448 102.361-25.655a50.054 50.054 0 0 1 10.34-1.467l106.195-3.859a49.99 49.99 0 0 0 22.624-6.347l67.786-37.98 81.57-32.157a49.998 49.998 0 0 1 32.202-1.523l105.368 30.409a49.99 49.99 0 0 0 22.934 1.131l149.892-27.648a50.013 50.013 0 0 0 24.886-12.47l42.475-39.298a50.005 50.005 0 0 1 46.796-11.624l51.09 13.573a50.023 50.023 0 0 0 17.61 1.448l54.42-5.219a50.005 50.005 0 0 1 18.58 1.714l22.51 6.464a49.974 49.974 0 0 0 20.4 1.505l79.52-10.59" stroke="url(#l)" stroke-width="5"/>
        </g>
      </g>
    </g>
    <path d="M140.297 429.68c0 1.114-.188 2.088-.563 2.922-.375.828-.906 1.46-1.593 1.898-.688.438-1.49.656-2.407.656-.895 0-1.69-.218-2.382-.656-.693-.443-1.232-1.07-1.618-1.883-.38-.818-.575-1.763-.586-2.836v-.82c0-1.094.191-2.06.571-2.899.38-.838.916-1.479 1.609-1.921.698-.448 1.495-.672 2.391-.672.911 0 1.713.221 2.406.664.698.437 1.234 1.075 1.609 1.914.375.833.563 1.805.563 2.914v.719Zm-1.492-.735c0-1.349-.271-2.383-.813-3.101-.541-.724-1.299-1.086-2.273-1.086-.948 0-1.696.362-2.242 1.086-.542.718-.821 1.718-.836 3v.836c0 1.307.273 2.336.82 3.086.552.744 1.31 1.117 2.273 1.117.969 0 1.719-.352 2.25-1.055.532-.708.805-1.721.821-3.039v-.844Zm6.148 2.453h-1.055V435h-1.453v-8.453h1.453v3.578h.946l2.844-3.578h1.75l-3.344 4.062 3.625 4.391h-1.836l-2.93-3.602Zm12.289-3.679h-2.836V435h-1.445v-7.281h-2.781v-1.172h7.062v1.172Zm1.438 6.523c0-.25.073-.458.218-.625.151-.166.375-.25.672-.25.297 0 .521.084.672.25a.88.88 0 0 1 .235.625c0 .24-.079.44-.235.602-.151.161-.375.242-.672.242-.297 0-.521-.081-.672-.242a.869.869 0 0 1-.218-.602ZM136.43 459h-7.453v-1.039l3.937-4.375c.583-.662.984-1.198 1.203-1.609.224-.417.336-.847.336-1.289 0-.594-.18-1.081-.539-1.461-.359-.381-.838-.571-1.437-.571-.719 0-1.279.206-1.68.617-.396.407-.594.974-.594 1.704h-1.445c0-1.047.336-1.894 1.008-2.539.677-.646 1.58-.969 2.711-.969 1.057 0 1.893.278 2.507.836.615.552.922 1.289.922 2.211 0 1.119-.713 2.453-2.14 4l-3.047 3.304h5.711V459Zm8.664-4.852c0 1.693-.289 2.951-.867 3.774-.579.823-1.482 1.234-2.711 1.234-1.214 0-2.112-.401-2.696-1.203-.583-.807-.885-2.01-.906-3.609v-1.93c0-1.672.289-2.914.867-3.726.578-.813 1.485-1.219 2.719-1.219 1.224 0 2.125.393 2.703 1.179.578.782.875 1.99.891 3.625v1.875Zm-1.446-1.976c0-1.224-.171-2.115-.515-2.672-.344-.562-.888-.844-1.633-.844-.74 0-1.279.279-1.617.836-.339.557-.513 1.414-.524 2.57v2.313c0 1.229.177 2.138.532 2.727.359.583.901.875 1.625.875.713 0 1.242-.276 1.586-.829.349-.552.531-1.421.546-2.609v-2.367Zm10.75 6.828h-7.453v-1.039l3.938-4.375c.583-.662.984-1.198 1.203-1.609.224-.417.336-.847.336-1.289 0-.594-.18-1.081-.539-1.461-.36-.381-.839-.571-1.438-.571-.718 0-1.278.206-1.679.617-.396.407-.594.974-.594 1.704h-1.445c0-1.047.335-1.894 1.007-2.539.677-.646 1.581-.969 2.711-.969 1.058 0 1.894.278 2.508.836.615.552.922 1.289.922 2.211 0 1.119-.714 2.453-2.141 4l-3.046 3.304h5.71V459Zm8.664-4.852c0 1.693-.289 2.951-.867 3.774-.578.823-1.481 1.234-2.711 1.234-1.213 0-2.112-.401-2.695-1.203-.583-.807-.885-2.01-.906-3.609v-1.93c0-1.672.289-2.914.867-3.726.578-.813 1.484-1.219 2.719-1.219 1.224 0 2.125.393 2.703 1.179.578.782.875 1.99.89 3.625v1.875Zm-1.445-1.976c0-1.224-.172-2.115-.515-2.672-.344-.562-.888-.844-1.633-.844-.74 0-1.279.279-1.617.836-.339.557-.513 1.414-.524 2.57v2.313c0 1.229.177 2.138.531 2.727.36.583.901.875 1.625.875.714 0 1.243-.276 1.586-.829.349-.552.532-1.421.547-2.609v-2.367ZM234.693 435h-1.507v-5.258h-5.735V435h-1.5v-11.375h1.5v4.891h5.735v-4.891h1.507V435Zm2.055-4.305c0-.828.162-1.573.484-2.234.329-.662.782-1.172 1.36-1.531.583-.36 1.247-.539 1.992-.539 1.151 0 2.081.398 2.789 1.195.714.797 1.07 1.857 1.07 3.18v.101c0 .823-.158 1.563-.476 2.219a3.557 3.557 0 0 1-1.352 1.523c-.583.365-1.255.547-2.015.547-1.146 0-2.076-.398-2.789-1.195-.709-.797-1.063-1.852-1.063-3.164v-.102Zm1.453.172c0 .938.216 1.69.649 2.258.437.568 1.02.852 1.75.852.734 0 1.317-.287 1.75-.86.432-.578.648-1.385.648-2.422 0-.927-.221-1.677-.664-2.25-.438-.578-1.021-.867-1.75-.867-.714 0-1.289.284-1.727.852-.437.567-.656 1.38-.656 2.437Zm14.516-4.32V435h-1.453v-3.289h-2.18L247.092 435h-1.563l2.125-3.508c-.541-.198-.958-.502-1.25-.914-.286-.417-.429-.901-.429-1.453 0-.771.289-1.391.867-1.859.578-.474 1.351-.714 2.32-.719h3.555Zm-5.289 2.594c0 .411.14.744.422 1 .281.25.653.377 1.117.382h2.297v-2.804h-2.078c-.537 0-.964.133-1.282.398a1.263 1.263 0 0 0-.476 1.024Zm11.32-2.11c1.063 0 1.912.357 2.547 1.071.641.708.961 1.643.961 2.804v.133c0 .797-.154 1.51-.461 2.141a3.437 3.437 0 0 1-1.328 1.461c-.573.343-1.235.515-1.985.515-1.135 0-2.049-.377-2.742-1.133-.692-.76-1.039-1.778-1.039-3.054v-.703c0-1.776.328-3.188.985-4.235.661-1.047 1.635-1.685 2.921-1.914.73-.13 1.222-.289 1.477-.476a.91.91 0 0 0 .383-.774h1.187c0 .651-.148 1.159-.445 1.524-.292.364-.76.622-1.406.773l-1.078.242c-.86.203-1.506.547-1.938 1.032-.427.479-.706 1.119-.836 1.921.766-.885 1.698-1.328 2.797-1.328Zm-.281 1.188c-.709 0-1.271.239-1.688.719-.416.473-.625 1.132-.625 1.976v.125c0 .906.209 1.625.625 2.156.422.526.99.789 1.703.789.719 0 1.287-.265 1.704-.796.416-.532.625-1.308.625-2.329 0-.797-.211-1.435-.633-1.914-.417-.484-.987-.726-1.711-.726Zm5.445 6.023c0-.25.073-.458.219-.625.151-.166.375-.25.672-.25.297 0 .521.084.672.25a.88.88 0 0 1 .234.625c0 .24-.078.44-.234.602-.151.161-.375.242-.672.242-.297 0-.521-.081-.672-.242a.865.865 0 0 1-.219-.602ZM236.248 459h-7.453v-1.039l3.937-4.375c.584-.662.985-1.198 1.204-1.609.224-.417.335-.847.335-1.289 0-.594-.179-1.081-.539-1.461-.359-.381-.838-.571-1.437-.571-.719 0-1.279.206-1.68.617-.396.407-.594.974-.594 1.704h-1.445c0-1.047.336-1.894 1.008-2.539.677-.646 1.581-.969 2.711-.969 1.057 0 1.893.278 2.508.836.614.552.922 1.289.922 2.211 0 1.119-.714 2.453-2.141 4l-3.047 3.304h5.711V459Zm8.664-4.852c0 1.693-.289 2.951-.867 3.774-.578.823-1.482 1.234-2.711 1.234-1.214 0-2.112-.401-2.695-1.203-.584-.807-.886-2.01-.907-3.609v-1.93c0-1.672.289-2.914.868-3.726.578-.813 1.484-1.219 2.718-1.219 1.224 0 2.125.393 2.703 1.179.579.782.875 1.99.891 3.625v1.875Zm-1.445-1.976c0-1.224-.172-2.115-.516-2.672-.344-.562-.888-.844-1.633-.844-.739 0-1.278.279-1.617.836-.338.557-.513 1.414-.523 2.57v2.313c0 1.229.177 2.138.531 2.727.359.583.901.875 1.625.875.714 0 1.242-.276 1.586-.829.349-.552.531-1.421.547-2.609v-2.367Zm10.75 6.828h-7.453v-1.039l3.937-4.375c.584-.662.985-1.198 1.203-1.609.224-.417.336-.847.336-1.289 0-.594-.179-1.081-.539-1.461-.359-.381-.838-.571-1.437-.571-.719 0-1.279.206-1.68.617-.396.407-.594.974-.594 1.704h-1.445c0-1.047.336-1.894 1.008-2.539.677-.646 1.58-.969 2.711-.969 1.057 0 1.893.278 2.507.836.615.552.922 1.289.922 2.211 0 1.119-.713 2.453-2.14 4l-3.047 3.304h5.711V459Zm8.664-4.852c0 1.693-.289 2.951-.867 3.774-.578.823-1.482 1.234-2.711 1.234-1.214 0-2.112-.401-2.696-1.203-.583-.807-.885-2.01-.906-3.609v-1.93c0-1.672.289-2.914.867-3.726.578-.813 1.485-1.219 2.719-1.219 1.224 0 2.125.393 2.703 1.179.578.782.875 1.99.891 3.625v1.875Zm-1.445-1.976c0-1.224-.172-2.115-.516-2.672-.344-.562-.888-.844-1.633-.844-.739 0-1.279.279-1.617.836-.339.557-.513 1.414-.524 2.57v2.313c0 1.229.178 2.138.532 2.727.359.583.901.875 1.625.875.713 0 1.242-.276 1.586-.829.349-.552.531-1.421.547-2.609v-2.367Zm79.067-14.383h-1.492V435h-8.164v2.797h-1.5l-.008-4.024h.93c.49-.552.878-1.291 1.164-2.218.292-.933.474-1.953.547-3.063l.25-4.867h6.805v10.148h1.484l-.016 4.016Zm-8.523-4.016h5.547v-8.914h-3.852l-.164 3.344c-.067 1.307-.242 2.422-.523 3.344-.276.922-.612 1.664-1.008 2.226Zm13.602 1.383c-1.146 0-2.079-.375-2.797-1.125-.719-.755-1.078-1.763-1.078-3.023v-.266c0-.838.158-1.586.476-2.242.323-.661.771-1.177 1.344-1.547a3.38 3.38 0 0 1 1.875-.562c1.099 0 1.953.362 2.562 1.086.61.724.914 1.76.914 3.109v.602h-5.726c.021.833.263 1.507.726 2.023.469.51 1.063.766 1.782.766.51 0 .942-.105 1.297-.313a3.24 3.24 0 0 0 .929-.828l.883.687c-.708 1.089-1.771 1.633-3.187 1.633Zm-.18-7.578c-.583 0-1.073.214-1.469.641-.396.422-.641 1.015-.734 1.781h4.234v-.109c-.042-.735-.239-1.302-.594-1.703-.354-.407-.833-.61-1.437-.61Zm7.789 3.82h-1.055V435h-1.453v-8.453h1.453v3.578h.946l2.843-3.578h1.75l-3.343 4.062 3.625 4.391h-1.836l-2.93-3.602Zm6.039 2.844c0-.25.073-.458.219-.625.151-.166.375-.25.672-.25.296 0 .52.084.671.25a.876.876 0 0 1 .235.625.83.83 0 0 1-.235.602c-.151.161-.375.242-.671.242-.297 0-.521-.081-.672-.242a.865.865 0 0 1-.219-.602ZM336.066 459h-7.453v-1.039l3.937-4.375c.584-.662.985-1.198 1.203-1.609.224-.417.336-.847.336-1.289 0-.594-.179-1.081-.539-1.461-.359-.381-.838-.571-1.437-.571-.719 0-1.279.206-1.68.617-.396.407-.594.974-.594 1.704h-1.445c0-1.047.336-1.894 1.008-2.539.677-.646 1.581-.969 2.711-.969 1.057 0 1.893.278 2.508.836.614.552.921 1.289.921 2.211 0 1.119-.713 2.453-2.14 4l-3.047 3.304h5.711V459Zm8.664-4.852c0 1.693-.289 2.951-.867 3.774-.578.823-1.482 1.234-2.711 1.234-1.214 0-2.112-.401-2.695-1.203-.584-.807-.886-2.01-.907-3.609v-1.93c0-1.672.289-2.914.867-3.726.579-.813 1.485-1.219 2.719-1.219 1.224 0 2.125.393 2.703 1.179.578.782.875 1.99.891 3.625v1.875Zm-1.445-1.976c0-1.224-.172-2.115-.516-2.672-.344-.562-.888-.844-1.633-.844-.739 0-1.278.279-1.617.836-.338.557-.513 1.414-.523 2.57v2.313c0 1.229.177 2.138.531 2.727.359.583.901.875 1.625.875.713 0 1.242-.276 1.586-.829.349-.552.531-1.421.547-2.609v-2.367Zm10.75 6.828h-7.453v-1.039l3.937-4.375c.583-.662.984-1.198 1.203-1.609.224-.417.336-.847.336-1.289 0-.594-.18-1.081-.539-1.461-.359-.381-.838-.571-1.437-.571-.719 0-1.279.206-1.68.617-.396.407-.594.974-.594 1.704h-1.445c0-1.047.336-1.894 1.008-2.539.677-.646 1.58-.969 2.711-.969 1.057 0 1.893.278 2.507.836.615.552.922 1.289.922 2.211 0 1.119-.713 2.453-2.14 4l-3.047 3.304h5.711V459Zm8.664-4.852c0 1.693-.289 2.951-.867 3.774-.579.823-1.482 1.234-2.711 1.234-1.214 0-2.112-.401-2.696-1.203-.583-.807-.885-2.01-.906-3.609v-1.93c0-1.672.289-2.914.867-3.726.578-.813 1.485-1.219 2.719-1.219 1.224 0 2.125.393 2.703 1.179.578.782.875 1.99.891 3.625v1.875Zm-1.446-1.976c0-1.224-.171-2.115-.515-2.672-.344-.562-.888-.844-1.633-.844-.74 0-1.279.279-1.617.836-.339.557-.513 1.414-.524 2.57v2.313c0 1.229.177 2.138.532 2.727.359.583.901.875 1.625.875.713 0 1.242-.276 1.586-.829.349-.552.531-1.421.546-2.609v-2.367ZM436.337 435v-4.43h-2.625l-2.351 4.43h-1.602l2.641-4.844c-1.469-.578-2.203-1.612-2.203-3.101 0-1.084.354-1.925 1.062-2.524.714-.604 1.703-.906 2.969-.906h3.617V435h-1.508Zm-4.64-7.945c0 .687.213 1.239.64 1.656.433.417 1.032.628 1.797.633h2.203v-4.485h-2.132c-.813 0-1.435.193-1.868.579-.427.385-.64.924-.64 1.617ZM447.251 435h-1.445v-3.609h-3.883V435h-1.453v-8.453h1.453v3.664h3.883v-3.664h1.445V435Zm2.461 0v-8.453h3.297c1.125 0 1.987.198 2.586.594.604.39.906.966.906 1.726 0 .391-.117.745-.351 1.063-.234.312-.581.552-1.039.718.51.12.919.355 1.226.704.313.349.469.765.469 1.25 0 .776-.286 1.369-.859 1.781-.568.411-1.373.617-2.414.617h-3.821Zm1.446-3.711v2.547h2.39c.605 0 1.055-.112 1.352-.336.302-.224.453-.539.453-.945 0-.844-.62-1.266-1.859-1.266h-2.336Zm0-1.156h1.867c1.354 0 2.031-.396 2.031-1.188 0-.791-.64-1.2-1.922-1.226h-1.976v2.414Zm7.593 4.109c0-.25.073-.458.219-.625.151-.166.375-.25.672-.25.297 0 .521.084.672.25a.88.88 0 0 1 .234.625c0 .24-.078.44-.234.602-.151.161-.375.242-.672.242-.297 0-.521-.081-.672-.242a.865.865 0 0 1-.219-.602ZM435.884 459h-7.453v-1.039l3.938-4.375c.583-.662.984-1.198 1.203-1.609.224-.417.336-.847.336-1.289 0-.594-.18-1.081-.539-1.461-.36-.381-.839-.571-1.438-.571-.719 0-1.278.206-1.68.617-.395.407-.593.974-.593 1.704h-1.446c0-1.047.336-1.894 1.008-2.539.677-.646 1.581-.969 2.711-.969 1.057 0 1.893.278 2.508.836.615.552.922 1.289.922 2.211 0 1.119-.714 2.453-2.141 4l-3.047 3.304h5.711V459Zm8.664-4.852c0 1.693-.289 2.951-.867 3.774-.578.823-1.482 1.234-2.711 1.234-1.213 0-2.112-.401-2.695-1.203-.583-.807-.886-2.01-.906-3.609v-1.93c0-1.672.289-2.914.867-3.726.578-.813 1.484-1.219 2.719-1.219 1.224 0 2.125.393 2.703 1.179.578.782.875 1.99.89 3.625v1.875Zm-1.445-1.976c0-1.224-.172-2.115-.516-2.672-.343-.562-.888-.844-1.632-.844-.74 0-1.279.279-1.618.836-.338.557-.513 1.414-.523 2.57v2.313c0 1.229.177 2.138.531 2.727.36.583.901.875 1.625.875.714 0 1.242-.276 1.586-.829.349-.552.531-1.421.547-2.609v-2.367Zm10.75 6.828H446.4v-1.039l3.937-4.375c.584-.662.985-1.198 1.204-1.609.223-.417.335-.847.335-1.289 0-.594-.179-1.081-.539-1.461-.359-.381-.838-.571-1.437-.571-.719 0-1.279.206-1.68.617-.396.407-.594.974-.594 1.704h-1.445c0-1.047.336-1.894 1.008-2.539.677-.646 1.581-.969 2.711-.969 1.057 0 1.893.278 2.508.836.614.552.922 1.289.922 2.211 0 1.119-.714 2.453-2.141 4l-3.047 3.304h5.711V459Zm6.281 0h-1.453v-9.633l-2.914 1.071v-1.313l4.141-1.555h.226V459Zm74.982-34.234h.242c.86.005 1.644.205 2.352.601a4.195 4.195 0 0 1 1.648 1.641c.396.693.594 1.469.594 2.328 0 .865-.198 1.648-.594 2.352a4.258 4.258 0 0 1-1.64 1.648c-.698.391-1.474.591-2.328.602h-.274v1.531h-1.453v-1.531h-.219a4.815 4.815 0 0 1-2.375-.594 4.255 4.255 0 0 1-1.656-1.641c-.391-.698-.586-1.482-.586-2.351 0-.87.195-1.654.586-2.352a4.255 4.255 0 0 1 1.656-1.641 4.825 4.825 0 0 1 2.375-.593h.219v-1.61h1.453v1.61Zm-1.672 1.179c-.979 0-1.755.302-2.328.907-.567.599-.851 1.432-.851 2.5 0 1.072.284 1.908.851 2.507.568.594 1.349.891 2.344.891h.203v-6.805h-.219Zm1.672 0v6.805h.219c.995 0 1.771-.305 2.328-.914.563-.615.844-1.448.844-2.5 0-1.042-.281-1.867-.844-2.477-.557-.609-1.344-.914-2.359-.914h-.188Zm10.008 9.211c-1.146 0-2.078-.375-2.797-1.125-.719-.755-1.078-1.763-1.078-3.023v-.266c0-.838.159-1.586.477-2.242.323-.661.77-1.177 1.343-1.547a3.38 3.38 0 0 1 1.875-.562c1.099 0 1.953.362 2.563 1.086.609.724.914 1.76.914 3.109v.602h-5.727c.021.833.263 1.507.727 2.023.469.51 1.062.766 1.781.766.511 0 .943-.105 1.297-.313.354-.208.664-.484.93-.828l.883.687c-.709 1.089-1.771 1.633-3.188 1.633Zm-.18-7.578a1.92 1.92 0 0 0-1.468.641c-.396.422-.641 1.015-.735 1.781h4.235v-.109c-.042-.735-.24-1.302-.594-1.703-.354-.407-.833-.61-1.438-.61Zm5.289 7.422v-8.453h3.297c1.125 0 1.987.198 2.586.594.604.39.906.966.906 1.726 0 .391-.117.745-.351 1.063-.234.312-.581.552-1.039.718.51.12.919.355 1.226.704.313.349.469.765.469 1.25 0 .776-.286 1.369-.859 1.781-.568.411-1.373.617-2.414.617h-3.821Zm1.446-3.711v2.547h2.39c.605 0 1.055-.112 1.352-.336.302-.224.453-.539.453-.945 0-.844-.62-1.266-1.859-1.266h-2.336Zm0-1.156h1.867c1.354 0 2.031-.396 2.031-1.188 0-.791-.64-1.2-1.922-1.226h-1.976v2.414Zm7.593 4.109c0-.25.073-.458.219-.625.151-.166.375-.25.672-.25.297 0 .521.084.672.25a.88.88 0 0 1 .234.625c0 .24-.078.44-.234.602-.151.161-.375.242-.672.242-.297 0-.521-.081-.672-.242a.865.865 0 0 1-.219-.602ZM535.702 459h-7.453v-1.039l3.938-4.375c.583-.662.984-1.198 1.203-1.609.224-.417.336-.847.336-1.289 0-.594-.18-1.081-.539-1.461-.36-.381-.839-.571-1.438-.571-.719 0-1.279.206-1.68.617-.395.407-.593.974-.593 1.704h-1.446c0-1.047.336-1.894 1.008-2.539.677-.646 1.581-.969 2.711-.969 1.057 0 1.893.278 2.508.836.614.552.922 1.289.922 2.211 0 1.119-.714 2.453-2.141 4l-3.047 3.304h5.711V459Zm8.664-4.852c0 1.693-.289 2.951-.867 3.774-.578.823-1.482 1.234-2.711 1.234-1.213 0-2.112-.401-2.695-1.203-.584-.807-.886-2.01-.906-3.609v-1.93c0-1.672.289-2.914.867-3.726.578-.813 1.484-1.219 2.718-1.219 1.224 0 2.125.393 2.704 1.179.578.782.875 1.99.89 3.625v1.875Zm-1.445-1.976c0-1.224-.172-2.115-.516-2.672-.343-.562-.888-.844-1.633-.844-.739 0-1.278.279-1.617.836-.338.557-.513 1.414-.523 2.57v2.313c0 1.229.177 2.138.531 2.727.359.583.901.875 1.625.875.714 0 1.242-.276 1.586-.829.349-.552.531-1.421.547-2.609v-2.367Zm10.75 6.828h-7.453v-1.039l3.937-4.375c.584-.662.985-1.198 1.203-1.609.224-.417.336-.847.336-1.289 0-.594-.179-1.081-.539-1.461-.359-.381-.838-.571-1.437-.571-.719 0-1.279.206-1.68.617-.396.407-.594.974-.594 1.704h-1.445c0-1.047.336-1.894 1.008-2.539.677-.646 1.581-.969 2.711-.969 1.057 0 1.893.278 2.508.836.614.552.921 1.289.921 2.211 0 1.119-.713 2.453-2.14 4l-3.047 3.304h5.711V459Zm6.281 0h-1.453v-9.633l-2.914 1.071v-1.313l4.141-1.555h.226V459Zm66.928-35.375 3.719 9.281 3.718-9.281h1.946V435h-1.5v-4.43l.14-4.781-3.734 9.211h-1.148l-3.727-9.188.148 4.758V435h-1.5v-11.375h1.938ZM643.903 435c-.083-.167-.151-.464-.203-.891-.672.698-1.474 1.047-2.406 1.047-.833 0-1.518-.234-2.055-.703-.531-.474-.797-1.073-.797-1.797 0-.88.334-1.562 1-2.047.672-.489 1.615-.734 2.829-.734h1.406v-.664c0-.505-.151-.906-.453-1.203-.302-.302-.748-.453-1.336-.453-.516 0-.948.13-1.297.39-.349.261-.524.576-.524.946h-1.453c0-.422.149-.829.446-1.219.302-.396.708-.708 1.218-.938a4.133 4.133 0 0 1 1.696-.343c.974 0 1.737.244 2.289.734.552.484.838 1.154.859 2.008v3.89c0 .776.099 1.394.297 1.852V435h-1.516Zm-2.398-1.102c.453 0 .883-.117 1.289-.351.406-.235.7-.539.883-.914v-1.735h-1.133c-1.771 0-2.656.519-2.656 1.555 0 .453.151.807.453 1.063.302.255.69.382 1.164.382Zm13.023-3.031c0 1.287-.294 2.323-.882 3.11-.589.786-1.386 1.179-2.391 1.179-1.026 0-1.833-.325-2.422-.976v4.07h-1.445v-11.703h1.32l.07.937c.589-.729 1.407-1.093 2.453-1.093 1.016 0 1.818.382 2.407 1.148.593.766.89 1.831.89 3.195v.133Zm-1.445-.164c0-.953-.203-1.706-.609-2.258-.407-.552-.964-.828-1.672-.828-.875 0-1.531.388-1.969 1.164v4.039c.432.771 1.094 1.157 1.984 1.157.693 0 1.243-.274 1.649-.821.411-.552.617-1.37.617-2.453Zm8.945-2.984h-2.836V435h-1.445v-7.281h-2.781v-1.172h7.062v1.172Zm1.438 6.523c0-.25.073-.458.219-.625.151-.166.375-.25.671-.25.297 0 .521.084.672.25a.876.876 0 0 1 .235.625.83.83 0 0 1-.235.602c-.151.161-.375.242-.672.242-.296 0-.52-.081-.671-.242a.865.865 0 0 1-.219-.602ZM635.521 459h-7.454v-1.039l3.938-4.375c.583-.662.984-1.198 1.203-1.609.224-.417.336-.847.336-1.289 0-.594-.18-1.081-.539-1.461-.359-.381-.839-.571-1.438-.571-.718 0-1.278.206-1.679.617-.396.407-.594.974-.594 1.704h-1.445c0-1.047.336-1.894 1.007-2.539.678-.646 1.581-.969 2.711-.969 1.058 0 1.894.278 2.508.836.615.552.922 1.289.922 2.211 0 1.119-.713 2.453-2.141 4l-3.046 3.304h5.711V459Zm8.664-4.852c0 1.693-.289 2.951-.868 3.774-.578.823-1.481 1.234-2.711 1.234-1.213 0-2.112-.401-2.695-1.203-.583-.807-.885-2.01-.906-3.609v-1.93c0-1.672.289-2.914.867-3.726.578-.813 1.484-1.219 2.719-1.219 1.224 0 2.125.393 2.703 1.179.578.782.875 1.99.891 3.625v1.875Zm-1.446-1.976c0-1.224-.172-2.115-.515-2.672-.344-.562-.888-.844-1.633-.844-.74 0-1.279.279-1.617.836-.339.557-.513 1.414-.524 2.57v2.313c0 1.229.177 2.138.531 2.727.36.583.901.875 1.625.875.714 0 1.243-.276 1.586-.829.349-.552.532-1.421.547-2.609v-2.367Zm10.75 6.828h-7.453v-1.039l3.938-4.375c.583-.662.984-1.198 1.203-1.609.224-.417.336-.847.336-1.289 0-.594-.18-1.081-.539-1.461-.36-.381-.839-.571-1.438-.571-.719 0-1.279.206-1.68.617-.395.407-.593.974-.593 1.704h-1.446c0-1.047.336-1.894 1.008-2.539.677-.646 1.581-.969 2.711-.969 1.057 0 1.893.278 2.508.836.615.552.922 1.289.922 2.211 0 1.119-.714 2.453-2.141 4l-3.047 3.304h5.711V459Zm6.282 0h-1.454v-9.633l-2.914 1.071v-1.313l4.141-1.555h.227V459Zm65.201-26.969h-4.766l-1.07 2.969h-1.547l4.344-11.375h1.312L727.597 435h-1.539l-1.086-2.969Zm-4.313-1.234h3.867l-1.937-5.32-1.93 5.32ZM735.815 435h-1.445v-7.258h-3.891V435h-1.453v-8.453h6.789V435Zm9.461-4.133c0 1.287-.294 2.323-.882 3.11-.589.786-1.386 1.179-2.391 1.179-1.026 0-1.833-.325-2.422-.976v4.07h-1.445v-11.703h1.32l.07.937c.589-.729 1.407-1.093 2.453-1.093 1.016 0 1.818.382 2.407 1.148.593.766.89 1.831.89 3.195v.133Zm-1.445-.164c0-.953-.203-1.706-.609-2.258-.407-.552-.964-.828-1.672-.828-.875 0-1.531.388-1.969 1.164v4.039c.432.771 1.094 1.157 1.984 1.157.693 0 1.243-.274 1.649-.821.411-.552.617-1.37.617-2.453Zm6.797 4.453c-1.146 0-2.078-.375-2.797-1.125-.719-.755-1.078-1.763-1.078-3.023v-.266c0-.838.159-1.586.476-2.242.323-.661.771-1.177 1.344-1.547a3.38 3.38 0 0 1 1.875-.562c1.099 0 1.953.362 2.563 1.086.609.724.914 1.76.914 3.109v.602h-5.727c.021.833.263 1.507.727 2.023.469.51 1.062.766 1.781.766.51 0 .943-.105 1.297-.313.354-.208.664-.484.93-.828l.882.687c-.708 1.089-1.77 1.633-3.187 1.633Zm-.18-7.578c-.583 0-1.073.214-1.469.641-.395.422-.64 1.015-.734 1.781h4.234v-.109c-.041-.735-.239-1.302-.593-1.703-.354-.407-.834-.61-1.438-.61Zm12.086-1.031V435h-1.453v-7.258h-2.875l-.172 3.164c-.094 1.453-.338 2.492-.734 3.117-.391.625-1.013.951-1.867.977h-.579v-1.273l.415-.032c.468-.052.804-.323 1.007-.812.203-.49.334-1.396.391-2.719l.156-3.617h5.711Zm3.899 2.914h2.195c.958.01 1.716.26 2.273.75.558.49.836 1.154.836 1.992 0 .844-.286 1.521-.859 2.031-.573.511-1.344.766-2.313.766h-3.578v-8.453h1.446v2.914Zm0 1.18v3.179h2.148c.542 0 .961-.138 1.258-.414.297-.281.445-.664.445-1.148 0-.469-.146-.852-.437-1.149-.287-.302-.69-.458-1.211-.468h-2.203ZM735.339 459h-7.453v-1.039l3.937-4.375c.584-.662.985-1.198 1.203-1.609.224-.417.336-.847.336-1.289 0-.594-.179-1.081-.539-1.461-.359-.381-.838-.571-1.437-.571-.719 0-1.279.206-1.68.617-.396.407-.594.974-.594 1.704h-1.445c0-1.047.336-1.894 1.008-2.539.677-.646 1.581-.969 2.711-.969 1.057 0 1.893.278 2.508.836.614.552.921 1.289.921 2.211 0 1.119-.713 2.453-2.14 4l-3.047 3.304h5.711V459Zm8.664-4.852c0 1.693-.289 2.951-.867 3.774-.578.823-1.482 1.234-2.711 1.234-1.214 0-2.112-.401-2.696-1.203-.583-.807-.885-2.01-.906-3.609v-1.93c0-1.672.289-2.914.867-3.726.579-.813 1.485-1.219 2.719-1.219 1.224 0 2.125.393 2.703 1.179.578.782.875 1.99.891 3.625v1.875Zm-1.445-1.976c0-1.224-.172-2.115-.516-2.672-.344-.562-.888-.844-1.633-.844-.739 0-1.278.279-1.617.836-.339.557-.513 1.414-.523 2.57v2.313c0 1.229.177 2.138.531 2.727.359.583.901.875 1.625.875.713 0 1.242-.276 1.586-.829.349-.552.531-1.421.547-2.609v-2.367Zm10.75 6.828h-7.454v-1.039l3.938-4.375c.583-.662.984-1.198 1.203-1.609.224-.417.336-.847.336-1.289 0-.594-.18-1.081-.539-1.461-.359-.381-.839-.571-1.438-.571-.718 0-1.278.206-1.679.617-.396.407-.594.974-.594 1.704h-1.445c0-1.047.336-1.894 1.008-2.539.677-.646 1.58-.969 2.71-.969 1.058 0 1.894.278 2.508.836.615.552.922 1.289.922 2.211 0 1.119-.713 2.453-2.14 4l-3.047 3.304h5.711V459Zm6.281 0h-1.453v-9.633l-2.914 1.071v-1.313l4.14-1.555h.227V459Zm72.443-35.375 3.718 9.281 3.719-9.281h1.946V435h-1.5v-4.43l.14-4.781-3.734 9.211h-1.149l-3.726-9.188.148 4.758V435h-1.5v-11.375h1.938ZM849.055 435c-.083-.167-.151-.464-.203-.891-.672.698-1.474 1.047-2.406 1.047-.834 0-1.518-.234-2.055-.703-.531-.474-.797-1.073-.797-1.797 0-.88.334-1.562 1-2.047.672-.489 1.615-.734 2.828-.734h1.407v-.664c0-.505-.151-.906-.454-1.203-.302-.302-.747-.453-1.335-.453-.516 0-.948.13-1.297.39-.349.261-.524.576-.524.946h-1.453c0-.422.149-.829.445-1.219.303-.396.709-.708 1.219-.938a4.131 4.131 0 0 1 1.695-.343c.974 0 1.737.244 2.29.734.552.484.838 1.154.859 2.008v3.89c0 .776.099 1.394.297 1.852V435h-1.516Zm-2.398-1.102c.453 0 .883-.117 1.289-.351.406-.235.7-.539.883-.914v-1.735h-1.133c-1.771 0-2.656.519-2.656 1.555 0 .453.151.807.453 1.063.302.255.69.382 1.164.382Zm11.351-7.351h1.446V435h-1.446v-6.164L854.11 435h-1.445v-8.453h1.445v6.172l3.898-6.172Zm.391-3.078c0 .63-.216 1.138-.649 1.523-.427.38-.989.57-1.687.57-.698 0-1.263-.192-1.695-.578-.433-.385-.649-.89-.649-1.515h1.18c0 .364.099.651.297.859.198.203.487.305.867.305.365 0 .648-.102.852-.305.208-.203.312-.489.312-.859h1.172ZM835.157 459h-7.453v-1.039l3.937-4.375c.583-.662.984-1.198 1.203-1.609.224-.417.336-.847.336-1.289 0-.594-.18-1.081-.539-1.461-.359-.381-.838-.571-1.437-.571-.719 0-1.279.206-1.68.617-.396.407-.594.974-.594 1.704h-1.445c0-1.047.336-1.894 1.008-2.539.677-.646 1.58-.969 2.711-.969 1.057 0 1.893.278 2.507.836.615.552.922 1.289.922 2.211 0 1.119-.713 2.453-2.14 4l-3.047 3.304h5.711V459Zm8.664-4.852c0 1.693-.289 2.951-.867 3.774-.579.823-1.482 1.234-2.711 1.234-1.214 0-2.112-.401-2.696-1.203-.583-.807-.885-2.01-.906-3.609v-1.93c0-1.672.289-2.914.867-3.726.578-.813 1.485-1.219 2.719-1.219 1.224 0 2.125.393 2.703 1.179.578.782.875 1.99.891 3.625v1.875Zm-1.446-1.976c0-1.224-.171-2.115-.515-2.672-.344-.562-.888-.844-1.633-.844-.74 0-1.279.279-1.617.836-.339.557-.513 1.414-.524 2.57v2.313c0 1.229.178 2.138.532 2.727.359.583.901.875 1.625.875.713 0 1.242-.276 1.586-.829.349-.552.531-1.421.546-2.609v-2.367Zm10.75 6.828h-7.453v-1.039l3.938-4.375c.583-.662.984-1.198 1.203-1.609.224-.417.336-.847.336-1.289 0-.594-.18-1.081-.539-1.461-.36-.381-.839-.571-1.438-.571-.718 0-1.278.206-1.679.617-.396.407-.594.974-.594 1.704h-1.445c0-1.047.336-1.894 1.007-2.539.678-.646 1.581-.969 2.711-.969 1.058 0 1.894.278 2.508.836.615.552.922 1.289.922 2.211 0 1.119-.713 2.453-2.141 4l-3.046 3.304h5.71V459Zm6.282 0h-1.453v-9.633l-2.914 1.071v-1.313l4.14-1.555h.227V459Zm72.482-35.375h1.5V435h-1.5v-8.766L926.288 435h-1.508v-11.375h1.508v8.766l5.601-8.766Zm5.586 6.508h2.031c.11-1.125.508-2.029 1.196-2.711.692-.688 1.565-1.031 2.617-1.031 1.104 0 2.008.372 2.711 1.117.703.745 1.083 1.713 1.14 2.906l.008.453c0 .823-.161 1.565-.484 2.227-.323.661-.776 1.172-1.36 1.531-.583.354-1.25.531-2 .531-1.088 0-1.979-.354-2.671-1.062-.693-.714-1.081-1.638-1.164-2.774h-2.024V435h-1.445v-8.453h1.445v3.586Zm3.453.734c0 .938.216 1.69.649 2.258.437.568 1.023.852 1.757.852.735 0 1.316-.289 1.743-.868.432-.578.648-1.382.648-2.414 0-.922-.219-1.672-.656-2.25-.438-.578-1.021-.867-1.75-.867-.719 0-1.297.284-1.735.852-.437.567-.656 1.38-.656 2.437Zm14.852-4.32V435h-1.453v-7.258h-2.875l-.172 3.164c-.094 1.453-.339 2.492-.735 3.117-.39.625-1.013.951-1.867.977h-.578v-1.273l.414-.032c.469-.052.805-.323 1.008-.812.203-.49.333-1.396.391-2.719l.156-3.617h5.711Zm3.898 2.914h2.196c.958.01 1.716.26 2.273.75.557.49.836 1.154.836 1.992 0 .844-.287 1.521-.859 2.031-.573.511-1.344.766-2.313.766h-3.578v-8.453h1.445v2.914Zm0 1.18v3.179h2.149c.541 0 .961-.138 1.257-.414.297-.281.446-.664.446-1.148 0-.469-.146-.852-.438-1.149-.286-.302-.69-.458-1.211-.468h-2.203ZM934.975 459h-7.453v-1.039l3.937-4.375c.584-.662.985-1.198 1.204-1.609.224-.417.336-.847.336-1.289 0-.594-.18-1.081-.54-1.461-.359-.381-.838-.571-1.437-.571-.719 0-1.279.206-1.68.617-.396.407-.593.974-.593 1.704h-1.446c0-1.047.336-1.894 1.008-2.539.677-.646 1.581-.969 2.711-.969 1.057 0 1.893.278 2.508.836.614.552.922 1.289.922 2.211 0 1.119-.714 2.453-2.141 4l-3.047 3.304h5.711V459Zm8.664-4.852c0 1.693-.289 2.951-.867 3.774-.578.823-1.482 1.234-2.711 1.234-1.214 0-2.112-.401-2.695-1.203-.584-.807-.886-2.01-.907-3.609v-1.93c0-1.672.29-2.914.868-3.726.578-.813 1.484-1.219 2.718-1.219 1.224 0 2.125.393 2.704 1.179.578.782.875 1.99.89 3.625v1.875Zm-1.445-1.976c0-1.224-.172-2.115-.516-2.672-.344-.562-.888-.844-1.633-.844-.739 0-1.278.279-1.617.836-.338.557-.513 1.414-.523 2.57v2.313c0 1.229.177 2.138.531 2.727.359.583.901.875 1.625.875.714 0 1.242-.276 1.586-.829.349-.552.531-1.421.547-2.609v-2.367Zm10.75 6.828h-7.453v-1.039l3.937-4.375c.584-.662.985-1.198 1.203-1.609.224-.417.336-.847.336-1.289 0-.594-.179-1.081-.539-1.461-.359-.381-.838-.571-1.437-.571-.719 0-1.279.206-1.68.617-.396.407-.594.974-.594 1.704h-1.445c0-1.047.336-1.894 1.008-2.539.677-.646 1.581-.969 2.711-.969 1.057 0 1.893.278 2.508.836.614.552.921 1.289.921 2.211 0 1.119-.713 2.453-2.14 4l-3.047 3.304h5.711V459Zm6.281 0h-1.453v-9.633l-2.914 1.071v-1.313l4.141-1.555h.226V459Zm72.435-35.375h1.5V435h-1.5v-8.766l-5.6 8.766h-1.51v-11.375h1.51v8.766l5.6-8.766Zm5.59 6.508h2.03c.11-1.125.51-2.029 1.19-2.711.7-.688 1.57-1.031 2.62-1.031 1.1 0 2.01.372 2.71 1.117.7.745 1.08 1.713 1.14 2.906l.01.453c0 .823-.16 1.565-.48 2.227-.33.661-.78 1.172-1.36 1.531-.59.354-1.25.531-2 .531-1.09 0-1.98-.354-2.68-1.062-.69-.714-1.08-1.638-1.16-2.774h-2.02V435h-1.45v-8.453h1.45v3.586Zm3.45.734c0 .938.22 1.69.65 2.258.44.568 1.02.852 1.76.852.73 0 1.31-.289 1.74-.868.43-.578.65-1.382.65-2.414 0-.922-.22-1.672-.66-2.25-.44-.578-1.02-.867-1.75-.867-.72 0-1.3.284-1.73.852-.44.567-.66 1.38-.66 2.437Zm14.94 4.133h-1.45v-3.609h-3.88V435h-1.45v-8.453h1.45v3.664h3.88v-3.664h1.45V435Zm3.9-5.539h2.2c.96.01 1.71.26 2.27.75s.84 1.154.84 1.992c0 .844-.29 1.521-.86 2.031-.57.511-1.34.766-2.31.766h-3.58v-8.453h1.44v2.914Zm0 1.18v3.179h2.15c.54 0 .96-.138 1.26-.414.3-.281.45-.664.45-1.148 0-.469-.15-.852-.44-1.149-.29-.302-.69-.458-1.21-.468h-2.21ZM1034.79 459h-7.45v-1.039l3.94-4.375c.58-.662.98-1.198 1.2-1.609.22-.417.34-.847.34-1.289 0-.594-.18-1.081-.54-1.461-.36-.381-.84-.571-1.44-.571-.72 0-1.28.206-1.68.617-.4.407-.59.974-.59 1.704h-1.45c0-1.047.34-1.894 1.01-2.539.68-.646 1.58-.969 2.71-.969 1.06 0 1.89.278 2.51.836.61.552.92 1.289.92 2.211 0 1.119-.71 2.453-2.14 4l-3.05 3.304h5.71V459Zm8.67-4.852c0 1.693-.29 2.951-.87 3.774-.58.823-1.48 1.234-2.71 1.234-1.21 0-2.11-.401-2.7-1.203-.58-.807-.88-2.01-.9-3.609v-1.93c0-1.672.29-2.914.87-3.726.57-.813 1.48-1.219 2.71-1.219s2.13.393 2.71 1.179c.58.782.87 1.99.89 3.625v1.875Zm-1.45-1.976c0-1.224-.17-2.115-.51-2.672-.35-.562-.89-.844-1.64-.844-.74 0-1.27.279-1.61.836-.34.557-.52 1.414-.53 2.57v2.313c0 1.229.18 2.138.53 2.727.36.583.91.875 1.63.875.71 0 1.24-.276 1.59-.829.34-.552.53-1.421.54-2.609v-2.367Zm10.75 6.828h-7.45v-1.039l3.94-4.375c.58-.662.98-1.198 1.2-1.609.22-.417.34-.847.34-1.289 0-.594-.18-1.081-.54-1.461-.36-.381-.84-.571-1.44-.571-.72 0-1.28.206-1.68.617-.4.407-.59.974-.59 1.704h-1.45c0-1.047.34-1.894 1.01-2.539.68-.646 1.58-.969 2.71-.969 1.06 0 1.89.278 2.51.836.61.552.92 1.289.92 2.211 0 1.119-.71 2.453-2.14 4l-3.05 3.304h5.71V459Zm6.28 0h-1.45v-9.633l-2.91 1.071v-1.313l4.14-1.555h.22V459Zm77.49-26.969h-4.77l-1.07 2.969h-1.55l4.35-11.375h1.31l4.35 11.375h-1.54l-1.08-2.969Zm-4.32-1.234h3.87l-1.94-5.32-1.93 5.32Zm8.38 4.203v-8.453h3.29c1.13 0 1.99.198 2.59.594.6.39.91.966.91 1.726 0 .391-.12.745-.35 1.063-.24.312-.59.552-1.04.718.51.12.92.355 1.22.704.32.349.47.765.47 1.25 0 .776-.28 1.369-.86 1.781-.57.411-1.37.617-2.41.617h-3.82Zm1.44-3.711v2.547h2.39c.61 0 1.06-.112 1.36-.336.3-.224.45-.539.45-.945 0-.844-.62-1.266-1.86-1.266h-2.34Zm0-1.156h1.87c1.35 0 2.03-.396 2.03-1.188 0-.791-.64-1.2-1.92-1.226h-1.98v2.414Zm13.03-2.391h-3.9V435h-1.45v-8.453h5.35v1.195Zm1.29 6.5c0-.25.07-.458.21-.625.16-.166.38-.25.68-.25.29 0 .52.084.67.25.15.167.23.375.23.625 0 .24-.08.44-.23.602-.15.161-.38.242-.67.242-.3 0-.52-.081-.68-.242a.887.887 0 0 1-.21-.602ZM1134.61 459h-7.45v-1.039l3.94-4.375c.58-.662.98-1.198 1.2-1.609.22-.417.33-.847.33-1.289 0-.594-.17-1.081-.53-1.461-.36-.381-.84-.571-1.44-.571-.72 0-1.28.206-1.68.617-.4.407-.6.974-.6 1.704h-1.44c0-1.047.34-1.894 1.01-2.539.67-.646 1.58-.969 2.71-.969 1.06 0 1.89.278 2.51.836.61.552.92 1.289.92 2.211 0 1.119-.72 2.453-2.14 4l-3.05 3.304h5.71V459Zm8.67-4.852c0 1.693-.29 2.951-.87 3.774-.58.823-1.48 1.234-2.71 1.234-1.22 0-2.11-.401-2.7-1.203-.58-.807-.88-2.01-.9-3.609v-1.93c0-1.672.28-2.914.86-3.726.58-.813 1.49-1.219 2.72-1.219 1.23 0 2.13.393 2.7 1.179.58.782.88 1.99.9 3.625v1.875Zm-1.45-1.976c0-1.224-.17-2.115-.52-2.672-.34-.562-.88-.844-1.63-.844-.74 0-1.28.279-1.62.836-.33.557-.51 1.414-.52 2.57v2.313c0 1.229.18 2.138.53 2.727.36.583.9.875 1.63.875.71 0 1.24-.276 1.58-.829.35-.552.53-1.421.55-2.609v-2.367Zm10.75 6.828h-7.45v-1.039l3.93-4.375c.59-.662.99-1.198 1.21-1.609.22-.417.33-.847.33-1.289 0-.594-.18-1.081-.54-1.461-.35-.381-.83-.571-1.43-.571-.72 0-1.28.206-1.68.617-.4.407-.6.974-.6 1.704h-1.44c0-1.047.33-1.894 1.01-2.539.67-.646 1.58-.969 2.71-.969 1.05 0 1.89.278 2.5.836.62.552.93 1.289.93 2.211 0 1.119-.72 2.453-2.14 4l-3.05 3.304h5.71V459Zm6.28 0h-1.45v-9.633l-2.92 1.071v-1.313l4.14-1.555h.23V459Zm74.8-27.609c-.14 1.203-.58 2.132-1.33 2.789-.75.651-1.74.976-2.98.976-1.34 0-2.42-.482-3.23-1.445-.81-.964-1.21-2.253-1.21-3.867v-1.094c0-1.057.18-1.987.56-2.789.38-.802.92-1.417 1.61-1.844.69-.432 1.49-.648 2.4-.648 1.21 0 2.18.338 2.91 1.015.73.672 1.15 1.605 1.27 2.797h-1.5c-.13-.906-.42-1.562-.86-1.969-.43-.406-1.03-.609-1.82-.609-.95 0-1.71.354-2.25 1.063-.55.708-.82 1.716-.82 3.023v1.102c0 1.234.26 2.216.78 2.945.51.729 1.23 1.094 2.16 1.094.83 0 1.47-.188 1.92-.563.44-.38.74-1.039.89-1.976h1.5Zm5.34 3.765c-1.15 0-2.08-.375-2.8-1.125-.72-.755-1.08-1.763-1.08-3.023v-.266c0-.838.16-1.586.48-2.242a3.7 3.7 0 0 1 1.35-1.547c.57-.375 1.2-.562 1.87-.562 1.1 0 1.95.362 2.56 1.086.61.724.92 1.76.92 3.109v.602h-5.73c.02.833.26 1.507.73 2.023.47.51 1.06.766 1.78.766.51 0 .94-.105 1.3-.313.35-.208.66-.484.92-.828l.89.687c-.71 1.089-1.77 1.633-3.19 1.633Zm-.18-7.578c-.58 0-1.07.214-1.47.641-.39.422-.64 1.015-.73 1.781h4.23v-.109c-.04-.735-.24-1.302-.59-1.703-.36-.407-.84-.61-1.44-.61Zm12.06 7.422h-1.44v-3.609h-3.89V435h-1.45v-8.453h1.45v3.664h3.89v-3.664h1.44V435Zm8.61-7.281h-2.83V435h-1.45v-7.281h-2.78v-1.172h7.06v1.172Zm1.44 6.523c0-.25.07-.458.22-.625.15-.166.37-.25.67-.25.3 0 .52.084.67.25.16.167.24.375.24.625 0 .24-.08.44-.24.602-.15.161-.37.242-.67.242-.3 0-.52-.081-.67-.242a.848.848 0 0 1-.22-.602ZM1234.43 459h-7.45v-1.039l3.93-4.375c.59-.662.99-1.198 1.21-1.609.22-.417.33-.847.33-1.289 0-.594-.18-1.081-.54-1.461-.36-.381-.83-.571-1.43-.571-.72 0-1.28.206-1.68.617-.4.407-.6.974-.6 1.704h-1.44c0-1.047.33-1.894 1.01-2.539.67-.646 1.58-.969 2.71-.969 1.05 0 1.89.278 2.5.836.62.552.93 1.289.93 2.211 0 1.119-.72 2.453-2.14 4l-3.05 3.304h5.71V459Zm8.66-4.852c0 1.693-.29 2.951-.86 3.774-.58.823-1.49 1.234-2.71 1.234s-2.12-.401-2.7-1.203c-.58-.807-.89-2.01-.91-3.609v-1.93c0-1.672.29-2.914.87-3.726.58-.813 1.49-1.219 2.72-1.219 1.22 0 2.12.393 2.7 1.179.58.782.88 1.99.89 3.625v1.875Zm-1.44-1.976c0-1.224-.17-2.115-.52-2.672-.34-.562-.89-.844-1.63-.844-.74 0-1.28.279-1.62.836-.34.557-.51 1.414-.52 2.57v2.313c0 1.229.18 2.138.53 2.727.36.583.9.875 1.63.875.71 0 1.24-.276 1.58-.829.35-.552.53-1.421.55-2.609v-2.367ZM1252.4 459h-7.45v-1.039l3.93-4.375c.59-.662.99-1.198 1.21-1.609.22-.417.33-.847.33-1.289 0-.594-.18-1.081-.54-1.461-.36-.381-.84-.571-1.43-.571-.72 0-1.28.206-1.68.617-.4.407-.6.974-.6 1.704h-1.44c0-1.047.33-1.894 1-2.539.68-.646 1.59-.969 2.72-.969 1.05 0 1.89.278 2.5.836.62.552.93 1.289.93 2.211 0 1.119-.72 2.453-2.15 4l-3.04 3.304h5.71V459Zm6.28 0h-1.45v-9.633l-2.92 1.071v-1.313l4.14-1.555h.23V459Z" fill="#fff" fill-opacity=".7"/>
  </g>
  <defs>
    <linearGradient id="b" x1="-8.581" y1="-5.639" x2="1311.67" y2="519.812" gradientUnits="userSpaceOnUse">
      <stop stop-color="#0068EC"/>
      <stop offset="1" stop-color="#00BBF9"/>
    </linearGradient>
    <linearGradient id="f" x1="1274.74" y1="137.313" x2="1023.89" y2="775.398" gradientUnits="userSpaceOnUse">
      <stop stop-color="#30FFF3"/>
      <stop offset="1" stop-color="#CFFCFF"/>
    </linearGradient>
    <linearGradient id="h" x1="1274.74" y1="160.948" x2="1079.43" y2="733.527" gradientUnits="userSpaceOnUse">
      <stop stop-color="#02EFD3"/>
      <stop offset="1" stop-color="#9EFFEE"/>
    </linearGradient>
    <linearGradient id="j" x1="1274.74" y1="150.91" x2="1080.92" y2="721.565" gradientUnits="userSpaceOnUse">
      <stop stop-color="#3274F4"/>
      <stop offset="1" stop-color="#fff"/>
    </linearGradient>
    <linearGradient id="l" x1="1274.74" y1="176.431" x2="1135.53" y2="667.853" gradientUnits="userSpaceOnUse">
      <stop stop-color="#76D6FF"/>
      <stop offset="1" stop-color="#D5F4FF"/>
    </linearGradient>
    <filter id="a" x="0" y="0" width="1302" height="496" filterUnits="userSpaceOnUse" color-interpolation-filters="sRGB">
      <feFlood flood-opacity="0" result="BackgroundImageFix"/>
      <feColorMatrix in="SourceAlpha" values="0 0 0 0 0 0 0 0 0 0 0 0 0 0 0 0 0 0 127 0" result="hardAlpha"/>
      <feOffset dy="2"/>
      <feGaussianBlur stdDeviation="2"/>
      <feComposite in2="hardAlpha" operator="out"/>
      <feColorMatrix values="0 0 0 0 0 0 0 0 0 0 0 0 0 0 0 0 0 0 0.15 0"/>
      <feBlend in2="BackgroundImageFix" result="effect1_dropShadow_673:309"/>
      <feBlend in="SourceGraphic" in2="effect1_dropShadow_673:309" result="shape"/>
    </filter>
    <filter id="e" x="84.133" y="122.98" width="1195.34" height="283.682" filterUnits="userSpaceOnUse" color-interpolation-filters="sRGB">
      <feFlood flood-opacity="0" result="BackgroundImageFix"/>
      <feColorMatrix in="SourceAlpha" values="0 0 0 0 0 0 0 0 0 0 0 0 0 0 0 0 0 0 127 0" result="hardAlpha"/>
      <feOffset dy="2"/>
      <feGaussianBlur stdDeviation="2"/>
      <feComposite in2="hardAlpha" operator="out"/>
      <feColorMatrix values="0 0 0 0 0 0 0 0 0 0 0 0 0 0 0 0 0 0 0.3 0"/>
      <feBlend in2="BackgroundImageFix" result="effect1_dropShadow_673:309"/>
      <feBlend in="SourceGraphic" in2="effect1_dropShadow_673:309" result="shape"/>
    </filter>
    <filter id="g" x="84.762" y="147.8" width="1194.42" height="248.372" filterUnits="userSpaceOnUse" color-interpolation-filters="sRGB">
      <feFlood flood-opacity="0" result="BackgroundImageFix"/>
      <feColorMatrix in="SourceAlpha" values="0 0 0 0 0 0 0 0 0 0 0 0 0 0 0 0 0 0 127 0" result="hardAlpha"/>
      <feOffset dy="2"/>
      <feGaussianBlur stdDeviation="2"/>
      <feComposite in2="hardAlpha" operator="out"/>
      <feColorMatrix values="0 0 0 0 0 0 0 0 0 0 0 0 0 0 0 0 0 0 0.3 0"/>
      <feBlend in2="BackgroundImageFix" result="effect1_dropShadow_673:309"/>
      <feBlend in="SourceGraphic" in2="effect1_dropShadow_673:309" result="shape"/>
    </filter>
    <filter id="i" x="85.549" y="137.517" width="1192.74" height="247.942" filterUnits="userSpaceOnUse" color-interpolation-filters="sRGB">
      <feFlood flood-opacity="0" result="BackgroundImageFix"/>
      <feColorMatrix in="SourceAlpha" values="0 0 0 0 0 0 0 0 0 0 0 0 0 0 0 0 0 0 127 0" result="hardAlpha"/>
      <feOffset dy="2"/>
      <feGaussianBlur stdDeviation="2"/>
      <feComposite in2="hardAlpha" operator="out"/>
      <feColorMatrix values="0 0 0 0 0 0 0 0 0 0 0 0 0 0 0 0 0 0 0.3 0"/>
      <feBlend in2="BackgroundImageFix" result="effect1_dropShadow_673:309"/>
      <feBlend in="SourceGraphic" in2="effect1_dropShadow_673:309" result="shape"/>
    </filter>
    <filter id="k" x="85.519" y="169.888" width="1192.81" height="203.566" filterUnits="userSpaceOnUse" color-interpolation-filters="sRGB">
      <feFlood flood-opacity="0" result="BackgroundImageFix"/>
      <feColorMatrix in="SourceAlpha" values="0 0 0 0 0 0 0 0 0 0 0 0 0 0 0 0 0 0 127 0" result="hardAlpha"/>
      <feOffset dy="2"/>
      <feGaussianBlur stdDeviation="2"/>
      <feComposite in2="hardAlpha" operator="out"/>
      <feColorMatrix values="0 0 0 0 0 0 0 0 0 0 0 0 0 0 0 0 0 0 0.3 0"/>
      <feBlend in2="BackgroundImageFix" result="effect1_dropShadow_673:309"/>
      <feBlend in="SourceGraphic" in2="effect1_dropShadow_673:309" result="shape"/>
    </filter>
    <clipPath id="c">
      <path fill="#fff" transform="translate(90 98)" d="M0 0h1184v312H0z"/>
    </clipPath>
    <clipPath id="d">
      <path fill="#fff" transform="translate(90 98)" d="M0 0h1184v312H0z"/>
    </clipPath>
  </defs>
</svg>
