<svg width="20" height="20" viewBox="0 0 20 20" fill="none" xmlns="http://www.w3.org/2000/svg">
<path d="M2.93 2.93a9.998 9.998 0 0 1 14.141 0 9.998 9.998 0 0 1 0 14.14 9.998 9.998 0 0 1-14.141 0 9.998 9.998 0 0 1 0-14.14ZM6.2 7.846l4.217-.088-5.206 5.206c-.38.38-.38.99 0 1.369l.456.456c.38.379.99.379 1.368 0l5.206-5.206-.088 4.216a.969.969 0 0 0 .966.99l.625-.003c.536 0 .97-.434.966-.967l.003-7.563a.964.964 0 0 0-.966-.967l-7.57-.003a.964.964 0 0 0-.966.967l-.003.624c.003.545.45.98.992.97Z" fill="#333"/>
</svg>
