<svg width="120" height="24" fill="none" xmlns="http://www.w3.org/2000/svg">
  <g clip-path="url(#a)" fill-rule="evenodd" clip-rule="evenodd" fill="#D51900">
    <path d="M43.541 8.69c0-.218.134-.334.303-.334.286 0 .717.334.96 1.003-.087 0-.218.03-.306.03-.52 0-.957-.274-.957-.699Zm-31.461 0c0-.218.129-.334.305-.334.278 0 .692.334.932 1.003-.803 0-1.237-.191-1.237-.669Zm6.068-3.456c0-3.577.632-4.127.828-4.127.349 0 .39.24.39 1.612 0 1.41-.544 3.255-1.218 4.268V5.234Zm22.089 3.528c-.374.575-.678 1.392-.678 2.444 0 2.016 1.043 3.94 3.068 3.94 1.959 0 3.33-1.706 3.33-4.085 0-.691-.023-.786-.064-1.073.455-.219.848-.553 1.154-.82.26-.217.454-.337.61-.337.194 0 .28.168.28.48v4.707c0 .767.22 1.129.762 1.129.499 0 .85-.387 1.044-.842.72-1.656 1.763-3.864 2.218-4.702.11-.192.198-.34.26-.34.088 0 .133.074.133.384v3.748c0 1.055.437 1.752 1.39 1.752 1.003 0 1.501-1.06 2.378-2.691a.596.596 0 0 0 .06-.238c0-.216-.17-.338-.345-.338-.198 0-.306.217-.958 1.007-.132.15-.26.358-.501.358-.087 0-.153-.115-.153-.262V8.782c0-1.128-.458-1.584-1.045-1.584-.477 0-.871.216-1.284.889-.74 1.202-1.501 2.908-1.913 3.767-.047.1-.11.244-.152.244-.045 0-.064-.075-.064-.244V8.782c0-.886-.218-1.584-1.068-1.584-.893 0-1.35.673-2.002 1.176-.414.34-.782.577-1.064.721-.438-1.224-1.242-1.844-1.916-1.825-.677.025-1.155.484-1.155 1.253 0 .787.437 1.336 1.022 1.58.325.144.63.172 1.068.172.131 0 .261 0 .345-.028.046.24.026.58.026.843 0 1.178-.632 2.35-1.805 2.35-1.222 0-1.937-1.296-1.937-2.782 0-1.13.303-2.064.8-2.71.2-.241.35-.388.35-.61 0-.111-.15-.14-.281-.14-.829 0-1.74.41-2.37.768-.831.48-1.808 1.276-2.614 2.067-.391-.963-.87-1.802-1.11-2.453-.087-.263-.15-.57-.325-.57-.154 0-.221.168-.328.499-.39 1.273-2.48 4.996-2.937 5.5-.044.069-.107.145-.127.145-.048 0-.072-.024-.072-.17V8.781c0-1.128-.413-1.584-.975-1.584-.48 0-.893.216-1.284.889-.717 1.202-1.591 2.954-2.003 3.816-.066.149-.132.194-.154.194-.022 0-.04-.095-.04-.243V8.782c0-1.128-.415-1.584-.981-1.584-.48 0-.935.197-1.307.889-.912 1.706-2.434 4.322-2.717 4.75a.38.38 0 0 1-.132.146c-.043 0-.067-.046-.067-.166V8.782c0-1.128-.413-1.584-.976-1.584-.785 0-1.217.796-1.503 1.297a42.212 42.212 0 0 0-1.326 2.5c-.284.578-.524 1.103-.612 1.103-.042 0-.042-.218-.042-.625V8.258c1.369-1.683 2.218-3.745 2.218-6.001 0-1.299-.52-2.015-1.323-2.015-1.505 0-2.655 2.593-2.655 5.662V8.4c-.698.48-1.351.715-2.158.89-.412-1.342-1.284-2.039-1.977-2.02-.673.025-1.154.484-1.154 1.253 0 1.27 1.132 1.798 2.13 1.798h.284c.042.241.042.506.042.769 0 1.178-.63 2.35-1.802 2.35-1.218 0-1.938-1.296-1.938-2.782 0-1.13.302-2.064.803-2.71.197-.241.35-.458.35-.61 0-.111-.153-.14-.285-.14-.826 0-2.652 1.23-4.83 3.629-.192-1.92-.411-3.795-.411-5.619 0-2.039.365-3.77.452-4.27.044-.31.072-.505.072-.646C5.966.099 5.873 0 5.638 0 3.874 0 0 3.098 0 7.73c0 3.284 1.09 4.87 2.98 6.91C1.833 16.68.913 19.102.913 21.262c0 1.557.33 2.737 1.371 2.737 2.177 0 3.807-4.99 3.807-8.688 0-1.102-.04-2.208-.125-3.31.802-.941 2.043-2.209 2.345-2.329a6.29 6.29 0 0 0-.217 1.533c0 2.016 1.047 3.94 3.068 3.94 1.896 0 3.33-1.706 3.33-4.085 0-.307-.022-.575-.042-.861.693-.144 1.33-.34 1.938-.742v4.823c0 .621.389.866.76.866.503 0 .763-.387 1.13-1.27.308-.723 1.132-2.378 1.632-3.365.394-.77.612-1.27.787-1.27.04 0 .087.117.087.405v4.106c0 1.104.523 1.394.975 1.394.435 0 .72-.264 1.003-.697 1.133-1.778 2.33-3.888 2.806-4.803.088-.164.196-.288.284-.288.085 0 .129.052.129.36v4.3c0 .766.217 1.128.764 1.128.497 0 .823-.387 1.017-.842.724-1.656 1.787-3.841 2.246-4.702.107-.192.216-.361.28-.361.091 0 .111.117.111.431v4.08c0 1.104.523 1.394.983 1.394.604 0 1-.483 1.39-1.033.715-1.036 1.76-2.877 2.392-4.058.22.386.456.843.655 1.345-.523.697-1.046 1.486-1.046 2.325 0 .89.566 1.42 1.153 1.42 1 0 1.913-1.059 1.913-2.52 0-.574-.15-1.176-.344-1.75.887-.963 1.955-1.899 2.742-2.114ZM4.394 13.993c.176 1.27.328 2.522.328 3.504 0 2.3-.694 4.99-1.892 4.967-.462 0-.85-.51-.87-1.393-.044-2.877 1.196-5.326 2.434-7.078Zm31.77-1.635c.132.413.198.746.198 1.082 0 .385-.13.77-.372.77-.17 0-.345-.217-.345-.554 0-.36.281-.937.52-1.298ZM5.18.912c0 .147-.305.816-.695 2.018a16.493 16.493 0 0 0-.808 5.157c0 1.272.286 2.954.526 4.657l-.696 1.036C2.395 12.288 1.7 10.61 1.7 7.73 1.7 3.65 3.94.82 5.091.82c.069 0 .088.022.088.091ZM107.361 8.69c0-.218.127-.334.303-.334.281 0 .717.334.955 1.003-.084 0-.215.03-.306.03-.518 0-.952-.274-.952-.699Zm-31.467 0c0-.218.132-.334.304-.334.284 0 .701.334.936 1.003-.805 0-1.24-.191-1.24-.669Zm6.072-3.456c0-3.577.628-4.127.826-4.127.347 0 .391.24.391 1.612 0 1.41-.545 3.255-1.217 4.268V5.234Zm-13.75 8.76c.168 1.27.326 2.52.326 3.503 0 2.3-.695 4.99-1.895 4.967-.456 0-.848-.51-.87-1.393-.044-2.877 1.198-5.326 2.438-7.078Zm31.769-1.636c.132.413.194.746.194 1.082 0 .385-.13.77-.37.77-.171 0-.35-.217-.35-.554 0-.36.285-.937.526-1.298ZM68.995.912c0 .147-.302.816-.697 2.018a16.6 16.6 0 0 0-.804 5.157c0 1.272.29 2.954.528 4.657l-.699 1.036c-1.108-1.492-1.808-3.17-1.808-6.05 0-4.08 2.246-6.909 3.397-6.909.063 0 .082.022.082.091Zm-3.629 12c.39.576.87 1.127 1.435 1.727-1.155 2.04-2.067 4.464-2.067 6.624 0 1.557.328 2.737 1.373 2.737 2.174 0 3.804-4.99 3.804-8.688 0-1.102-.042-2.208-.13-3.31.807-.941 2.043-2.209 2.352-2.329a6.221 6.221 0 0 0-.222 1.533c0 2.016 1.046 3.94 3.072 3.94 1.89 0 3.327-1.706 3.327-4.085 0-.307-.02-.575-.044-.861.697-.144 1.332-.34 1.938-.742v4.823c0 .621.39.866.757.866.507 0 .768-.387 1.136-1.27.303-.723 1.132-2.378 1.634-3.365.39-.77.608-1.27.786-1.27.04 0 .082.117.082.405v4.106c0 1.104.52 1.394.978 1.394.437 0 .717-.264 1.005-.697 1.129-1.778 2.327-3.888 2.805-4.803.087-.164.197-.288.281-.288.085 0 .133.052.133.36v4.3c0 .766.215 1.128.758 1.128.501 0 .828-.387 1.025-.842a85.245 85.245 0 0 1 2.24-4.702c.11-.192.219-.361.287-.361.084 0 .108.117.108.431v4.08c0 1.104.518 1.394.974 1.394.614 0 1.006-.483 1.394-1.033.718-1.036 1.765-2.877 2.396-4.058.215.386.457.843.655 1.345-.528.697-1.045 1.486-1.045 2.325 0 .89.56 1.42 1.151 1.42.999 0 1.912-1.059 1.912-2.52 0-.574-.151-1.176-.347-1.75.891-.963 1.958-1.899 2.742-2.114-.37.575-.675 1.392-.675 2.444 0 2.016 1.046 3.94 3.07 3.94 1.958 0 3.325-1.706 3.325-4.085 0-.691-.02-.786-.06-1.073.452-.219.846-.553 1.154-.82.255-.217.455-.337.605-.337.197 0 .289.168.289.48v4.707c0 .767.214 1.129.758 1.129.498 0 .849-.387 1.046-.842.713-1.656 1.76-3.864 2.215-4.702.109-.192.197-.34.263-.34.089 0 .131.074.131.384v3.748c0 1.055.431 1.752 1.391 1.752 1.004 0 1.504-1.06 2.376-2.691a.629.629 0 0 0 .061-.238c0-.216-.174-.338-.347-.338-.194 0-.306.217-.957 1.007-.129.15-.261.358-.5.358-.089 0-.151-.115-.151-.262V8.782c0-1.128-.462-1.584-1.05-1.584-.476 0-.865.216-1.28.889-.742 1.202-1.501 2.908-1.912 3.767-.047.1-.11.244-.156.244-.047 0-.064-.075-.064-.244V8.782c0-.886-.217-1.584-1.066-1.584-.894 0-1.349.673-2.001 1.176-.417.34-.785.577-1.07.721-.431-1.224-1.239-1.844-1.911-1.825-.678.025-1.152.484-1.152 1.253 0 .787.435 1.336 1.017 1.58.327.144.632.172 1.073.172.127 0 .254 0 .346-.028.043.24.02.58.02.843 0 1.178-.632 2.35-1.808 2.35-1.218 0-1.933-1.296-1.933-2.782 0-1.13.302-2.064.801-2.71.198-.241.352-.388.352-.61 0-.111-.154-.14-.284-.14-.824 0-1.74.41-2.372.768-.828.48-1.807 1.276-2.609 2.067-.393-.963-.869-1.802-1.111-2.453-.09-.263-.15-.57-.33-.57-.15 0-.217.168-.324.499-.393 1.273-2.48 4.996-2.937 5.5-.044.069-.109.145-.132.145-.04 0-.065-.024-.065-.17V8.781c0-1.128-.41-1.584-.981-1.584-.48 0-.887.216-1.283.889-.719 1.202-1.587 2.954-2 3.816-.064.149-.128.194-.15.194-.024 0-.047-.095-.047-.243V8.782c0-1.128-.41-1.584-.976-1.584-.48 0-.94.197-1.307.889-.916 1.706-2.437 4.322-2.722 4.75a.322.322 0 0 1-.131.146c-.039 0-.064-.046-.064-.166V8.782c0-1.128-.412-1.584-.98-1.584-.786 0-1.218.796-1.503 1.297-.39.696-.91 1.634-1.325 2.5-.281.578-.521 1.103-.608 1.103-.044 0-.044-.218-.044-.625V8.258c1.373-1.683 2.218-3.745 2.218-6.001 0-1.299-.52-2.015-1.329-2.015-1.499 0-2.65 2.593-2.65 5.662V8.4c-.7.48-1.352.715-2.159.89-.41-1.342-1.281-2.039-1.973-2.02-.68.025-1.156.484-1.156 1.253 0 1.27 1.128 1.798 2.131 1.798h.285c.04.241.04.506.04.769 0 1.178-.629 2.35-1.805 2.35-1.22 0-1.934-1.296-1.934-2.782 0-1.13.304-2.064.801-2.71.195-.242.349-.458.349-.61 0-.111-.154-.14-.282-.14-.828 0-2.655 1.23-4.833 3.629-.191-1.92-.411-3.795-.411-5.619 0-2.039.37-3.77.456-4.27.044-.31.068-.505.068-.646 0-.193-.09-.292-.324-.292-1.764 0-5.637 3.098-5.637 7.73 0 1.893.37 3.24 1.022 4.414-.243-.046-.434-.046-.613-.046-.693 0-1.348.19-1.755.288v-.483c0-1.027-.22-2.445-.613-2.926a.235.235 0 0 0-.172-.07c-.18 0-.394.092-.632.238-.264.144-.525.29-.525.383 0 .046 0 .095.065.214.154.246.568.722.718 1.853-.742-.817-1.586-1.18-2.692-1.18-1.308 0-1.702.646-1.702 1.298 0 1.247 1.502 1.871 3.398 1.871.347 0 .738-.072 1.127-.17 0 .385.044.725.044 1.01 0 .41.063.723.306.723.369 0 .588-.82.63-1.993.674-.194 1.371-.36 1.961-.36.282 0 .634.044.978.118Zm-4.286-.24c-.366.047-.59.047-.978.047-.85 0-1.478-.361-1.478-.884 0-.336.15-.53.586-.53.697 0 1.26.53 1.87 1.367Z"/>
  </g>
  <defs>
    <clipPath id="a">
      <path fill="#fff" d="M0 0h120v24H0z"/>
    </clipPath>
  </defs>
</svg>
