<svg width="74" height="17" fill="none" xmlns="http://www.w3.org/2000/svg">
  <path fill-rule="evenodd" clip-rule="evenodd" d="M68.202 15.833h-1.055c-.246 0-.374.181-.374.526 0 .326.128.507.374.507h4.056c.26 0 .389-.181.389-.507 0-.345-.13-.526-.388-.526h-3.002Z" fill="#28ABE1"/>
  <path fill-rule="evenodd" clip-rule="evenodd" d="M62.014 15.833H60.96c-.24 0-.383.181-.383.526 0 .326.143.507.383.507h4.054c.254 0 .381-.181.381-.507 0-.345-.127-.526-.381-.526h-3Z" fill="#3DB3E3"/>
  <path fill-rule="evenodd" clip-rule="evenodd" d="M56.156 15.833H55.1c-.257 0-.373.181-.373.526 0 .326.116.507.373.507h4.057c.259 0 .388-.181.388-.507 0-.345-.13-.526-.388-.526h-3.001Z" fill="#4AB8E6"/>
  <path fill-rule="evenodd" clip-rule="evenodd" d="M49.968 15.833h-1.049c-.259 0-.388.181-.388.526 0 .326.13.507.388.507h4.044c.258 0 .386-.181.386-.507 0-.345-.128-.526-.386-.526h-2.995Z" fill="#57BDE8"/>
  <path fill-rule="evenodd" clip-rule="evenodd" d="M43.773 15.833h-1.05c-.258 0-.387.181-.387.526 0 .326.13.507.386.507h4.046c.257 0 .386-.181.386-.507 0-.345-.13-.526-.386-.526h-2.995Z" fill="#63C2EB"/>
  <path fill-rule="evenodd" clip-rule="evenodd" d="M37.92 15.833h-1.048c-.259 0-.388.181-.388.526 0 .326.13.507.388.507h4.044c.258 0 .386-.181.386-.507 0-.345-.128-.526-.386-.526H37.92Z" fill="#70C7EB"/>
  <path fill-rule="evenodd" clip-rule="evenodd" d="M31.727 15.833h-1.05c-.258 0-.387.181-.387.526 0 .326.129.507.386.507h4.045c.27 0 .387-.181.387-.507 0-.345-.116-.526-.387-.526h-2.994Z" fill="#7DCCEE"/>
  <path fill-rule="evenodd" clip-rule="evenodd" d="M25.53 15.833h-1.049c-.258 0-.388.181-.388.526 0 .326.13.507.389.507h4.056c.246 0 .375-.181.375-.507 0-.345-.13-.526-.375-.526H25.53Z" fill="#8AD1F0"/>
  <path fill-rule="evenodd" clip-rule="evenodd" d="M19.681 15.833h-1.053c-.258 0-.385.181-.385.526 0 .326.127.507.385.507h4.046c.258 0 .387-.181.387-.507 0-.345-.13-.526-.387-.526h-2.993Z" fill="#97D7F0"/>
  <path fill-rule="evenodd" clip-rule="evenodd" d="M13.475 15.833h-1.042c-.257 0-.387.181-.387.526 0 .326.13.507.387.507h4.047c.257 0 .386-.181.386-.507 0-.345-.13-.526-.386-.526h-3.005Z" fill="#A3DCF3"/>
  <path fill-rule="evenodd" clip-rule="evenodd" d="M7.287 15.833h-1.05c-.257 0-.385.181-.385.526 0 .326.128.507.385.507h4.049c.257 0 .384-.181.384-.507 0-.345-.127-.526-.384-.526H7.287Z" fill="#B0E1F5"/>
  <path fill-rule="evenodd" clip-rule="evenodd" d="M1.429 15.833H.375c-.257 0-.375.181-.375.526 0 .326.118.507.375.507h4.058c.258 0 .387-.181.387-.507 0-.345-.13-.526-.387-.526H1.43Z" fill="#BDE6F5"/>
  <path fill-rule="evenodd" clip-rule="evenodd" d="M0 3.323h1.102v1.514c.379-.565.768-.965 1.17-1.222a3.291 3.291 0 0 1 1.745-.516c.411 0 .803.08 1.181.245.366.167.677.387.906.67.23.271.437.668.608 1.176.367-.681.827-1.2 1.365-1.563a3.222 3.222 0 0 1 1.768-.528c.596 0 1.112.15 1.56.455.447.306.78.731 1.01 1.283.218.54.32 1.363.32 2.443v4.766h-1.112V7.28c0-.929-.069-1.574-.195-1.927a1.73 1.73 0 0 0-.677-.844c-.31-.215-.69-.318-1.125-.318a2.45 2.45 0 0 0-1.457.483c-.437.312-.756.748-.963 1.277-.196.541-.299 1.432-.299 2.68v3.415h-1.1v-4.46c0-1.059-.058-1.773-.184-2.151a1.837 1.837 0 0 0-.677-.904c-.321-.224-.7-.34-1.136-.34-.506 0-.975.15-1.424.47-.435.305-.756.727-.974 1.255-.207.53-.31 1.34-.31 2.431v3.7H0V3.322Zm19.282.894c-.925 0-1.71.344-2.368 1.045-.657.692-.993 1.536-.993 2.534 0 .632.15 1.227.45 1.787.3.55.704.976 1.225 1.272a3.257 3.257 0 0 0 1.686.452c.6 0 1.166-.155 1.674-.452a3.187 3.187 0 0 0 1.223-1.272c.3-.56.452-1.155.452-1.787 0-.998-.336-1.842-.993-2.534-.659-.7-1.444-1.045-2.356-1.045Zm0-1.118c1.316 0 2.411.5 3.28 1.476.797.902 1.188 1.96 1.188 3.2 0 1.226-.418 2.305-1.26 3.223-.832.93-1.904 1.393-3.208 1.393-1.318 0-2.392-.464-3.222-1.393a4.612 4.612 0 0 1-1.259-3.224c0-1.225.393-2.284 1.188-3.188.868-.988 1.965-1.487 3.293-1.487Zm10.727 1.139c-.627 0-1.192.155-1.711.46-.526.319-.93.745-1.24 1.313a3.688 3.688 0 0 0-.464 1.763 3.7 3.7 0 0 0 .464 1.779c.31.567.727 1.006 1.248 1.324.533.306 1.088.474 1.691.474.602 0 1.183-.168 1.724-.474.535-.31.951-.736 1.252-1.266.29-.532.427-1.134.427-1.801 0-1.015-.322-1.867-.986-2.543-.646-.684-1.457-1.029-2.405-1.029ZM34.419 0v12.168H33.33v-1.515a4.95 4.95 0 0 1-1.553 1.3 4.256 4.256 0 0 1-1.897.438c-1.213 0-2.259-.452-3.116-1.36-.855-.899-1.294-1.986-1.294-3.29 0-1.257.439-2.345 1.308-3.244s1.909-1.348 3.136-1.348c.706 0 1.343.152 1.91.46.58.307 1.08.77 1.506 1.387V0h1.088Zm9.787 6.845c-.15-.607-.373-1.079-.654-1.449a2.918 2.918 0 0 0-1.136-.869 3.28 3.28 0 0 0-1.47-.336c-.852 0-1.575.276-2.195.834-.442.405-.783 1.012-1.015 1.82h6.47Zm0 2.38.935.512a5.39 5.39 0 0 1-1.063 1.488c-.41.38-.865.667-1.367.87-.5.188-1.076.296-1.718.296-1.412 0-2.521-.477-3.318-1.415-.794-.951-1.191-2.013-1.191-3.202 0-1.13.328-2.129 1.007-2.998.86-1.119 2.01-1.677 3.447-1.677 1.47 0 2.65.571 3.535 1.71.632.81.947 1.813.96 3.026h-7.805c.027 1.023.34 1.867.968 2.52.62.655 1.395.99 2.303.99.447 0 .864-.085 1.285-.24.422-.154.77-.366 1.064-.62.305-.257.619-.675.958-1.26Zm2.948-5.902h1.158V4.6c.343-.503.715-.877 1.096-1.128.397-.245.788-.373 1.205-.373.323 0 .659.108 1.015.292l-.597.95a1.569 1.569 0 0 0-.594-.15c-.384 0-.753.15-1.098.456-.361.306-.623.788-.812 1.433-.142.494-.215 1.506-.215 3.02v2.947h-1.158V3.322Zm5.852 0h1.062v1.56c.422-.598.904-1.045 1.415-1.337a3.338 3.338 0 0 1 1.69-.447c.624 0 1.172.163 1.653.494.477.34.838.787 1.064 1.338.231.565.342 1.433.342 2.628v4.487H59.17V7.89c0-1.01-.043-1.682-.12-2.021-.125-.577-.357-1.01-.715-1.303-.348-.28-.803-.435-1.376-.435-.637 0-1.217.223-1.73.67a3.149 3.149 0 0 0-1.006 1.666c-.1.435-.155 1.235-.155 2.375v3.204h-1.062V3.323Zm13.831.868a3.33 3.33 0 0 0-1.712.464c-.525.323-.93.753-1.239 1.321a3.73 3.73 0 0 0-.466 1.773c0 .632.165 1.227.466 1.785.31.573.726 1.012 1.247 1.334.534.31 1.089.478 1.69.478.604 0 1.184-.168 1.727-.478.532-.309.95-.736 1.252-1.274.287-.532.425-1.139.425-1.806 0-1.024-.323-1.88-.972-2.56a3.231 3.231 0 0 0-2.418-1.037Zm4.41-.865v8.838h-1.089V10.64a4.852 4.852 0 0 1-1.553 1.312 4.256 4.256 0 0 1-1.897.439c-1.214 0-2.259-.452-3.114-1.368-.858-.902-1.296-2-1.296-3.31 0-1.26.438-2.355 1.307-3.26.87-.904 1.911-1.354 3.138-1.354.706 0 1.341.155 1.91.464.58.31 1.08.775 1.505 1.39V3.326h1.089Zm1.883.758h.139c.074 0 .12 0 .142-.027a.088.088 0 0 0 .048-.08.13.13 0 0 0-.022-.061.127.127 0 0 0-.047-.047c-.025 0-.074-.009-.13-.009h-.13v.224Zm-.118.425v-.748h.248c.094 0 .152 0 .199.014.033.025.072.047.094.085a.159.159 0 0 1 .035.103c0 .06-.022.107-.057.143a.336.336 0 0 1-.166.072c.038.013.047.027.072.035.022.039.055.086.102.155l.096.14h-.151l-.06-.115c-.06-.094-.095-.155-.128-.18-.027-.008-.06-.022-.096-.022h-.069v.318h-.12Zm.295-.971a.56.56 0 0 0-.284.08.473.473 0 0 0-.21.215.528.528 0 0 0-.082.298c0 .094.022.19.082.284a.466.466 0 0 0 .21.215.52.52 0 0 0 .284.082.516.516 0 0 0 .293-.082.46.46 0 0 0 .212-.215.65.65 0 0 0 .08-.284.661.661 0 0 0-.08-.298.543.543 0 0 0-.212-.215.556.556 0 0 0-.293-.08Zm0-.096c.116 0 .232.027.34.074a.592.592 0 0 1 .259.258.602.602 0 0 1 .094.357c0 .12-.02.237-.08.344a.838.838 0 0 1-.26.262.793.793 0 0 1-.352.083.75.75 0 0 1-.345-.083.832.832 0 0 1-.257-.262.687.687 0 0 1-.082-.344.71.71 0 0 1 .082-.357.772.772 0 0 1 .257-.258.963.963 0 0 1 .345-.074Z" fill="#E11735"/>
</svg>
